<?xml version="1.0" encoding="utf-8"?>
<svg xmlns="http://www.w3.org/2000/svg" xmlns:xlink="http://www.w3.org/1999/xlink" width="800" height="640" viewBox="0 0 3200 2560">
<defs>
  <clipPath id="clip240">
    <rect x="0" y="0" width="3200" height="2560"/>
  </clipPath>
</defs>
<path clip-path="url(#clip240)" d="M0 2560 L3200 2560 L3200 0 L0 0  Z" fill="#ffffff" fill-rule="evenodd" fill-opacity="1"/>
<defs>
  <clipPath id="clip241">
    <rect x="640" y="0" width="2241" height="2241"/>
  </clipPath>
</defs>
<path clip-path="url(#clip240)" d="M149.853 1917.01 L3152.76 1917.01 L3152.76 47.2441 L149.853 47.2441  Z" fill="#ffffff" fill-rule="evenodd" fill-opacity="1"/>
<defs>
  <clipPath id="clip242">
    <rect x="149" y="47" width="3004" height="1871"/>
  </clipPath>
</defs>
<polyline clip-path="url(#clip242)" style="stroke:#000000; stroke-linecap:round; stroke-linejoin:round; stroke-width:2; stroke-opacity:0.1; fill:none" points="1214.36,1917.01 1214.36,47.2441 "/>
<polyline clip-path="url(#clip242)" style="stroke:#000000; stroke-linecap:round; stroke-linejoin:round; stroke-width:2; stroke-opacity:0.1; fill:none" points="2817.71,1917.01 2817.71,47.2441 "/>
<polyline clip-path="url(#clip240)" style="stroke:#000000; stroke-linecap:round; stroke-linejoin:round; stroke-width:4; stroke-opacity:1; fill:none" points="149.853,1917.01 3152.76,1917.01 "/>
<polyline clip-path="url(#clip240)" style="stroke:#000000; stroke-linecap:round; stroke-linejoin:round; stroke-width:4; stroke-opacity:1; fill:none" points="1214.36,1917.01 1214.36,1901.62 "/>
<polyline clip-path="url(#clip240)" style="stroke:#000000; stroke-linecap:round; stroke-linejoin:round; stroke-width:4; stroke-opacity:1; fill:none" points="2817.71,1917.01 2817.71,1901.62 "/>
<path clip-path="url(#clip240)" d="M1180.14 1997.54 L1187.77 1997.54 L1187.77 1971.17 L1179.46 1972.84 L1179.46 1968.58 L1187.73 1966.91 L1192.4 1966.91 L1192.4 1997.54 L1200.04 1997.54 L1200.04 2001.47 L1180.14 2001.47 L1180.14 1997.54 Z" fill="#000000" fill-rule="evenodd" fill-opacity="1" /><path clip-path="url(#clip240)" d="M1219.49 1969.99 Q1215.88 1969.99 1214.05 1973.56 Q1212.24 1977.1 1212.24 1984.23 Q1212.24 1991.33 1214.05 1994.9 Q1215.88 1998.44 1219.49 1998.44 Q1223.12 1998.44 1224.93 1994.9 Q1226.76 1991.33 1226.76 1984.23 Q1226.76 1977.1 1224.93 1973.56 Q1223.12 1969.99 1219.49 1969.99 M1219.49 1966.29 Q1225.3 1966.29 1228.35 1970.89 Q1231.43 1975.48 1231.43 1984.23 Q1231.43 1992.95 1228.35 1997.56 Q1225.3 2002.14 1219.49 2002.14 Q1213.68 2002.14 1210.6 1997.56 Q1207.54 1992.95 1207.54 1984.23 Q1207.54 1975.48 1210.6 1970.89 Q1213.68 1966.29 1219.49 1966.29 Z" fill="#000000" fill-rule="evenodd" fill-opacity="1" /><path clip-path="url(#clip240)" d="M1236 1970.87 L1249.26 1970.87 L1249.26 1974.06 L1231.43 1974.06 L1231.43 1970.87 Q1233.59 1968.63 1237.32 1964.87 Q1241.06 1961.09 1242.02 1959.99 Q1243.85 1957.94 1244.56 1956.53 Q1245.29 1955.1 1245.29 1953.73 Q1245.29 1951.49 1243.71 1950.08 Q1242.15 1948.67 1239.63 1948.67 Q1237.85 1948.67 1235.85 1949.29 Q1233.88 1949.91 1231.62 1951.17 L1231.62 1947.34 Q1233.91 1946.42 1235.91 1945.95 Q1237.9 1945.47 1239.56 1945.47 Q1243.92 1945.47 1246.52 1947.66 Q1249.11 1949.84 1249.11 1953.49 Q1249.11 1955.22 1248.45 1956.78 Q1247.81 1958.32 1246.1 1960.43 Q1245.63 1960.97 1243.11 1963.59 Q1240.59 1966.18 1236 1970.87 Z" fill="#000000" fill-rule="evenodd" fill-opacity="1" /><path clip-path="url(#clip240)" d="M2782.16 1997.54 L2789.8 1997.54 L2789.8 1971.17 L2781.49 1972.84 L2781.49 1968.58 L2789.76 1966.91 L2794.43 1966.91 L2794.43 1997.54 L2802.07 1997.54 L2802.07 2001.47 L2782.16 2001.47 L2782.16 1997.54 Z" fill="#000000" fill-rule="evenodd" fill-opacity="1" /><path clip-path="url(#clip240)" d="M2821.52 1969.99 Q2817.9 1969.99 2816.08 1973.56 Q2814.27 1977.1 2814.27 1984.23 Q2814.27 1991.33 2816.08 1994.9 Q2817.9 1998.44 2821.52 1998.44 Q2825.15 1998.44 2826.96 1994.9 Q2828.78 1991.33 2828.78 1984.23 Q2828.78 1977.1 2826.96 1973.56 Q2825.15 1969.99 2821.52 1969.99 M2821.52 1966.29 Q2827.33 1966.29 2830.38 1970.89 Q2833.46 1975.48 2833.46 1984.23 Q2833.46 1992.95 2830.38 1997.56 Q2827.33 2002.14 2821.52 2002.14 Q2815.71 2002.14 2812.63 1997.56 Q2809.57 1992.95 2809.57 1984.23 Q2809.57 1975.48 2812.63 1970.89 Q2815.71 1966.29 2821.52 1966.29 Z" fill="#000000" fill-rule="evenodd" fill-opacity="1" /><path clip-path="url(#clip240)" d="M2846.14 1949.29 L2836.54 1964.28 L2846.14 1964.28 L2846.14 1949.29 M2845.14 1945.98 L2849.92 1945.98 L2849.92 1964.28 L2853.92 1964.28 L2853.92 1967.44 L2849.92 1967.44 L2849.92 1974.06 L2846.14 1974.06 L2846.14 1967.44 L2833.46 1967.44 L2833.46 1963.77 L2845.14 1945.98 Z" fill="#000000" fill-rule="evenodd" fill-opacity="1" /><path clip-path="url(#clip240)" d="M1586.45 2070.79 L1586.45 2092.3 L1580.6 2092.3 L1580.6 2070.98 Q1580.6 2065.92 1578.62 2063.4 Q1576.65 2060.89 1572.7 2060.89 Q1567.96 2060.89 1565.22 2063.91 Q1562.49 2066.93 1562.49 2072.15 L1562.49 2092.3 L1556.6 2092.3 L1556.6 2056.65 L1562.49 2056.65 L1562.49 2062.19 Q1564.59 2058.98 1567.42 2057.39 Q1570.28 2055.79 1574.01 2055.79 Q1580.15 2055.79 1583.3 2059.61 Q1586.45 2063.4 1586.45 2070.79 Z" fill="#000000" fill-rule="evenodd" fill-opacity="1" /><path clip-path="url(#clip240)" d="M1642.69 2051.43 L1642.69 2069.16 L1660.42 2069.16 L1660.42 2074.57 L1642.69 2074.57 L1642.69 2092.3 L1637.35 2092.3 L1637.35 2074.57 L1619.62 2074.57 L1619.62 2069.16 L1637.35 2069.16 L1637.35 2051.43 L1642.69 2051.43 Z" fill="#000000" fill-rule="evenodd" fill-opacity="1" /><path clip-path="url(#clip240)" d="M1721.95 2063.5 Q1724.14 2059.55 1727.2 2057.67 Q1730.26 2055.79 1734.39 2055.79 Q1739.96 2055.79 1742.99 2059.71 Q1746.01 2063.59 1746.01 2070.79 L1746.01 2092.3 L1740.12 2092.3 L1740.12 2070.98 Q1740.12 2065.85 1738.31 2063.37 Q1736.49 2060.89 1732.77 2060.89 Q1728.22 2060.89 1725.58 2063.91 Q1722.93 2066.93 1722.93 2072.15 L1722.93 2092.3 L1717.05 2092.3 L1717.05 2070.98 Q1717.05 2065.82 1715.23 2063.37 Q1713.42 2060.89 1709.63 2060.89 Q1705.14 2060.89 1702.5 2063.94 Q1699.86 2066.97 1699.86 2072.15 L1699.86 2092.3 L1693.97 2092.3 L1693.97 2056.65 L1699.86 2056.65 L1699.86 2062.19 Q1701.86 2058.91 1704.66 2057.35 Q1707.47 2055.79 1711.32 2055.79 Q1715.2 2055.79 1717.91 2057.77 Q1720.64 2059.74 1721.95 2063.5 Z" fill="#000000" fill-rule="evenodd" fill-opacity="1" /><polyline clip-path="url(#clip242)" style="stroke:#000000; stroke-linecap:round; stroke-linejoin:round; stroke-width:2; stroke-opacity:0.1; fill:none" points="149.853,1616.53 3152.76,1616.53 "/>
<polyline clip-path="url(#clip242)" style="stroke:#000000; stroke-linecap:round; stroke-linejoin:round; stroke-width:2; stroke-opacity:0.1; fill:none" points="149.853,1307.06 3152.76,1307.06 "/>
<polyline clip-path="url(#clip242)" style="stroke:#000000; stroke-linecap:round; stroke-linejoin:round; stroke-width:2; stroke-opacity:0.1; fill:none" points="149.853,997.602 3152.76,997.602 "/>
<polyline clip-path="url(#clip242)" style="stroke:#000000; stroke-linecap:round; stroke-linejoin:round; stroke-width:2; stroke-opacity:0.1; fill:none" points="149.853,688.14 3152.76,688.14 "/>
<polyline clip-path="url(#clip242)" style="stroke:#000000; stroke-linecap:round; stroke-linejoin:round; stroke-width:2; stroke-opacity:0.1; fill:none" points="149.853,378.678 3152.76,378.678 "/>
<polyline clip-path="url(#clip242)" style="stroke:#000000; stroke-linecap:round; stroke-linejoin:round; stroke-width:2; stroke-opacity:0.1; fill:none" points="149.853,69.2159 3152.76,69.2159 "/>
<polyline clip-path="url(#clip240)" style="stroke:#000000; stroke-linecap:round; stroke-linejoin:round; stroke-width:4; stroke-opacity:1; fill:none" points="149.853,1917.01 149.853,47.2441 "/>
<polyline clip-path="url(#clip240)" style="stroke:#000000; stroke-linecap:round; stroke-linejoin:round; stroke-width:4; stroke-opacity:1; fill:none" points="149.853,1616.53 168.751,1616.53 "/>
<polyline clip-path="url(#clip240)" style="stroke:#000000; stroke-linecap:round; stroke-linejoin:round; stroke-width:4; stroke-opacity:1; fill:none" points="149.853,1307.06 168.751,1307.06 "/>
<polyline clip-path="url(#clip240)" style="stroke:#000000; stroke-linecap:round; stroke-linejoin:round; stroke-width:4; stroke-opacity:1; fill:none" points="149.853,997.602 168.751,997.602 "/>
<polyline clip-path="url(#clip240)" style="stroke:#000000; stroke-linecap:round; stroke-linejoin:round; stroke-width:4; stroke-opacity:1; fill:none" points="149.853,688.14 168.751,688.14 "/>
<polyline clip-path="url(#clip240)" style="stroke:#000000; stroke-linecap:round; stroke-linejoin:round; stroke-width:4; stroke-opacity:1; fill:none" points="149.853,378.678 168.751,378.678 "/>
<polyline clip-path="url(#clip240)" style="stroke:#000000; stroke-linecap:round; stroke-linejoin:round; stroke-width:4; stroke-opacity:1; fill:none" points="149.853,69.2159 168.751,69.2159 "/>
<path clip-path="url(#clip240)" d="M50.5569 1629.87 L58.1958 1629.87 L58.1958 1603.5 L49.8856 1605.17 L49.8856 1600.91 L58.1495 1599.25 L62.8254 1599.25 L62.8254 1629.87 L70.4642 1629.87 L70.4642 1633.81 L50.5569 1633.81 L50.5569 1629.87 Z" fill="#000000" fill-rule="evenodd" fill-opacity="1" /><path clip-path="url(#clip240)" d="M89.9086 1602.32 Q86.2975 1602.32 84.4688 1605.89 Q82.6632 1609.43 82.6632 1616.56 Q82.6632 1623.67 84.4688 1627.23 Q86.2975 1630.77 89.9086 1630.77 Q93.5428 1630.77 95.3483 1627.23 Q97.177 1623.67 97.177 1616.56 Q97.177 1609.43 95.3483 1605.89 Q93.5428 1602.32 89.9086 1602.32 M89.9086 1598.62 Q95.7187 1598.62 98.7743 1603.23 Q101.853 1607.81 101.853 1616.56 Q101.853 1625.29 98.7743 1629.89 Q95.7187 1634.48 89.9086 1634.48 Q84.0984 1634.48 81.0197 1629.89 Q77.9642 1625.29 77.9642 1616.56 Q77.9642 1607.81 81.0197 1603.23 Q84.0984 1598.62 89.9086 1598.62 Z" fill="#000000" fill-rule="evenodd" fill-opacity="1" /><path clip-path="url(#clip240)" d="M53.7745 1320.41 L70.0939 1320.41 L70.0939 1324.34 L48.1495 1324.34 L48.1495 1320.41 Q50.8115 1317.65 55.3949 1313.02 Q60.0013 1308.37 61.1819 1307.03 Q63.4272 1304.51 64.3068 1302.77 Q65.2096 1301.01 65.2096 1299.32 Q65.2096 1296.57 63.2652 1294.83 Q61.3439 1293.09 58.2421 1293.09 Q56.043 1293.09 53.5893 1293.86 Q51.1588 1294.62 48.381 1296.17 L48.381 1291.45 Q51.2051 1290.32 53.6588 1289.74 Q56.1124 1289.16 58.1495 1289.16 Q63.5198 1289.16 66.7142 1291.84 Q69.9087 1294.53 69.9087 1299.02 Q69.9087 1301.15 69.0985 1303.07 Q68.3115 1304.97 66.205 1307.56 Q65.6263 1308.23 62.5245 1311.45 Q59.4226 1314.64 53.7745 1320.41 Z" fill="#000000" fill-rule="evenodd" fill-opacity="1" /><path clip-path="url(#clip240)" d="M89.9086 1292.86 Q86.2975 1292.86 84.4688 1296.43 Q82.6632 1299.97 82.6632 1307.1 Q82.6632 1314.2 84.4688 1317.77 Q86.2975 1321.31 89.9086 1321.31 Q93.5428 1321.31 95.3483 1317.77 Q97.177 1314.2 97.177 1307.1 Q97.177 1299.97 95.3483 1296.43 Q93.5428 1292.86 89.9086 1292.86 M89.9086 1289.16 Q95.7187 1289.16 98.7743 1293.77 Q101.853 1298.35 101.853 1307.1 Q101.853 1315.83 98.7743 1320.43 Q95.7187 1325.01 89.9086 1325.01 Q84.0984 1325.01 81.0197 1320.43 Q77.9642 1315.83 77.9642 1307.1 Q77.9642 1298.35 81.0197 1293.77 Q84.0984 1289.16 89.9086 1289.16 Z" fill="#000000" fill-rule="evenodd" fill-opacity="1" /><path clip-path="url(#clip240)" d="M63.9133 996.248 Q67.2698 996.965 69.1448 999.234 Q71.0429 1001.5 71.0429 1004.84 Q71.0429 1009.95 67.5244 1012.75 Q64.0059 1015.55 57.5245 1015.55 Q55.3486 1015.55 53.0338 1015.11 Q50.7421 1014.7 48.2884 1013.84 L48.2884 1009.33 Q50.2328 1010.46 52.5477 1011.04 Q54.8625 1011.62 57.3856 1011.62 Q61.7837 1011.62 64.0754 1009.88 Q66.3902 1008.15 66.3902 1004.84 Q66.3902 1001.78 64.2374 1000.07 Q62.1078 998.331 58.2884 998.331 L54.2606 998.331 L54.2606 994.488 L58.4735 994.488 Q61.9226 994.488 63.7513 993.123 Q65.58 991.734 65.58 989.141 Q65.58 986.479 63.6819 985.067 Q61.8069 983.632 58.2884 983.632 Q56.3671 983.632 54.168 984.049 Q51.969 984.465 49.3301 985.345 L49.3301 981.178 Q51.9921 980.437 54.3069 980.067 Q56.6449 979.697 58.705 979.697 Q64.0291 979.697 67.1309 982.127 Q70.2327 984.535 70.2327 988.655 Q70.2327 991.525 68.5892 993.516 Q66.9457 995.484 63.9133 996.248 Z" fill="#000000" fill-rule="evenodd" fill-opacity="1" /><path clip-path="url(#clip240)" d="M89.9086 983.4 Q86.2975 983.4 84.4688 986.965 Q82.6632 990.507 82.6632 997.636 Q82.6632 1004.74 84.4688 1008.31 Q86.2975 1011.85 89.9086 1011.85 Q93.5428 1011.85 95.3483 1008.31 Q97.177 1004.74 97.177 997.636 Q97.177 990.507 95.3483 986.965 Q93.5428 983.4 89.9086 983.4 M89.9086 979.697 Q95.7187 979.697 98.7743 984.303 Q101.853 988.887 101.853 997.636 Q101.853 1006.36 98.7743 1010.97 Q95.7187 1015.55 89.9086 1015.55 Q84.0984 1015.55 81.0197 1010.97 Q77.9642 1006.36 77.9642 997.636 Q77.9642 988.887 81.0197 984.303 Q84.0984 979.697 89.9086 979.697 Z" fill="#000000" fill-rule="evenodd" fill-opacity="1" /><path clip-path="url(#clip240)" d="M62.5939 674.934 L50.7884 693.383 L62.5939 693.383 L62.5939 674.934 M61.367 670.86 L67.2466 670.86 L67.2466 693.383 L72.1772 693.383 L72.1772 697.272 L67.2466 697.272 L67.2466 705.42 L62.5939 705.42 L62.5939 697.272 L46.9921 697.272 L46.9921 692.758 L61.367 670.86 Z" fill="#000000" fill-rule="evenodd" fill-opacity="1" /><path clip-path="url(#clip240)" d="M89.9086 673.938 Q86.2975 673.938 84.4688 677.503 Q82.6632 681.045 82.6632 688.175 Q82.6632 695.281 84.4688 698.846 Q86.2975 702.387 89.9086 702.387 Q93.5428 702.387 95.3483 698.846 Q97.177 695.281 97.177 688.175 Q97.177 681.045 95.3483 677.503 Q93.5428 673.938 89.9086 673.938 M89.9086 670.235 Q95.7187 670.235 98.7743 674.841 Q101.853 679.425 101.853 688.175 Q101.853 696.901 98.7743 701.508 Q95.7187 706.091 89.9086 706.091 Q84.0984 706.091 81.0197 701.508 Q77.9642 696.901 77.9642 688.175 Q77.9642 679.425 81.0197 674.841 Q84.0984 670.235 89.9086 670.235 Z" fill="#000000" fill-rule="evenodd" fill-opacity="1" /><path clip-path="url(#clip240)" d="M49.793 361.398 L68.1494 361.398 L68.1494 365.333 L54.0754 365.333 L54.0754 373.805 Q55.0939 373.458 56.1124 373.296 Q57.131 373.111 58.1495 373.111 Q63.9365 373.111 67.3161 376.282 Q70.6957 379.453 70.6957 384.87 Q70.6957 390.449 67.2235 393.55 Q63.7513 396.629 57.4319 396.629 Q55.256 396.629 52.9875 396.259 Q50.7421 395.888 48.3347 395.148 L48.3347 390.449 Q50.418 391.583 52.6402 392.138 Q54.8625 392.694 57.3393 392.694 Q61.3439 392.694 63.6819 390.588 Q66.0198 388.481 66.0198 384.87 Q66.0198 381.259 63.6819 379.152 Q61.3439 377.046 57.3393 377.046 Q55.4643 377.046 53.5893 377.463 Q51.7375 377.879 49.793 378.759 L49.793 361.398 Z" fill="#000000" fill-rule="evenodd" fill-opacity="1" /><path clip-path="url(#clip240)" d="M89.9086 364.477 Q86.2975 364.477 84.4688 368.041 Q82.6632 371.583 82.6632 378.713 Q82.6632 385.819 84.4688 389.384 Q86.2975 392.925 89.9086 392.925 Q93.5428 392.925 95.3483 389.384 Q97.177 385.819 97.177 378.713 Q97.177 371.583 95.3483 368.041 Q93.5428 364.477 89.9086 364.477 M89.9086 360.773 Q95.7187 360.773 98.7743 365.379 Q101.853 369.963 101.853 378.713 Q101.853 387.439 98.7743 392.046 Q95.7187 396.629 89.9086 396.629 Q84.0984 396.629 81.0197 392.046 Q77.9642 387.439 77.9642 378.713 Q77.9642 369.963 81.0197 365.379 Q84.0984 360.773 89.9086 360.773 Z" fill="#000000" fill-rule="evenodd" fill-opacity="1" /><path clip-path="url(#clip240)" d="M60.3254 67.3525 Q57.1773 67.3525 55.3254 69.5052 Q53.4967 71.658 53.4967 75.408 Q53.4967 79.1348 55.3254 81.3107 Q57.1773 83.4635 60.3254 83.4635 Q63.4735 83.4635 65.3022 81.3107 Q67.1541 79.1348 67.1541 75.408 Q67.1541 71.658 65.3022 69.5052 Q63.4735 67.3525 60.3254 67.3525 M69.6077 52.6998 L69.6077 56.959 Q67.8485 56.1257 66.0429 55.6859 Q64.2606 55.2461 62.5013 55.2461 Q57.8717 55.2461 55.418 58.371 Q52.9875 61.496 52.6402 67.8154 Q54.006 65.8016 56.0662 64.7368 Q58.1263 63.6488 60.6032 63.6488 Q65.8115 63.6488 68.8207 66.8201 Q71.8531 69.9682 71.8531 75.408 Q71.8531 80.732 68.705 83.9496 Q65.5568 87.1672 60.3254 87.1672 Q54.33 87.1672 51.1588 82.5839 Q47.9875 77.9774 47.9875 69.2506 Q47.9875 61.0562 51.8764 56.1951 Q55.7652 51.3109 62.3161 51.3109 Q64.0754 51.3109 65.8578 51.6581 Q67.6633 52.0053 69.6077 52.6998 Z" fill="#000000" fill-rule="evenodd" fill-opacity="1" /><path clip-path="url(#clip240)" d="M89.9086 55.0146 Q86.2975 55.0146 84.4688 58.5794 Q82.6632 62.121 82.6632 69.2506 Q82.6632 76.3571 84.4688 79.9219 Q86.2975 83.4635 89.9086 83.4635 Q93.5428 83.4635 95.3483 79.9219 Q97.177 76.3571 97.177 69.2506 Q97.177 62.121 95.3483 58.5794 Q93.5428 55.0146 89.9086 55.0146 M89.9086 51.3109 Q95.7187 51.3109 98.7743 55.9174 Q101.853 60.5007 101.853 69.2506 Q101.853 77.9774 98.7743 82.5839 Q95.7187 87.1672 89.9086 87.1672 Q84.0984 87.1672 81.0197 82.5839 Q77.9642 77.9774 77.9642 69.2506 Q77.9642 60.5007 81.0197 55.9174 Q84.0984 51.3109 89.9086 51.3109 Z" fill="#000000" fill-rule="evenodd" fill-opacity="1" /><polyline clip-path="url(#clip242)" style="stroke:#009af9; stroke-linecap:round; stroke-linejoin:round; stroke-width:4; stroke-opacity:1; fill:none" points="234.841,1864.1 376.008,1864.1 504.036,1802.2 817.656,1802.2 1432.29,1771.26 1556.29,1771.26 1752.42,1771.26 2050.8,1740.31 2160.21,1740.31 2335.61,1709.36 2458.31,1678.42 2648.4,1678.42 2665.63,1678.42 3067.77,1585.58 "/>
<circle clip-path="url(#clip242)" cx="234.841" cy="1864.1" r="14.4" fill="#009af9" fill-rule="evenodd" fill-opacity="1" stroke="#000000" stroke-opacity="1" stroke-width="5.12"/>
<circle clip-path="url(#clip242)" cx="376.008" cy="1864.1" r="14.4" fill="#009af9" fill-rule="evenodd" fill-opacity="1" stroke="#000000" stroke-opacity="1" stroke-width="5.12"/>
<circle clip-path="url(#clip242)" cx="504.036" cy="1802.2" r="14.4" fill="#009af9" fill-rule="evenodd" fill-opacity="1" stroke="#000000" stroke-opacity="1" stroke-width="5.12"/>
<circle clip-path="url(#clip242)" cx="817.656" cy="1802.2" r="14.4" fill="#009af9" fill-rule="evenodd" fill-opacity="1" stroke="#000000" stroke-opacity="1" stroke-width="5.12"/>
<circle clip-path="url(#clip242)" cx="1432.29" cy="1771.26" r="14.4" fill="#009af9" fill-rule="evenodd" fill-opacity="1" stroke="#000000" stroke-opacity="1" stroke-width="5.12"/>
<circle clip-path="url(#clip242)" cx="1556.29" cy="1771.26" r="14.4" fill="#009af9" fill-rule="evenodd" fill-opacity="1" stroke="#000000" stroke-opacity="1" stroke-width="5.12"/>
<circle clip-path="url(#clip242)" cx="1752.42" cy="1771.26" r="14.4" fill="#009af9" fill-rule="evenodd" fill-opacity="1" stroke="#000000" stroke-opacity="1" stroke-width="5.12"/>
<circle clip-path="url(#clip242)" cx="2050.8" cy="1740.31" r="14.4" fill="#009af9" fill-rule="evenodd" fill-opacity="1" stroke="#000000" stroke-opacity="1" stroke-width="5.12"/>
<circle clip-path="url(#clip242)" cx="2160.21" cy="1740.31" r="14.4" fill="#009af9" fill-rule="evenodd" fill-opacity="1" stroke="#000000" stroke-opacity="1" stroke-width="5.12"/>
<circle clip-path="url(#clip242)" cx="2335.61" cy="1709.36" r="14.4" fill="#009af9" fill-rule="evenodd" fill-opacity="1" stroke="#000000" stroke-opacity="1" stroke-width="5.12"/>
<circle clip-path="url(#clip242)" cx="2458.31" cy="1678.42" r="14.4" fill="#009af9" fill-rule="evenodd" fill-opacity="1" stroke="#000000" stroke-opacity="1" stroke-width="5.12"/>
<circle clip-path="url(#clip242)" cx="2648.4" cy="1678.42" r="14.4" fill="#009af9" fill-rule="evenodd" fill-opacity="1" stroke="#000000" stroke-opacity="1" stroke-width="5.12"/>
<circle clip-path="url(#clip242)" cx="2665.63" cy="1678.42" r="14.4" fill="#009af9" fill-rule="evenodd" fill-opacity="1" stroke="#000000" stroke-opacity="1" stroke-width="5.12"/>
<circle clip-path="url(#clip242)" cx="3067.77" cy="1585.58" r="14.4" fill="#009af9" fill-rule="evenodd" fill-opacity="1" stroke="#000000" stroke-opacity="1" stroke-width="5.12"/>
<polyline clip-path="url(#clip242)" style="stroke:#e26f46; stroke-linecap:round; stroke-linejoin:round; stroke-width:4; stroke-opacity:1; fill:none" points="234.841,1802.2 376.008,1740.31 504.036,1152.33 817.656,1121.39 1432.29,935.709 1556.29,997.602 1752.42,873.817 2050.8,842.871 2160.21,750.032 2335.61,688.14 2458.31,564.355 2648.4,780.978 2665.63,595.301 3067.77,440.57 "/>
<circle clip-path="url(#clip242)" cx="234.841" cy="1802.2" r="14.4" fill="#e26f46" fill-rule="evenodd" fill-opacity="1" stroke="#000000" stroke-opacity="1" stroke-width="5.12"/>
<circle clip-path="url(#clip242)" cx="376.008" cy="1740.31" r="14.4" fill="#e26f46" fill-rule="evenodd" fill-opacity="1" stroke="#000000" stroke-opacity="1" stroke-width="5.12"/>
<circle clip-path="url(#clip242)" cx="504.036" cy="1152.33" r="14.4" fill="#e26f46" fill-rule="evenodd" fill-opacity="1" stroke="#000000" stroke-opacity="1" stroke-width="5.12"/>
<circle clip-path="url(#clip242)" cx="817.656" cy="1121.39" r="14.4" fill="#e26f46" fill-rule="evenodd" fill-opacity="1" stroke="#000000" stroke-opacity="1" stroke-width="5.12"/>
<circle clip-path="url(#clip242)" cx="1432.29" cy="935.709" r="14.4" fill="#e26f46" fill-rule="evenodd" fill-opacity="1" stroke="#000000" stroke-opacity="1" stroke-width="5.12"/>
<circle clip-path="url(#clip242)" cx="1556.29" cy="997.602" r="14.4" fill="#e26f46" fill-rule="evenodd" fill-opacity="1" stroke="#000000" stroke-opacity="1" stroke-width="5.12"/>
<circle clip-path="url(#clip242)" cx="1752.42" cy="873.817" r="14.4" fill="#e26f46" fill-rule="evenodd" fill-opacity="1" stroke="#000000" stroke-opacity="1" stroke-width="5.12"/>
<circle clip-path="url(#clip242)" cx="2050.8" cy="842.871" r="14.4" fill="#e26f46" fill-rule="evenodd" fill-opacity="1" stroke="#000000" stroke-opacity="1" stroke-width="5.12"/>
<circle clip-path="url(#clip242)" cx="2160.21" cy="750.032" r="14.4" fill="#e26f46" fill-rule="evenodd" fill-opacity="1" stroke="#000000" stroke-opacity="1" stroke-width="5.12"/>
<circle clip-path="url(#clip242)" cx="2335.61" cy="688.14" r="14.4" fill="#e26f46" fill-rule="evenodd" fill-opacity="1" stroke="#000000" stroke-opacity="1" stroke-width="5.12"/>
<circle clip-path="url(#clip242)" cx="2458.31" cy="564.355" r="14.4" fill="#e26f46" fill-rule="evenodd" fill-opacity="1" stroke="#000000" stroke-opacity="1" stroke-width="5.12"/>
<circle clip-path="url(#clip242)" cx="2648.4" cy="780.978" r="14.4" fill="#e26f46" fill-rule="evenodd" fill-opacity="1" stroke="#000000" stroke-opacity="1" stroke-width="5.12"/>
<circle clip-path="url(#clip242)" cx="2665.63" cy="595.301" r="14.4" fill="#e26f46" fill-rule="evenodd" fill-opacity="1" stroke="#000000" stroke-opacity="1" stroke-width="5.12"/>
<circle clip-path="url(#clip242)" cx="3067.77" cy="440.57" r="14.4" fill="#e26f46" fill-rule="evenodd" fill-opacity="1" stroke="#000000" stroke-opacity="1" stroke-width="5.12"/>
<polyline clip-path="url(#clip242)" style="stroke:#3da44d; stroke-linecap:round; stroke-linejoin:round; stroke-width:4; stroke-opacity:1; fill:none" points="234.841,1740.31 376.008,1678.42 504.036,1028.55 817.656,997.602 1432.29,780.978 1556.29,842.871 1752.42,719.086 2050.8,657.194 2160.21,564.355 2335.61,471.516 2458.31,316.785 2648.4,533.409 2665.63,347.732 3067.77,100.162 "/>
<circle clip-path="url(#clip242)" cx="234.841" cy="1740.31" r="14.4" fill="#3da44d" fill-rule="evenodd" fill-opacity="1" stroke="#000000" stroke-opacity="1" stroke-width="5.12"/>
<circle clip-path="url(#clip242)" cx="376.008" cy="1678.42" r="14.4" fill="#3da44d" fill-rule="evenodd" fill-opacity="1" stroke="#000000" stroke-opacity="1" stroke-width="5.12"/>
<circle clip-path="url(#clip242)" cx="504.036" cy="1028.55" r="14.4" fill="#3da44d" fill-rule="evenodd" fill-opacity="1" stroke="#000000" stroke-opacity="1" stroke-width="5.12"/>
<circle clip-path="url(#clip242)" cx="817.656" cy="997.602" r="14.4" fill="#3da44d" fill-rule="evenodd" fill-opacity="1" stroke="#000000" stroke-opacity="1" stroke-width="5.12"/>
<circle clip-path="url(#clip242)" cx="1432.29" cy="780.978" r="14.4" fill="#3da44d" fill-rule="evenodd" fill-opacity="1" stroke="#000000" stroke-opacity="1" stroke-width="5.12"/>
<circle clip-path="url(#clip242)" cx="1556.29" cy="842.871" r="14.4" fill="#3da44d" fill-rule="evenodd" fill-opacity="1" stroke="#000000" stroke-opacity="1" stroke-width="5.12"/>
<circle clip-path="url(#clip242)" cx="1752.42" cy="719.086" r="14.4" fill="#3da44d" fill-rule="evenodd" fill-opacity="1" stroke="#000000" stroke-opacity="1" stroke-width="5.12"/>
<circle clip-path="url(#clip242)" cx="2050.8" cy="657.194" r="14.4" fill="#3da44d" fill-rule="evenodd" fill-opacity="1" stroke="#000000" stroke-opacity="1" stroke-width="5.12"/>
<circle clip-path="url(#clip242)" cx="2160.21" cy="564.355" r="14.4" fill="#3da44d" fill-rule="evenodd" fill-opacity="1" stroke="#000000" stroke-opacity="1" stroke-width="5.12"/>
<circle clip-path="url(#clip242)" cx="2335.61" cy="471.516" r="14.4" fill="#3da44d" fill-rule="evenodd" fill-opacity="1" stroke="#000000" stroke-opacity="1" stroke-width="5.12"/>
<circle clip-path="url(#clip242)" cx="2458.31" cy="316.785" r="14.4" fill="#3da44d" fill-rule="evenodd" fill-opacity="1" stroke="#000000" stroke-opacity="1" stroke-width="5.12"/>
<circle clip-path="url(#clip242)" cx="2648.4" cy="533.409" r="14.4" fill="#3da44d" fill-rule="evenodd" fill-opacity="1" stroke="#000000" stroke-opacity="1" stroke-width="5.12"/>
<circle clip-path="url(#clip242)" cx="2665.63" cy="347.732" r="14.4" fill="#3da44d" fill-rule="evenodd" fill-opacity="1" stroke="#000000" stroke-opacity="1" stroke-width="5.12"/>
<circle clip-path="url(#clip242)" cx="3067.77" cy="100.162" r="14.4" fill="#3da44d" fill-rule="evenodd" fill-opacity="1" stroke="#000000" stroke-opacity="1" stroke-width="5.12"/>
<path clip-path="url(#clip240)" d="M1330.37 2342.42 L1972.24 2342.42 L1972.24 2135.06 L1330.37 2135.06  Z" fill="#ffffff" fill-rule="evenodd" fill-opacity="1"/>
<polyline clip-path="url(#clip240)" style="stroke:#000000; stroke-linecap:round; stroke-linejoin:round; stroke-width:4; stroke-opacity:1; fill:none" points="1330.37,2342.42 1972.24,2342.42 1972.24,2135.06 1330.37,2135.06 1330.37,2342.42 "/>
<polyline clip-path="url(#clip240)" style="stroke:#009af9; stroke-linecap:round; stroke-linejoin:round; stroke-width:4; stroke-opacity:1; fill:none" points="1363.74,2186.9 1563.93,2186.9 "/>
<path clip-path="url(#clip240)" d="M1601.58 2200.3 L1601.58 2214.05 L1597.3 2214.05 L1597.3 2178.26 L1601.58 2178.26 L1601.58 2182.19 Q1602.92 2179.88 1604.96 2178.77 Q1607.02 2177.63 1609.87 2177.63 Q1614.59 2177.63 1617.53 2181.38 Q1620.49 2185.13 1620.49 2191.24 Q1620.49 2197.36 1617.53 2201.11 Q1614.59 2204.86 1609.87 2204.86 Q1607.02 2204.86 1604.96 2203.74 Q1602.92 2202.61 1601.58 2200.3 M1616.07 2191.24 Q1616.07 2186.55 1614.13 2183.88 Q1612.21 2181.2 1608.83 2181.2 Q1605.45 2181.2 1603.5 2183.88 Q1601.58 2186.55 1601.58 2191.24 Q1601.58 2195.94 1603.5 2198.63 Q1605.45 2201.29 1608.83 2201.29 Q1612.21 2201.29 1614.13 2198.63 Q1616.07 2195.94 1616.07 2191.24 Z" fill="#000000" fill-rule="evenodd" fill-opacity="1" /><path clip-path="url(#clip240)" d="M1649.1 2188.54 L1649.1 2204.18 L1644.84 2204.18 L1644.84 2188.67 Q1644.84 2184.99 1643.41 2183.17 Q1641.97 2181.34 1639.1 2181.34 Q1635.65 2181.34 1633.66 2183.54 Q1631.67 2185.74 1631.67 2189.53 L1631.67 2204.18 L1627.39 2204.18 L1627.39 2168.17 L1631.67 2168.17 L1631.67 2182.29 Q1633.2 2179.95 1635.26 2178.79 Q1637.34 2177.63 1640.05 2177.63 Q1644.52 2177.63 1646.81 2180.41 Q1649.1 2183.17 1649.1 2188.54 Z" fill="#000000" fill-rule="evenodd" fill-opacity="1" /><path clip-path="url(#clip240)" d="M1669.38 2191.15 Q1664.22 2191.15 1662.23 2192.33 Q1660.24 2193.51 1660.24 2196.36 Q1660.24 2198.63 1661.72 2199.97 Q1663.22 2201.29 1665.79 2201.29 Q1669.33 2201.29 1671.46 2198.79 Q1673.62 2196.27 1673.62 2192.1 L1673.62 2191.15 L1669.38 2191.15 M1677.88 2189.39 L1677.88 2204.18 L1673.62 2204.18 L1673.62 2200.25 Q1672.16 2202.61 1669.98 2203.74 Q1667.81 2204.86 1664.66 2204.86 Q1660.68 2204.86 1658.32 2202.63 Q1655.98 2200.39 1655.98 2196.64 Q1655.98 2192.26 1658.89 2190.04 Q1661.83 2187.82 1667.64 2187.82 L1673.62 2187.82 L1673.62 2187.4 Q1673.62 2184.46 1671.67 2182.86 Q1669.75 2181.24 1666.26 2181.24 Q1664.03 2181.24 1661.93 2181.78 Q1659.82 2182.31 1657.88 2183.37 L1657.88 2179.44 Q1660.21 2178.54 1662.41 2178.1 Q1664.61 2177.63 1666.7 2177.63 Q1672.32 2177.63 1675.1 2180.55 Q1677.88 2183.47 1677.88 2189.39 Z" fill="#000000" fill-rule="evenodd" fill-opacity="1" /><path clip-path="url(#clip240)" d="M1703.18 2179.02 L1703.18 2183.05 Q1701.37 2182.12 1699.43 2181.66 Q1697.48 2181.2 1695.4 2181.2 Q1692.23 2181.2 1690.63 2182.17 Q1689.06 2183.14 1689.06 2185.09 Q1689.06 2186.57 1690.19 2187.42 Q1691.33 2188.26 1694.75 2189.02 L1696.21 2189.35 Q1700.75 2190.32 1702.64 2192.1 Q1704.57 2193.86 1704.57 2197.03 Q1704.57 2200.64 1701.7 2202.75 Q1698.85 2204.86 1693.85 2204.86 Q1691.76 2204.86 1689.5 2204.44 Q1687.25 2204.05 1684.75 2203.23 L1684.75 2198.84 Q1687.11 2200.06 1689.4 2200.69 Q1691.7 2201.29 1693.94 2201.29 Q1696.95 2201.29 1698.57 2200.27 Q1700.19 2199.23 1700.19 2197.36 Q1700.19 2195.62 1699.01 2194.69 Q1697.85 2193.77 1693.89 2192.91 L1692.41 2192.56 Q1688.45 2191.73 1686.7 2190.02 Q1684.94 2188.28 1684.94 2185.27 Q1684.94 2181.61 1687.53 2179.62 Q1690.12 2177.63 1694.89 2177.63 Q1697.25 2177.63 1699.33 2177.98 Q1701.42 2178.33 1703.18 2179.02 Z" fill="#000000" fill-rule="evenodd" fill-opacity="1" /><path clip-path="url(#clip240)" d="M1733.52 2190.16 L1733.52 2192.24 L1713.94 2192.24 Q1714.22 2196.64 1716.58 2198.95 Q1718.96 2201.24 1723.2 2201.24 Q1725.65 2201.24 1727.95 2200.64 Q1730.26 2200.04 1732.53 2198.84 L1732.53 2202.86 Q1730.24 2203.84 1727.83 2204.35 Q1725.42 2204.86 1722.95 2204.86 Q1716.74 2204.86 1713.11 2201.24 Q1709.5 2197.63 1709.5 2191.48 Q1709.5 2185.11 1712.92 2181.38 Q1716.37 2177.63 1722.2 2177.63 Q1727.44 2177.63 1730.47 2181.01 Q1733.52 2184.37 1733.52 2190.16 M1729.26 2188.91 Q1729.22 2185.41 1727.3 2183.33 Q1725.4 2181.24 1722.25 2181.24 Q1718.69 2181.24 1716.53 2183.26 Q1714.4 2185.27 1714.08 2188.93 L1729.26 2188.91 Z" fill="#000000" fill-rule="evenodd" fill-opacity="1" /><path clip-path="url(#clip240)" d="M1757 2200.25 L1764.63 2200.25 L1764.63 2173.88 L1756.32 2175.55 L1756.32 2171.29 L1764.59 2169.62 L1769.26 2169.62 L1769.26 2200.25 L1776.9 2200.25 L1776.9 2204.18 L1757 2204.18 L1757 2200.25 Z" fill="#000000" fill-rule="evenodd" fill-opacity="1" /><path clip-path="url(#clip240)" d="M1820.58 2183.33 L1813.85 2183.33 L1811.9 2191.06 L1818.69 2191.06 L1820.58 2183.33 M1817.11 2170.16 L1814.7 2179.76 L1821.46 2179.76 L1823.89 2170.16 L1827.6 2170.16 L1825.21 2179.76 L1832.44 2179.76 L1832.44 2183.33 L1824.31 2183.33 L1822.41 2191.06 L1829.77 2191.06 L1829.77 2194.6 L1821.51 2194.6 L1819.1 2204.18 L1815.4 2204.18 L1817.78 2194.6 L1811 2194.6 L1808.62 2204.18 L1804.89 2204.18 L1807.3 2194.6 L1800.01 2194.6 L1800.01 2191.06 L1808.15 2191.06 L1810.1 2183.33 L1802.64 2183.33 L1802.64 2179.76 L1811 2179.76 L1813.36 2170.16 L1817.11 2170.16 Z" fill="#000000" fill-rule="evenodd" fill-opacity="1" /><path clip-path="url(#clip240)" d="M1840.54 2178.26 L1844.8 2178.26 L1844.8 2204.18 L1840.54 2204.18 L1840.54 2178.26 M1840.54 2168.17 L1844.8 2168.17 L1844.8 2173.56 L1840.54 2173.56 L1840.54 2168.17 Z" fill="#000000" fill-rule="evenodd" fill-opacity="1" /><path clip-path="url(#clip240)" d="M1857.92 2170.9 L1857.92 2178.26 L1866.69 2178.26 L1866.69 2181.57 L1857.92 2181.57 L1857.92 2195.64 Q1857.92 2198.81 1858.78 2199.72 Q1859.66 2200.62 1862.32 2200.62 L1866.69 2200.62 L1866.69 2204.18 L1862.32 2204.18 Q1857.39 2204.18 1855.51 2202.36 Q1853.64 2200.5 1853.64 2195.64 L1853.64 2181.57 L1850.51 2181.57 L1850.51 2178.26 L1853.64 2178.26 L1853.64 2170.9 L1857.92 2170.9 Z" fill="#000000" fill-rule="evenodd" fill-opacity="1" /><path clip-path="url(#clip240)" d="M1894.47 2190.16 L1894.47 2192.24 L1874.89 2192.24 Q1875.17 2196.64 1877.53 2198.95 Q1879.91 2201.24 1884.15 2201.24 Q1886.6 2201.24 1888.89 2200.64 Q1891.21 2200.04 1893.48 2198.84 L1893.48 2202.86 Q1891.19 2203.84 1888.78 2204.35 Q1886.37 2204.86 1883.89 2204.86 Q1877.69 2204.86 1874.06 2201.24 Q1870.44 2197.63 1870.44 2191.48 Q1870.44 2185.11 1873.87 2181.38 Q1877.32 2177.63 1883.15 2177.63 Q1888.38 2177.63 1891.42 2181.01 Q1894.47 2184.37 1894.47 2190.16 M1890.21 2188.91 Q1890.17 2185.41 1888.25 2183.33 Q1886.35 2181.24 1883.2 2181.24 Q1879.63 2181.24 1877.48 2183.26 Q1875.35 2185.27 1875.03 2188.93 L1890.21 2188.91 Z" fill="#000000" fill-rule="evenodd" fill-opacity="1" /><path clip-path="url(#clip240)" d="M1916.49 2182.24 Q1915.77 2181.82 1914.91 2181.64 Q1914.08 2181.43 1913.06 2181.43 Q1909.45 2181.43 1907.5 2183.79 Q1905.58 2186.13 1905.58 2190.53 L1905.58 2204.18 L1901.3 2204.18 L1901.3 2178.26 L1905.58 2178.26 L1905.58 2182.29 Q1906.93 2179.92 1909.08 2178.79 Q1911.23 2177.63 1914.31 2177.63 Q1914.75 2177.63 1915.28 2177.7 Q1915.81 2177.75 1916.46 2177.86 L1916.49 2182.24 Z" fill="#000000" fill-rule="evenodd" fill-opacity="1" /><path clip-path="url(#clip240)" d="M1937.48 2179.02 L1937.48 2183.05 Q1935.68 2182.12 1933.73 2181.66 Q1931.79 2181.2 1929.7 2181.2 Q1926.53 2181.2 1924.93 2182.17 Q1923.36 2183.14 1923.36 2185.09 Q1923.36 2186.57 1924.5 2187.42 Q1925.63 2188.26 1929.06 2189.02 L1930.51 2189.35 Q1935.05 2190.32 1936.95 2192.1 Q1938.87 2193.86 1938.87 2197.03 Q1938.87 2200.64 1936 2202.75 Q1933.15 2204.86 1928.15 2204.86 Q1926.07 2204.86 1923.8 2204.44 Q1921.56 2204.05 1919.06 2203.23 L1919.06 2198.84 Q1921.42 2200.06 1923.71 2200.69 Q1926 2201.29 1928.25 2201.29 Q1931.25 2201.29 1932.87 2200.27 Q1934.5 2199.23 1934.5 2197.36 Q1934.5 2195.62 1933.31 2194.69 Q1932.16 2193.77 1928.2 2192.91 L1926.72 2192.56 Q1922.76 2191.73 1921 2190.02 Q1919.24 2188.28 1919.24 2185.27 Q1919.24 2181.61 1921.83 2179.62 Q1924.43 2177.63 1929.19 2177.63 Q1931.56 2177.63 1933.64 2177.98 Q1935.72 2178.33 1937.48 2179.02 Z" fill="#000000" fill-rule="evenodd" fill-opacity="1" /><polyline clip-path="url(#clip240)" style="stroke:#e26f46; stroke-linecap:round; stroke-linejoin:round; stroke-width:4; stroke-opacity:1; fill:none" points="1363.74,2238.74 1563.93,2238.74 "/>
<path clip-path="url(#clip240)" d="M1601.58 2252.14 L1601.58 2265.89 L1597.3 2265.89 L1597.3 2230.1 L1601.58 2230.1 L1601.58 2234.03 Q1602.92 2231.72 1604.96 2230.61 Q1607.02 2229.47 1609.87 2229.47 Q1614.59 2229.47 1617.53 2233.22 Q1620.49 2236.97 1620.49 2243.08 Q1620.49 2249.2 1617.53 2252.95 Q1614.59 2256.7 1609.87 2256.7 Q1607.02 2256.7 1604.96 2255.58 Q1602.92 2254.45 1601.58 2252.14 M1616.07 2243.08 Q1616.07 2238.39 1614.13 2235.72 Q1612.21 2233.04 1608.83 2233.04 Q1605.45 2233.04 1603.5 2235.72 Q1601.58 2238.39 1601.58 2243.08 Q1601.58 2247.78 1603.5 2250.47 Q1605.45 2253.13 1608.83 2253.13 Q1612.21 2253.13 1614.13 2250.47 Q1616.07 2247.78 1616.07 2243.08 Z" fill="#000000" fill-rule="evenodd" fill-opacity="1" /><path clip-path="url(#clip240)" d="M1649.1 2240.38 L1649.1 2256.02 L1644.84 2256.02 L1644.84 2240.51 Q1644.84 2236.83 1643.41 2235.01 Q1641.97 2233.18 1639.1 2233.18 Q1635.65 2233.18 1633.66 2235.38 Q1631.67 2237.58 1631.67 2241.37 L1631.67 2256.02 L1627.39 2256.02 L1627.39 2220.01 L1631.67 2220.01 L1631.67 2234.13 Q1633.2 2231.79 1635.26 2230.63 Q1637.34 2229.47 1640.05 2229.47 Q1644.52 2229.47 1646.81 2232.25 Q1649.1 2235.01 1649.1 2240.38 Z" fill="#000000" fill-rule="evenodd" fill-opacity="1" /><path clip-path="url(#clip240)" d="M1669.38 2242.99 Q1664.22 2242.99 1662.23 2244.17 Q1660.24 2245.35 1660.24 2248.2 Q1660.24 2250.47 1661.72 2251.81 Q1663.22 2253.13 1665.79 2253.13 Q1669.33 2253.13 1671.46 2250.63 Q1673.62 2248.11 1673.62 2243.94 L1673.62 2242.99 L1669.38 2242.99 M1677.88 2241.23 L1677.88 2256.02 L1673.62 2256.02 L1673.62 2252.09 Q1672.16 2254.45 1669.98 2255.58 Q1667.81 2256.7 1664.66 2256.7 Q1660.68 2256.7 1658.32 2254.47 Q1655.98 2252.23 1655.98 2248.48 Q1655.98 2244.1 1658.89 2241.88 Q1661.83 2239.66 1667.64 2239.66 L1673.62 2239.66 L1673.62 2239.24 Q1673.62 2236.3 1671.67 2234.7 Q1669.75 2233.08 1666.26 2233.08 Q1664.03 2233.08 1661.93 2233.62 Q1659.82 2234.15 1657.88 2235.21 L1657.88 2231.28 Q1660.21 2230.38 1662.41 2229.94 Q1664.61 2229.47 1666.7 2229.47 Q1672.32 2229.47 1675.1 2232.39 Q1677.88 2235.31 1677.88 2241.23 Z" fill="#000000" fill-rule="evenodd" fill-opacity="1" /><path clip-path="url(#clip240)" d="M1703.18 2230.86 L1703.18 2234.89 Q1701.37 2233.96 1699.43 2233.5 Q1697.48 2233.04 1695.4 2233.04 Q1692.23 2233.04 1690.63 2234.01 Q1689.06 2234.98 1689.06 2236.93 Q1689.06 2238.41 1690.19 2239.26 Q1691.33 2240.1 1694.75 2240.86 L1696.21 2241.19 Q1700.75 2242.16 1702.64 2243.94 Q1704.57 2245.7 1704.57 2248.87 Q1704.57 2252.48 1701.7 2254.59 Q1698.85 2256.7 1693.85 2256.7 Q1691.76 2256.7 1689.5 2256.28 Q1687.25 2255.89 1684.75 2255.07 L1684.75 2250.68 Q1687.11 2251.9 1689.4 2252.53 Q1691.7 2253.13 1693.94 2253.13 Q1696.95 2253.13 1698.57 2252.11 Q1700.19 2251.07 1700.19 2249.2 Q1700.19 2247.46 1699.01 2246.53 Q1697.85 2245.61 1693.89 2244.75 L1692.41 2244.4 Q1688.45 2243.57 1686.7 2241.86 Q1684.94 2240.12 1684.94 2237.11 Q1684.94 2233.45 1687.53 2231.46 Q1690.12 2229.47 1694.89 2229.47 Q1697.25 2229.47 1699.33 2229.82 Q1701.42 2230.17 1703.18 2230.86 Z" fill="#000000" fill-rule="evenodd" fill-opacity="1" /><path clip-path="url(#clip240)" d="M1733.52 2242 L1733.52 2244.08 L1713.94 2244.08 Q1714.22 2248.48 1716.58 2250.79 Q1718.96 2253.08 1723.2 2253.08 Q1725.65 2253.08 1727.95 2252.48 Q1730.26 2251.88 1732.53 2250.68 L1732.53 2254.7 Q1730.24 2255.68 1727.83 2256.19 Q1725.42 2256.7 1722.95 2256.7 Q1716.74 2256.7 1713.11 2253.08 Q1709.5 2249.47 1709.5 2243.32 Q1709.5 2236.95 1712.92 2233.22 Q1716.37 2229.47 1722.2 2229.47 Q1727.44 2229.47 1730.47 2232.85 Q1733.52 2236.21 1733.52 2242 M1729.26 2240.75 Q1729.22 2237.25 1727.3 2235.17 Q1725.4 2233.08 1722.25 2233.08 Q1718.69 2233.08 1716.53 2235.1 Q1714.4 2237.11 1714.08 2240.77 L1729.26 2240.75 Z" fill="#000000" fill-rule="evenodd" fill-opacity="1" /><path clip-path="url(#clip240)" d="M1760.21 2252.09 L1776.53 2252.09 L1776.53 2256.02 L1754.59 2256.02 L1754.59 2252.09 Q1757.25 2249.33 1761.83 2244.7 Q1766.44 2240.05 1767.62 2238.71 Q1769.87 2236.19 1770.75 2234.45 Q1771.65 2232.69 1771.65 2231 Q1771.65 2228.25 1769.7 2226.51 Q1767.78 2224.77 1764.68 2224.77 Q1762.48 2224.77 1760.03 2225.54 Q1757.6 2226.3 1754.82 2227.85 L1754.82 2223.13 Q1757.64 2222 1760.1 2221.42 Q1762.55 2220.84 1764.59 2220.84 Q1769.96 2220.84 1773.15 2223.52 Q1776.35 2226.21 1776.35 2230.7 Q1776.35 2232.83 1775.54 2234.75 Q1774.75 2236.65 1772.64 2239.24 Q1772.07 2239.91 1768.96 2243.13 Q1765.86 2246.32 1760.21 2252.09 Z" fill="#000000" fill-rule="evenodd" fill-opacity="1" /><path clip-path="url(#clip240)" d="M1820.58 2235.17 L1813.85 2235.17 L1811.9 2242.9 L1818.69 2242.9 L1820.58 2235.17 M1817.11 2222 L1814.7 2231.6 L1821.46 2231.6 L1823.89 2222 L1827.6 2222 L1825.21 2231.6 L1832.44 2231.6 L1832.44 2235.17 L1824.31 2235.17 L1822.41 2242.9 L1829.77 2242.9 L1829.77 2246.44 L1821.51 2246.44 L1819.1 2256.02 L1815.4 2256.02 L1817.78 2246.44 L1811 2246.44 L1808.62 2256.02 L1804.89 2256.02 L1807.3 2246.44 L1800.01 2246.44 L1800.01 2242.9 L1808.15 2242.9 L1810.1 2235.17 L1802.64 2235.17 L1802.64 2231.6 L1811 2231.6 L1813.36 2222 L1817.11 2222 Z" fill="#000000" fill-rule="evenodd" fill-opacity="1" /><path clip-path="url(#clip240)" d="M1840.54 2230.1 L1844.8 2230.1 L1844.8 2256.02 L1840.54 2256.02 L1840.54 2230.1 M1840.54 2220.01 L1844.8 2220.01 L1844.8 2225.4 L1840.54 2225.4 L1840.54 2220.01 Z" fill="#000000" fill-rule="evenodd" fill-opacity="1" /><path clip-path="url(#clip240)" d="M1857.92 2222.74 L1857.92 2230.1 L1866.69 2230.1 L1866.69 2233.41 L1857.92 2233.41 L1857.92 2247.48 Q1857.92 2250.65 1858.78 2251.56 Q1859.66 2252.46 1862.32 2252.46 L1866.69 2252.46 L1866.69 2256.02 L1862.32 2256.02 Q1857.39 2256.02 1855.51 2254.2 Q1853.64 2252.34 1853.64 2247.48 L1853.64 2233.41 L1850.51 2233.41 L1850.51 2230.1 L1853.64 2230.1 L1853.64 2222.74 L1857.92 2222.74 Z" fill="#000000" fill-rule="evenodd" fill-opacity="1" /><path clip-path="url(#clip240)" d="M1894.47 2242 L1894.47 2244.08 L1874.89 2244.08 Q1875.17 2248.48 1877.53 2250.79 Q1879.91 2253.08 1884.15 2253.08 Q1886.6 2253.08 1888.89 2252.48 Q1891.21 2251.88 1893.48 2250.68 L1893.48 2254.7 Q1891.19 2255.68 1888.78 2256.19 Q1886.37 2256.7 1883.89 2256.7 Q1877.69 2256.7 1874.06 2253.08 Q1870.44 2249.47 1870.44 2243.32 Q1870.44 2236.95 1873.87 2233.22 Q1877.32 2229.47 1883.15 2229.47 Q1888.38 2229.47 1891.42 2232.85 Q1894.47 2236.21 1894.47 2242 M1890.21 2240.75 Q1890.17 2237.25 1888.25 2235.17 Q1886.35 2233.08 1883.2 2233.08 Q1879.63 2233.08 1877.48 2235.1 Q1875.35 2237.11 1875.03 2240.77 L1890.21 2240.75 Z" fill="#000000" fill-rule="evenodd" fill-opacity="1" /><path clip-path="url(#clip240)" d="M1916.49 2234.08 Q1915.77 2233.66 1914.91 2233.48 Q1914.08 2233.27 1913.06 2233.27 Q1909.45 2233.27 1907.5 2235.63 Q1905.58 2237.97 1905.58 2242.37 L1905.58 2256.02 L1901.3 2256.02 L1901.3 2230.1 L1905.58 2230.1 L1905.58 2234.13 Q1906.93 2231.76 1909.08 2230.63 Q1911.23 2229.47 1914.31 2229.47 Q1914.75 2229.47 1915.28 2229.54 Q1915.81 2229.59 1916.46 2229.7 L1916.49 2234.08 Z" fill="#000000" fill-rule="evenodd" fill-opacity="1" /><path clip-path="url(#clip240)" d="M1937.48 2230.86 L1937.48 2234.89 Q1935.68 2233.96 1933.73 2233.5 Q1931.79 2233.04 1929.7 2233.04 Q1926.53 2233.04 1924.93 2234.01 Q1923.36 2234.98 1923.36 2236.93 Q1923.36 2238.41 1924.5 2239.26 Q1925.63 2240.1 1929.06 2240.86 L1930.51 2241.19 Q1935.05 2242.16 1936.95 2243.94 Q1938.87 2245.7 1938.87 2248.87 Q1938.87 2252.48 1936 2254.59 Q1933.15 2256.7 1928.15 2256.7 Q1926.07 2256.7 1923.8 2256.28 Q1921.56 2255.89 1919.06 2255.07 L1919.06 2250.68 Q1921.42 2251.9 1923.71 2252.53 Q1926 2253.13 1928.25 2253.13 Q1931.25 2253.13 1932.87 2252.11 Q1934.5 2251.07 1934.5 2249.2 Q1934.5 2247.46 1933.31 2246.53 Q1932.16 2245.61 1928.2 2244.75 L1926.72 2244.4 Q1922.76 2243.57 1921 2241.86 Q1919.24 2240.12 1919.24 2237.11 Q1919.24 2233.45 1921.83 2231.46 Q1924.43 2229.47 1929.19 2229.47 Q1931.56 2229.47 1933.64 2229.82 Q1935.72 2230.17 1937.48 2230.86 Z" fill="#000000" fill-rule="evenodd" fill-opacity="1" /><polyline clip-path="url(#clip240)" style="stroke:#3da44d; stroke-linecap:round; stroke-linejoin:round; stroke-width:4; stroke-opacity:1; fill:none" points="1363.74,2290.58 1563.93,2290.58 "/>
<path clip-path="url(#clip240)" d="M1619.01 2292.22 L1619.01 2307.86 L1614.75 2307.86 L1614.75 2292.35 Q1614.75 2288.67 1613.32 2286.85 Q1611.88 2285.02 1609.01 2285.02 Q1605.56 2285.02 1603.57 2287.22 Q1601.58 2289.42 1601.58 2293.21 L1601.58 2307.86 L1597.3 2307.86 L1597.3 2281.94 L1601.58 2281.94 L1601.58 2285.97 Q1603.11 2283.63 1605.17 2282.47 Q1607.25 2281.31 1609.96 2281.31 Q1614.43 2281.31 1616.72 2284.09 Q1619.01 2286.85 1619.01 2292.22 Z" fill="#000000" fill-rule="evenodd" fill-opacity="1" /><path clip-path="url(#clip240)" d="M1649.68 2293.84 L1649.68 2295.92 L1630.1 2295.92 Q1630.38 2300.32 1632.74 2302.63 Q1635.12 2304.92 1639.36 2304.92 Q1641.81 2304.92 1644.1 2304.32 Q1646.42 2303.72 1648.69 2302.52 L1648.69 2306.54 Q1646.39 2307.52 1643.99 2308.03 Q1641.58 2308.54 1639.1 2308.54 Q1632.9 2308.54 1629.27 2304.92 Q1625.65 2301.31 1625.65 2295.16 Q1625.65 2288.79 1629.08 2285.06 Q1632.53 2281.31 1638.36 2281.31 Q1643.59 2281.31 1646.63 2284.69 Q1649.68 2288.05 1649.68 2293.84 M1645.42 2292.59 Q1645.38 2289.09 1643.46 2287.01 Q1641.56 2284.92 1638.41 2284.92 Q1634.84 2284.92 1632.69 2286.94 Q1630.56 2288.95 1630.24 2292.61 L1645.42 2292.59 Z" fill="#000000" fill-rule="evenodd" fill-opacity="1" /><path clip-path="url(#clip240)" d="M1660.89 2274.58 L1660.89 2281.94 L1669.66 2281.94 L1669.66 2285.25 L1660.89 2285.25 L1660.89 2299.32 Q1660.89 2302.49 1661.74 2303.4 Q1662.62 2304.3 1665.28 2304.3 L1669.66 2304.3 L1669.66 2307.86 L1665.28 2307.86 Q1660.35 2307.86 1658.48 2306.04 Q1656.6 2304.18 1656.6 2299.32 L1656.6 2285.25 L1653.48 2285.25 L1653.48 2281.94 L1656.6 2281.94 L1656.6 2274.58 L1660.89 2274.58 Z" fill="#000000" fill-rule="evenodd" fill-opacity="1" /><path clip-path="url(#clip240)" d="M1710.1 2287.01 L1703.36 2287.01 L1701.42 2294.74 L1708.2 2294.74 L1710.1 2287.01 M1706.63 2273.84 L1704.22 2283.44 L1710.98 2283.44 L1713.41 2273.84 L1717.11 2273.84 L1714.73 2283.44 L1721.95 2283.44 L1721.95 2287.01 L1713.83 2287.01 L1711.93 2294.74 L1719.29 2294.74 L1719.29 2298.28 L1711.02 2298.28 L1708.62 2307.86 L1704.91 2307.86 L1707.3 2298.28 L1700.51 2298.28 L1698.13 2307.86 L1694.4 2307.86 L1696.81 2298.28 L1689.52 2298.28 L1689.52 2294.74 L1697.67 2294.74 L1699.61 2287.01 L1692.16 2287.01 L1692.16 2283.44 L1700.51 2283.44 L1702.88 2273.84 L1706.63 2273.84 Z" fill="#000000" fill-rule="evenodd" fill-opacity="1" /><path clip-path="url(#clip240)" d="M1730.05 2281.94 L1734.31 2281.94 L1734.31 2307.86 L1730.05 2307.86 L1730.05 2281.94 M1730.05 2271.85 L1734.31 2271.85 L1734.31 2277.24 L1730.05 2277.24 L1730.05 2271.85 Z" fill="#000000" fill-rule="evenodd" fill-opacity="1" /><path clip-path="url(#clip240)" d="M1747.44 2274.58 L1747.44 2281.94 L1756.21 2281.94 L1756.21 2285.25 L1747.44 2285.25 L1747.44 2299.32 Q1747.44 2302.49 1748.29 2303.4 Q1749.17 2304.3 1751.83 2304.3 L1756.21 2304.3 L1756.21 2307.86 L1751.83 2307.86 Q1746.9 2307.86 1745.03 2306.04 Q1743.15 2304.18 1743.15 2299.32 L1743.15 2285.25 L1740.03 2285.25 L1740.03 2281.94 L1743.15 2281.94 L1743.15 2274.58 L1747.44 2274.58 Z" fill="#000000" fill-rule="evenodd" fill-opacity="1" /><path clip-path="url(#clip240)" d="M1783.99 2293.84 L1783.99 2295.92 L1764.4 2295.92 Q1764.68 2300.32 1767.04 2302.63 Q1769.43 2304.92 1773.66 2304.92 Q1776.12 2304.92 1778.41 2304.32 Q1780.72 2303.72 1782.99 2302.52 L1782.99 2306.54 Q1780.7 2307.52 1778.29 2308.03 Q1775.88 2308.54 1773.41 2308.54 Q1767.2 2308.54 1763.57 2304.92 Q1759.96 2301.31 1759.96 2295.16 Q1759.96 2288.79 1763.38 2285.06 Q1766.83 2281.31 1772.67 2281.31 Q1777.9 2281.31 1780.93 2284.69 Q1783.99 2288.05 1783.99 2293.84 M1779.73 2292.59 Q1779.68 2289.09 1777.76 2287.01 Q1775.86 2284.92 1772.71 2284.92 Q1769.15 2284.92 1767 2286.94 Q1764.87 2288.95 1764.54 2292.61 L1779.73 2292.59 Z" fill="#000000" fill-rule="evenodd" fill-opacity="1" /><path clip-path="url(#clip240)" d="M1806 2285.92 Q1805.28 2285.5 1804.43 2285.32 Q1803.59 2285.11 1802.57 2285.11 Q1798.96 2285.11 1797.02 2287.47 Q1795.1 2289.81 1795.1 2294.21 L1795.1 2307.86 L1790.82 2307.86 L1790.82 2281.94 L1795.1 2281.94 L1795.1 2285.97 Q1796.44 2283.6 1798.59 2282.47 Q1800.75 2281.31 1803.82 2281.31 Q1804.26 2281.31 1804.8 2281.38 Q1805.33 2281.43 1805.98 2281.54 L1806 2285.92 Z" fill="#000000" fill-rule="evenodd" fill-opacity="1" /><path clip-path="url(#clip240)" d="M1827 2282.7 L1827 2286.73 Q1825.19 2285.8 1823.25 2285.34 Q1821.3 2284.88 1819.22 2284.88 Q1816.05 2284.88 1814.45 2285.85 Q1812.88 2286.82 1812.88 2288.77 Q1812.88 2290.25 1814.01 2291.1 Q1815.14 2291.94 1818.57 2292.7 L1820.03 2293.03 Q1824.57 2294 1826.46 2295.78 Q1828.38 2297.54 1828.38 2300.71 Q1828.38 2304.32 1825.51 2306.43 Q1822.67 2308.54 1817.67 2308.54 Q1815.58 2308.54 1813.32 2308.12 Q1811.07 2307.73 1808.57 2306.91 L1808.57 2302.52 Q1810.93 2303.74 1813.22 2304.37 Q1815.51 2304.97 1817.76 2304.97 Q1820.77 2304.97 1822.39 2303.95 Q1824.01 2302.91 1824.01 2301.04 Q1824.01 2299.3 1822.83 2298.37 Q1821.67 2297.45 1817.71 2296.59 L1816.23 2296.24 Q1812.27 2295.41 1810.51 2293.7 Q1808.76 2291.96 1808.76 2288.95 Q1808.76 2285.29 1811.35 2283.3 Q1813.94 2281.31 1818.71 2281.31 Q1821.07 2281.31 1823.15 2281.66 Q1825.24 2282.01 1827 2282.7 Z" fill="#000000" fill-rule="evenodd" fill-opacity="1" /></svg>
