<?xml version="1.0" encoding="utf-8"?>
<svg xmlns="http://www.w3.org/2000/svg" xmlns:xlink="http://www.w3.org/1999/xlink" width="800" height="640" viewBox="0 0 3200 2560">
<defs>
  <clipPath id="clip490">
    <rect x="0" y="0" width="3200" height="2560"/>
  </clipPath>
</defs>
<path clip-path="url(#clip490)" d="M0 2560 L3200 2560 L3200 0 L0 0  Z" fill="#ffffff" fill-rule="evenodd" fill-opacity="1"/>
<defs>
  <clipPath id="clip491">
    <rect x="640" y="0" width="2241" height="2241"/>
  </clipPath>
</defs>
<path clip-path="url(#clip490)" d="M149.853 1949.69 L3152.76 1949.69 L3152.76 47.2441 L149.853 47.2441  Z" fill="#ffffff" fill-rule="evenodd" fill-opacity="1"/>
<defs>
  <clipPath id="clip492">
    <rect x="149" y="47" width="3004" height="1903"/>
  </clipPath>
</defs>
<polyline clip-path="url(#clip492)" style="stroke:#000000; stroke-linecap:round; stroke-linejoin:round; stroke-width:2; stroke-opacity:0.1; fill:none" points="232.074,1949.69 232.074,47.2441 "/>
<polyline clip-path="url(#clip492)" style="stroke:#000000; stroke-linecap:round; stroke-linejoin:round; stroke-width:2; stroke-opacity:0.1; fill:none" points="693.237,1949.69 693.237,47.2441 "/>
<polyline clip-path="url(#clip492)" style="stroke:#000000; stroke-linecap:round; stroke-linejoin:round; stroke-width:2; stroke-opacity:0.1; fill:none" points="1154.4,1949.69 1154.4,47.2441 "/>
<polyline clip-path="url(#clip492)" style="stroke:#000000; stroke-linecap:round; stroke-linejoin:round; stroke-width:2; stroke-opacity:0.1; fill:none" points="1615.56,1949.69 1615.56,47.2441 "/>
<polyline clip-path="url(#clip492)" style="stroke:#000000; stroke-linecap:round; stroke-linejoin:round; stroke-width:2; stroke-opacity:0.1; fill:none" points="2076.73,1949.69 2076.73,47.2441 "/>
<polyline clip-path="url(#clip492)" style="stroke:#000000; stroke-linecap:round; stroke-linejoin:round; stroke-width:2; stroke-opacity:0.1; fill:none" points="2537.89,1949.69 2537.89,47.2441 "/>
<polyline clip-path="url(#clip492)" style="stroke:#000000; stroke-linecap:round; stroke-linejoin:round; stroke-width:2; stroke-opacity:0.1; fill:none" points="2999.05,1949.69 2999.05,47.2441 "/>
<polyline clip-path="url(#clip490)" style="stroke:#000000; stroke-linecap:round; stroke-linejoin:round; stroke-width:4; stroke-opacity:1; fill:none" points="149.853,1949.69 3152.76,1949.69 "/>
<polyline clip-path="url(#clip490)" style="stroke:#000000; stroke-linecap:round; stroke-linejoin:round; stroke-width:4; stroke-opacity:1; fill:none" points="232.074,1949.69 232.074,1934.12 "/>
<polyline clip-path="url(#clip490)" style="stroke:#000000; stroke-linecap:round; stroke-linejoin:round; stroke-width:4; stroke-opacity:1; fill:none" points="693.237,1949.69 693.237,1934.12 "/>
<polyline clip-path="url(#clip490)" style="stroke:#000000; stroke-linecap:round; stroke-linejoin:round; stroke-width:4; stroke-opacity:1; fill:none" points="1154.4,1949.69 1154.4,1934.12 "/>
<polyline clip-path="url(#clip490)" style="stroke:#000000; stroke-linecap:round; stroke-linejoin:round; stroke-width:4; stroke-opacity:1; fill:none" points="1615.56,1949.69 1615.56,1934.12 "/>
<polyline clip-path="url(#clip490)" style="stroke:#000000; stroke-linecap:round; stroke-linejoin:round; stroke-width:4; stroke-opacity:1; fill:none" points="2076.73,1949.69 2076.73,1934.12 "/>
<polyline clip-path="url(#clip490)" style="stroke:#000000; stroke-linecap:round; stroke-linejoin:round; stroke-width:4; stroke-opacity:1; fill:none" points="2537.89,1949.69 2537.89,1934.12 "/>
<polyline clip-path="url(#clip490)" style="stroke:#000000; stroke-linecap:round; stroke-linejoin:round; stroke-width:4; stroke-opacity:1; fill:none" points="2999.05,1949.69 2999.05,1934.12 "/>
<path clip-path="url(#clip490)" d="M232.074 1987.01 Q228.463 1987.01 226.634 1990.57 Q224.828 1994.11 224.828 2001.24 Q224.828 2008.35 226.634 2011.91 Q228.463 2015.45 232.074 2015.45 Q235.708 2015.45 237.514 2011.91 Q239.342 2008.35 239.342 2001.24 Q239.342 1994.11 237.514 1990.57 Q235.708 1987.01 232.074 1987.01 M232.074 1983.3 Q237.884 1983.3 240.939 1987.91 Q244.018 1992.49 244.018 2001.24 Q244.018 2009.97 240.939 2014.57 Q237.884 2019.16 232.074 2019.16 Q226.264 2019.16 223.185 2014.57 Q220.129 2009.97 220.129 2001.24 Q220.129 1992.49 223.185 1987.91 Q226.264 1983.3 232.074 1983.3 Z" fill="#000000" fill-rule="evenodd" fill-opacity="1" /><path clip-path="url(#clip490)" d="M637.763 2014.55 L645.402 2014.55 L645.402 1988.19 L637.092 1989.85 L637.092 1985.59 L645.356 1983.93 L650.031 1983.93 L650.031 2014.55 L657.67 2014.55 L657.67 2018.49 L637.763 2018.49 L637.763 2014.55 Z" fill="#000000" fill-rule="evenodd" fill-opacity="1" /><path clip-path="url(#clip490)" d="M677.115 1987.01 Q673.504 1987.01 671.675 1990.57 Q669.869 1994.11 669.869 2001.24 Q669.869 2008.35 671.675 2011.91 Q673.504 2015.45 677.115 2015.45 Q680.749 2015.45 682.554 2011.91 Q684.383 2008.35 684.383 2001.24 Q684.383 1994.11 682.554 1990.57 Q680.749 1987.01 677.115 1987.01 M677.115 1983.3 Q682.925 1983.3 685.98 1987.91 Q689.059 1992.49 689.059 2001.24 Q689.059 2009.97 685.98 2014.57 Q682.925 2019.16 677.115 2019.16 Q671.305 2019.16 668.226 2014.57 Q665.17 2009.97 665.17 2001.24 Q665.17 1992.49 668.226 1987.91 Q671.305 1983.3 677.115 1983.3 Z" fill="#000000" fill-rule="evenodd" fill-opacity="1" /><path clip-path="url(#clip490)" d="M707.277 1987.01 Q703.665 1987.01 701.837 1990.57 Q700.031 1994.11 700.031 2001.24 Q700.031 2008.35 701.837 2011.91 Q703.665 2015.45 707.277 2015.45 Q710.911 2015.45 712.716 2011.91 Q714.545 2008.35 714.545 2001.24 Q714.545 1994.11 712.716 1990.57 Q710.911 1987.01 707.277 1987.01 M707.277 1983.3 Q713.087 1983.3 716.142 1987.91 Q719.221 1992.49 719.221 2001.24 Q719.221 2009.97 716.142 2014.57 Q713.087 2019.16 707.277 2019.16 Q701.466 2019.16 698.388 2014.57 Q695.332 2009.97 695.332 2001.24 Q695.332 1992.49 698.388 1987.91 Q701.466 1983.3 707.277 1983.3 Z" fill="#000000" fill-rule="evenodd" fill-opacity="1" /><path clip-path="url(#clip490)" d="M737.438 1987.01 Q733.827 1987.01 731.999 1990.57 Q730.193 1994.11 730.193 2001.24 Q730.193 2008.35 731.999 2011.91 Q733.827 2015.45 737.438 2015.45 Q741.073 2015.45 742.878 2011.91 Q744.707 2008.35 744.707 2001.24 Q744.707 1994.11 742.878 1990.57 Q741.073 1987.01 737.438 1987.01 M737.438 1983.3 Q743.249 1983.3 746.304 1987.91 Q749.383 1992.49 749.383 2001.24 Q749.383 2009.97 746.304 2014.57 Q743.249 2019.16 737.438 2019.16 Q731.628 2019.16 728.55 2014.57 Q725.494 2009.97 725.494 2001.24 Q725.494 1992.49 728.55 1987.91 Q731.628 1983.3 737.438 1983.3 Z" fill="#000000" fill-rule="evenodd" fill-opacity="1" /><path clip-path="url(#clip490)" d="M1103.01 2014.55 L1119.33 2014.55 L1119.33 2018.49 L1097.39 2018.49 L1097.39 2014.55 Q1100.05 2011.8 1104.63 2007.17 Q1109.24 2002.51 1110.42 2001.17 Q1112.66 1998.65 1113.54 1996.91 Q1114.45 1995.15 1114.45 1993.46 Q1114.45 1990.71 1112.5 1988.97 Q1110.58 1987.24 1107.48 1987.24 Q1105.28 1987.24 1102.83 1988 Q1100.4 1988.76 1097.62 1990.32 L1097.62 1985.59 Q1100.44 1984.46 1102.9 1983.88 Q1105.35 1983.3 1107.39 1983.3 Q1112.76 1983.3 1115.95 1985.99 Q1119.15 1988.67 1119.15 1993.16 Q1119.15 1995.29 1118.34 1997.21 Q1117.55 1999.11 1115.44 2001.7 Q1114.86 2002.38 1111.76 2005.59 Q1108.66 2008.79 1103.01 2014.55 Z" fill="#000000" fill-rule="evenodd" fill-opacity="1" /><path clip-path="url(#clip490)" d="M1139.15 1987.01 Q1135.54 1987.01 1133.71 1990.57 Q1131.9 1994.11 1131.9 2001.24 Q1131.9 2008.35 1133.71 2011.91 Q1135.54 2015.45 1139.15 2015.45 Q1142.78 2015.45 1144.59 2011.91 Q1146.41 2008.35 1146.41 2001.24 Q1146.41 1994.11 1144.59 1990.57 Q1142.78 1987.01 1139.15 1987.01 M1139.15 1983.3 Q1144.96 1983.3 1148.01 1987.91 Q1151.09 1992.49 1151.09 2001.24 Q1151.09 2009.97 1148.01 2014.57 Q1144.96 2019.16 1139.15 2019.16 Q1133.34 2019.16 1130.26 2014.57 Q1127.2 2009.97 1127.2 2001.24 Q1127.2 1992.49 1130.26 1987.91 Q1133.34 1983.3 1139.15 1983.3 Z" fill="#000000" fill-rule="evenodd" fill-opacity="1" /><path clip-path="url(#clip490)" d="M1169.31 1987.01 Q1165.7 1987.01 1163.87 1990.57 Q1162.06 1994.11 1162.06 2001.24 Q1162.06 2008.35 1163.87 2011.91 Q1165.7 2015.45 1169.31 2015.45 Q1172.94 2015.45 1174.75 2011.91 Q1176.58 2008.35 1176.58 2001.24 Q1176.58 1994.11 1174.75 1990.57 Q1172.94 1987.01 1169.31 1987.01 M1169.31 1983.3 Q1175.12 1983.3 1178.17 1987.91 Q1181.25 1992.49 1181.25 2001.24 Q1181.25 2009.97 1178.17 2014.57 Q1175.12 2019.16 1169.31 2019.16 Q1163.5 2019.16 1160.42 2014.57 Q1157.36 2009.97 1157.36 2001.24 Q1157.36 1992.49 1160.42 1987.91 Q1163.5 1983.3 1169.31 1983.3 Z" fill="#000000" fill-rule="evenodd" fill-opacity="1" /><path clip-path="url(#clip490)" d="M1199.47 1987.01 Q1195.86 1987.01 1194.03 1990.57 Q1192.22 1994.11 1192.22 2001.24 Q1192.22 2008.35 1194.03 2011.91 Q1195.86 2015.45 1199.47 2015.45 Q1203.1 2015.45 1204.91 2011.91 Q1206.74 2008.35 1206.74 2001.24 Q1206.74 1994.11 1204.91 1990.57 Q1203.1 1987.01 1199.47 1987.01 M1199.47 1983.3 Q1205.28 1983.3 1208.34 1987.91 Q1211.41 1992.49 1211.41 2001.24 Q1211.41 2009.97 1208.34 2014.57 Q1205.28 2019.16 1199.47 2019.16 Q1193.66 2019.16 1190.58 2014.57 Q1187.53 2009.97 1187.53 2001.24 Q1187.53 1992.49 1190.58 1987.91 Q1193.66 1983.3 1199.47 1983.3 Z" fill="#000000" fill-rule="evenodd" fill-opacity="1" /><path clip-path="url(#clip490)" d="M1574.25 1999.85 Q1577.6 2000.57 1579.48 2002.84 Q1581.37 2005.11 1581.37 2008.44 Q1581.37 2013.56 1577.86 2016.36 Q1574.34 2019.16 1567.86 2019.16 Q1565.68 2019.16 1563.37 2018.72 Q1561.07 2018.3 1558.62 2017.44 L1558.62 2012.93 Q1560.56 2014.07 1562.88 2014.64 Q1565.19 2015.22 1567.72 2015.22 Q1572.12 2015.22 1574.41 2013.49 Q1576.72 2011.75 1576.72 2008.44 Q1576.72 2005.38 1574.57 2003.67 Q1572.44 2001.94 1568.62 2001.94 L1564.59 2001.94 L1564.59 1998.09 L1568.81 1998.09 Q1572.25 1998.09 1574.08 1996.73 Q1575.91 1995.34 1575.91 1992.75 Q1575.91 1990.08 1574.01 1988.67 Q1572.14 1987.24 1568.62 1987.24 Q1566.7 1987.24 1564.5 1987.65 Q1562.3 1988.07 1559.66 1988.95 L1559.66 1984.78 Q1562.32 1984.04 1564.64 1983.67 Q1566.98 1983.3 1569.04 1983.3 Q1574.36 1983.3 1577.46 1985.73 Q1580.56 1988.14 1580.56 1992.26 Q1580.56 1995.13 1578.92 1997.12 Q1577.28 1999.09 1574.25 1999.85 Z" fill="#000000" fill-rule="evenodd" fill-opacity="1" /><path clip-path="url(#clip490)" d="M1600.24 1987.01 Q1596.63 1987.01 1594.8 1990.57 Q1592.99 1994.11 1592.99 2001.24 Q1592.99 2008.35 1594.8 2011.91 Q1596.63 2015.45 1600.24 2015.45 Q1603.87 2015.45 1605.68 2011.91 Q1607.51 2008.35 1607.51 2001.24 Q1607.51 1994.11 1605.68 1990.57 Q1603.87 1987.01 1600.24 1987.01 M1600.24 1983.3 Q1606.05 1983.3 1609.11 1987.91 Q1612.18 1992.49 1612.18 2001.24 Q1612.18 2009.97 1609.11 2014.57 Q1606.05 2019.16 1600.24 2019.16 Q1594.43 2019.16 1591.35 2014.57 Q1588.3 2009.97 1588.3 2001.24 Q1588.3 1992.49 1591.35 1987.91 Q1594.43 1983.3 1600.24 1983.3 Z" fill="#000000" fill-rule="evenodd" fill-opacity="1" /><path clip-path="url(#clip490)" d="M1630.4 1987.01 Q1626.79 1987.01 1624.96 1990.57 Q1623.16 1994.11 1623.16 2001.24 Q1623.16 2008.35 1624.96 2011.91 Q1626.79 2015.45 1630.4 2015.45 Q1634.04 2015.45 1635.84 2011.91 Q1637.67 2008.35 1637.67 2001.24 Q1637.67 1994.11 1635.84 1990.57 Q1634.04 1987.01 1630.4 1987.01 M1630.4 1983.3 Q1636.21 1983.3 1639.27 1987.91 Q1642.35 1992.49 1642.35 2001.24 Q1642.35 2009.97 1639.27 2014.57 Q1636.21 2019.16 1630.4 2019.16 Q1624.59 2019.16 1621.51 2014.57 Q1618.46 2009.97 1618.46 2001.24 Q1618.46 1992.49 1621.51 1987.91 Q1624.59 1983.3 1630.4 1983.3 Z" fill="#000000" fill-rule="evenodd" fill-opacity="1" /><path clip-path="url(#clip490)" d="M1660.56 1987.01 Q1656.95 1987.01 1655.12 1990.57 Q1653.32 1994.11 1653.32 2001.24 Q1653.32 2008.35 1655.12 2011.91 Q1656.95 2015.45 1660.56 2015.45 Q1664.2 2015.45 1666 2011.91 Q1667.83 2008.35 1667.83 2001.24 Q1667.83 1994.11 1666 1990.57 Q1664.2 1987.01 1660.56 1987.01 M1660.56 1983.3 Q1666.37 1983.3 1669.43 1987.91 Q1672.51 1992.49 1672.51 2001.24 Q1672.51 2009.97 1669.43 2014.57 Q1666.37 2019.16 1660.56 2019.16 Q1654.75 2019.16 1651.68 2014.57 Q1648.62 2009.97 1648.62 2001.24 Q1648.62 1992.49 1651.68 1987.91 Q1654.75 1983.3 1660.56 1983.3 Z" fill="#000000" fill-rule="evenodd" fill-opacity="1" /><path clip-path="url(#clip490)" d="M2034.74 1988 L2022.93 2006.45 L2034.74 2006.45 L2034.74 1988 M2033.51 1983.93 L2039.39 1983.93 L2039.39 2006.45 L2044.32 2006.45 L2044.32 2010.34 L2039.39 2010.34 L2039.39 2018.49 L2034.74 2018.49 L2034.74 2010.34 L2019.14 2010.34 L2019.14 2005.82 L2033.51 1983.93 Z" fill="#000000" fill-rule="evenodd" fill-opacity="1" /><path clip-path="url(#clip490)" d="M2062.05 1987.01 Q2058.44 1987.01 2056.61 1990.57 Q2054.81 1994.11 2054.81 2001.24 Q2054.81 2008.35 2056.61 2011.91 Q2058.44 2015.45 2062.05 2015.45 Q2065.69 2015.45 2067.49 2011.91 Q2069.32 2008.35 2069.32 2001.24 Q2069.32 1994.11 2067.49 1990.57 Q2065.69 1987.01 2062.05 1987.01 M2062.05 1983.3 Q2067.86 1983.3 2070.92 1987.91 Q2074 1992.49 2074 2001.24 Q2074 2009.97 2070.92 2014.57 Q2067.86 2019.16 2062.05 2019.16 Q2056.24 2019.16 2053.16 2014.57 Q2050.11 2009.97 2050.11 2001.24 Q2050.11 1992.49 2053.16 1987.91 Q2056.24 1983.3 2062.05 1983.3 Z" fill="#000000" fill-rule="evenodd" fill-opacity="1" /><path clip-path="url(#clip490)" d="M2092.21 1987.01 Q2088.6 1987.01 2086.77 1990.57 Q2084.97 1994.11 2084.97 2001.24 Q2084.97 2008.35 2086.77 2011.91 Q2088.6 2015.45 2092.21 2015.45 Q2095.85 2015.45 2097.65 2011.91 Q2099.48 2008.35 2099.48 2001.24 Q2099.48 1994.11 2097.65 1990.57 Q2095.85 1987.01 2092.21 1987.01 M2092.21 1983.3 Q2098.02 1983.3 2101.08 1987.91 Q2104.16 1992.49 2104.16 2001.24 Q2104.16 2009.97 2101.08 2014.57 Q2098.02 2019.16 2092.21 2019.16 Q2086.4 2019.16 2083.32 2014.57 Q2080.27 2009.97 2080.27 2001.24 Q2080.27 1992.49 2083.32 1987.91 Q2086.4 1983.3 2092.21 1983.3 Z" fill="#000000" fill-rule="evenodd" fill-opacity="1" /><path clip-path="url(#clip490)" d="M2122.38 1987.01 Q2118.76 1987.01 2116.94 1990.57 Q2115.13 1994.11 2115.13 2001.24 Q2115.13 2008.35 2116.94 2011.91 Q2118.76 2015.45 2122.38 2015.45 Q2126.01 2015.45 2127.82 2011.91 Q2129.64 2008.35 2129.64 2001.24 Q2129.64 1994.11 2127.82 1990.57 Q2126.01 1987.01 2122.38 1987.01 M2122.38 1983.3 Q2128.19 1983.3 2131.24 1987.91 Q2134.32 1992.49 2134.32 2001.24 Q2134.32 2009.97 2131.24 2014.57 Q2128.19 2019.16 2122.38 2019.16 Q2116.57 2019.16 2113.49 2014.57 Q2110.43 2009.97 2110.43 2001.24 Q2110.43 1992.49 2113.49 1987.91 Q2116.57 1983.3 2122.38 1983.3 Z" fill="#000000" fill-rule="evenodd" fill-opacity="1" /><path clip-path="url(#clip490)" d="M2482.43 1983.93 L2500.78 1983.93 L2500.78 1987.86 L2486.71 1987.86 L2486.71 1996.33 Q2487.73 1995.99 2488.75 1995.82 Q2489.77 1995.64 2490.79 1995.64 Q2496.57 1995.64 2499.95 1998.81 Q2503.33 2001.98 2503.33 2007.4 Q2503.33 2012.98 2499.86 2016.08 Q2496.39 2019.16 2490.07 2019.16 Q2487.89 2019.16 2485.62 2018.79 Q2483.38 2018.42 2480.97 2017.68 L2480.97 2012.98 Q2483.05 2014.11 2485.28 2014.67 Q2487.5 2015.22 2489.97 2015.22 Q2493.98 2015.22 2496.32 2013.12 Q2498.66 2011.01 2498.66 2007.4 Q2498.66 2003.79 2496.32 2001.68 Q2493.98 1999.57 2489.97 1999.57 Q2488.1 1999.57 2486.22 1999.99 Q2484.37 2000.41 2482.43 2001.29 L2482.43 1983.93 Z" fill="#000000" fill-rule="evenodd" fill-opacity="1" /><path clip-path="url(#clip490)" d="M2522.54 1987.01 Q2518.93 1987.01 2517.1 1990.57 Q2515.3 1994.11 2515.3 2001.24 Q2515.3 2008.35 2517.1 2011.91 Q2518.93 2015.45 2522.54 2015.45 Q2526.18 2015.45 2527.98 2011.91 Q2529.81 2008.35 2529.81 2001.24 Q2529.81 1994.11 2527.98 1990.57 Q2526.18 1987.01 2522.54 1987.01 M2522.54 1983.3 Q2528.35 1983.3 2531.41 1987.91 Q2534.49 1992.49 2534.49 2001.24 Q2534.49 2009.97 2531.41 2014.57 Q2528.35 2019.16 2522.54 2019.16 Q2516.73 2019.16 2513.66 2014.57 Q2510.6 2009.97 2510.6 2001.24 Q2510.6 1992.49 2513.66 1987.91 Q2516.73 1983.3 2522.54 1983.3 Z" fill="#000000" fill-rule="evenodd" fill-opacity="1" /><path clip-path="url(#clip490)" d="M2552.71 1987.01 Q2549.09 1987.01 2547.27 1990.57 Q2545.46 1994.11 2545.46 2001.24 Q2545.46 2008.35 2547.27 2011.91 Q2549.09 2015.45 2552.71 2015.45 Q2556.34 2015.45 2558.15 2011.91 Q2559.97 2008.35 2559.97 2001.24 Q2559.97 1994.11 2558.15 1990.57 Q2556.34 1987.01 2552.71 1987.01 M2552.71 1983.3 Q2558.52 1983.3 2561.57 1987.91 Q2564.65 1992.49 2564.65 2001.24 Q2564.65 2009.97 2561.57 2014.57 Q2558.52 2019.16 2552.71 2019.16 Q2546.9 2019.16 2543.82 2014.57 Q2540.76 2009.97 2540.76 2001.24 Q2540.76 1992.49 2543.82 1987.91 Q2546.9 1983.3 2552.71 1983.3 Z" fill="#000000" fill-rule="evenodd" fill-opacity="1" /><path clip-path="url(#clip490)" d="M2582.87 1987.01 Q2579.26 1987.01 2577.43 1990.57 Q2575.62 1994.11 2575.62 2001.24 Q2575.62 2008.35 2577.43 2011.91 Q2579.26 2015.45 2582.87 2015.45 Q2586.5 2015.45 2588.31 2011.91 Q2590.14 2008.35 2590.14 2001.24 Q2590.14 1994.11 2588.31 1990.57 Q2586.5 1987.01 2582.87 1987.01 M2582.87 1983.3 Q2588.68 1983.3 2591.73 1987.91 Q2594.81 1992.49 2594.81 2001.24 Q2594.81 2009.97 2591.73 2014.57 Q2588.68 2019.16 2582.87 2019.16 Q2577.06 2019.16 2573.98 2014.57 Q2570.92 2009.97 2570.92 2001.24 Q2570.92 1992.49 2573.98 1987.91 Q2577.06 1983.3 2582.87 1983.3 Z" fill="#000000" fill-rule="evenodd" fill-opacity="1" /><path clip-path="url(#clip490)" d="M2954.3 1999.34 Q2951.15 1999.34 2949.3 2001.5 Q2947.47 2003.65 2947.47 2007.4 Q2947.47 2011.13 2949.3 2013.3 Q2951.15 2015.45 2954.3 2015.45 Q2957.45 2015.45 2959.27 2013.3 Q2961.13 2011.13 2961.13 2007.4 Q2961.13 2003.65 2959.27 2001.5 Q2957.45 1999.34 2954.3 1999.34 M2963.58 1984.69 L2963.58 1988.95 Q2961.82 1988.12 2960.02 1987.68 Q2958.23 1987.24 2956.47 1987.24 Q2951.84 1987.24 2949.39 1990.36 Q2946.96 1993.49 2946.61 1999.81 Q2947.98 1997.79 2950.04 1996.73 Q2952.1 1995.64 2954.58 1995.64 Q2959.78 1995.64 2962.79 1998.81 Q2965.83 2001.96 2965.83 2007.4 Q2965.83 2012.72 2962.68 2015.94 Q2959.53 2019.16 2954.3 2019.16 Q2948.3 2019.16 2945.13 2014.57 Q2941.96 2009.97 2941.96 2001.24 Q2941.96 1993.05 2945.85 1988.19 Q2949.74 1983.3 2956.29 1983.3 Q2958.05 1983.3 2959.83 1983.65 Q2961.64 1984 2963.58 1984.69 Z" fill="#000000" fill-rule="evenodd" fill-opacity="1" /><path clip-path="url(#clip490)" d="M2983.88 1987.01 Q2980.27 1987.01 2978.44 1990.57 Q2976.64 1994.11 2976.64 2001.24 Q2976.64 2008.35 2978.44 2011.91 Q2980.27 2015.45 2983.88 2015.45 Q2987.52 2015.45 2989.32 2011.91 Q2991.15 2008.35 2991.15 2001.24 Q2991.15 1994.11 2989.32 1990.57 Q2987.52 1987.01 2983.88 1987.01 M2983.88 1983.3 Q2989.69 1983.3 2992.75 1987.91 Q2995.83 1992.49 2995.83 2001.24 Q2995.83 2009.97 2992.75 2014.57 Q2989.69 2019.16 2983.88 2019.16 Q2978.07 2019.16 2974.99 2014.57 Q2971.94 2009.97 2971.94 2001.24 Q2971.94 1992.49 2974.99 1987.91 Q2978.07 1983.3 2983.88 1983.3 Z" fill="#000000" fill-rule="evenodd" fill-opacity="1" /><path clip-path="url(#clip490)" d="M3014.04 1987.01 Q3010.43 1987.01 3008.6 1990.57 Q3006.8 1994.11 3006.8 2001.24 Q3006.8 2008.35 3008.6 2011.91 Q3010.43 2015.45 3014.04 2015.45 Q3017.68 2015.45 3019.48 2011.91 Q3021.31 2008.35 3021.31 2001.24 Q3021.31 1994.11 3019.48 1990.57 Q3017.68 1987.01 3014.04 1987.01 M3014.04 1983.3 Q3019.85 1983.3 3022.91 1987.91 Q3025.99 1992.49 3025.99 2001.24 Q3025.99 2009.97 3022.91 2014.57 Q3019.85 2019.16 3014.04 2019.16 Q3008.23 2019.16 3005.15 2014.57 Q3002.1 2009.97 3002.1 2001.24 Q3002.1 1992.49 3005.15 1987.91 Q3008.23 1983.3 3014.04 1983.3 Z" fill="#000000" fill-rule="evenodd" fill-opacity="1" /><path clip-path="url(#clip490)" d="M3044.2 1987.01 Q3040.59 1987.01 3038.77 1990.57 Q3036.96 1994.11 3036.96 2001.24 Q3036.96 2008.35 3038.77 2011.91 Q3040.59 2015.45 3044.2 2015.45 Q3047.84 2015.45 3049.64 2011.91 Q3051.47 2008.35 3051.47 2001.24 Q3051.47 1994.11 3049.64 1990.57 Q3047.84 1987.01 3044.2 1987.01 M3044.2 1983.3 Q3050.02 1983.3 3053.07 1987.91 Q3056.15 1992.49 3056.15 2001.24 Q3056.15 2009.97 3053.07 2014.57 Q3050.02 2019.16 3044.2 2019.16 Q3038.39 2019.16 3035.32 2014.57 Q3032.26 2009.97 3032.26 2001.24 Q3032.26 1992.49 3035.32 1987.91 Q3038.39 1983.3 3044.2 1983.3 Z" fill="#000000" fill-rule="evenodd" fill-opacity="1" /><path clip-path="url(#clip490)" d="M1586.45 2085.03 L1586.45 2106.55 L1580.6 2106.55 L1580.6 2085.23 Q1580.6 2080.16 1578.62 2077.65 Q1576.65 2075.14 1572.7 2075.14 Q1567.96 2075.14 1565.22 2078.16 Q1562.49 2081.18 1562.49 2086.4 L1562.49 2106.55 L1556.6 2106.55 L1556.6 2070.9 L1562.49 2070.9 L1562.49 2076.44 Q1564.59 2073.23 1567.42 2071.63 Q1570.28 2070.04 1574.01 2070.04 Q1580.15 2070.04 1583.3 2073.86 Q1586.45 2077.65 1586.45 2085.03 Z" fill="#000000" fill-rule="evenodd" fill-opacity="1" /><path clip-path="url(#clip490)" d="M1642.69 2065.68 L1642.69 2083.41 L1660.42 2083.41 L1660.42 2088.82 L1642.69 2088.82 L1642.69 2106.55 L1637.35 2106.55 L1637.35 2088.82 L1619.62 2088.82 L1619.62 2083.41 L1637.35 2083.41 L1637.35 2065.68 L1642.69 2065.68 Z" fill="#000000" fill-rule="evenodd" fill-opacity="1" /><path clip-path="url(#clip490)" d="M1721.95 2077.75 Q1724.14 2073.8 1727.2 2071.92 Q1730.26 2070.04 1734.39 2070.04 Q1739.96 2070.04 1742.99 2073.96 Q1746.01 2077.84 1746.01 2085.03 L1746.01 2106.55 L1740.12 2106.55 L1740.12 2085.23 Q1740.12 2080.1 1738.31 2077.62 Q1736.49 2075.14 1732.77 2075.14 Q1728.22 2075.14 1725.58 2078.16 Q1722.93 2081.18 1722.93 2086.4 L1722.93 2106.55 L1717.05 2106.55 L1717.05 2085.23 Q1717.05 2080.07 1715.23 2077.62 Q1713.42 2075.14 1709.63 2075.14 Q1705.14 2075.14 1702.5 2078.19 Q1699.86 2081.22 1699.86 2086.4 L1699.86 2106.55 L1693.97 2106.55 L1693.97 2070.9 L1699.86 2070.9 L1699.86 2076.44 Q1701.86 2073.16 1704.66 2071.6 Q1707.47 2070.04 1711.32 2070.04 Q1715.2 2070.04 1717.91 2072.02 Q1720.64 2073.99 1721.95 2077.75 Z" fill="#000000" fill-rule="evenodd" fill-opacity="1" /><polyline clip-path="url(#clip492)" style="stroke:#000000; stroke-linecap:round; stroke-linejoin:round; stroke-width:2; stroke-opacity:0.1; fill:none" points="149.853,1590.35 3152.76,1590.35 "/>
<polyline clip-path="url(#clip492)" style="stroke:#000000; stroke-linecap:round; stroke-linejoin:round; stroke-width:2; stroke-opacity:0.1; fill:none" points="149.853,1208.49 3152.76,1208.49 "/>
<polyline clip-path="url(#clip492)" style="stroke:#000000; stroke-linecap:round; stroke-linejoin:round; stroke-width:2; stroke-opacity:0.1; fill:none" points="149.853,826.627 3152.76,826.627 "/>
<polyline clip-path="url(#clip492)" style="stroke:#000000; stroke-linecap:round; stroke-linejoin:round; stroke-width:2; stroke-opacity:0.1; fill:none" points="149.853,444.764 3152.76,444.764 "/>
<polyline clip-path="url(#clip492)" style="stroke:#000000; stroke-linecap:round; stroke-linejoin:round; stroke-width:2; stroke-opacity:0.1; fill:none" points="149.853,62.9005 3152.76,62.9005 "/>
<polyline clip-path="url(#clip490)" style="stroke:#000000; stroke-linecap:round; stroke-linejoin:round; stroke-width:4; stroke-opacity:1; fill:none" points="149.853,1949.69 149.853,47.2441 "/>
<polyline clip-path="url(#clip490)" style="stroke:#000000; stroke-linecap:round; stroke-linejoin:round; stroke-width:4; stroke-opacity:1; fill:none" points="149.853,1590.35 168.751,1590.35 "/>
<polyline clip-path="url(#clip490)" style="stroke:#000000; stroke-linecap:round; stroke-linejoin:round; stroke-width:4; stroke-opacity:1; fill:none" points="149.853,1208.49 168.751,1208.49 "/>
<polyline clip-path="url(#clip490)" style="stroke:#000000; stroke-linecap:round; stroke-linejoin:round; stroke-width:4; stroke-opacity:1; fill:none" points="149.853,826.627 168.751,826.627 "/>
<polyline clip-path="url(#clip490)" style="stroke:#000000; stroke-linecap:round; stroke-linejoin:round; stroke-width:4; stroke-opacity:1; fill:none" points="149.853,444.764 168.751,444.764 "/>
<polyline clip-path="url(#clip490)" style="stroke:#000000; stroke-linecap:round; stroke-linejoin:round; stroke-width:4; stroke-opacity:1; fill:none" points="149.853,62.9005 168.751,62.9005 "/>
<path clip-path="url(#clip490)" d="M50.5569 1603.7 L58.1958 1603.7 L58.1958 1577.33 L49.8856 1579 L49.8856 1574.74 L58.1495 1573.07 L62.8254 1573.07 L62.8254 1603.7 L70.4642 1603.7 L70.4642 1607.63 L50.5569 1607.63 L50.5569 1603.7 Z" fill="#000000" fill-rule="evenodd" fill-opacity="1" /><path clip-path="url(#clip490)" d="M89.9086 1576.15 Q86.2975 1576.15 84.4688 1579.72 Q82.6632 1583.26 82.6632 1590.39 Q82.6632 1597.49 84.4688 1601.06 Q86.2975 1604.6 89.9086 1604.6 Q93.5428 1604.6 95.3483 1601.06 Q97.177 1597.49 97.177 1590.39 Q97.177 1583.26 95.3483 1579.72 Q93.5428 1576.15 89.9086 1576.15 M89.9086 1572.45 Q95.7187 1572.45 98.7743 1577.05 Q101.853 1581.64 101.853 1590.39 Q101.853 1599.11 98.7743 1603.72 Q95.7187 1608.3 89.9086 1608.3 Q84.0984 1608.3 81.0197 1603.72 Q77.9642 1599.11 77.9642 1590.39 Q77.9642 1581.64 81.0197 1577.05 Q84.0984 1572.45 89.9086 1572.45 Z" fill="#000000" fill-rule="evenodd" fill-opacity="1" /><path clip-path="url(#clip490)" d="M53.7745 1221.83 L70.0939 1221.83 L70.0939 1225.77 L48.1495 1225.77 L48.1495 1221.83 Q50.8115 1219.08 55.3949 1214.45 Q60.0013 1209.8 61.1819 1208.46 Q63.4272 1205.93 64.3068 1204.2 Q65.2096 1202.44 65.2096 1200.75 Q65.2096 1197.99 63.2652 1196.26 Q61.3439 1194.52 58.2421 1194.52 Q56.043 1194.52 53.5893 1195.28 Q51.1588 1196.05 48.381 1197.6 L48.381 1192.88 Q51.2051 1191.74 53.6588 1191.16 Q56.1124 1190.59 58.1495 1190.59 Q63.5198 1190.59 66.7142 1193.27 Q69.9087 1195.96 69.9087 1200.45 Q69.9087 1202.58 69.0985 1204.5 Q68.3115 1206.4 66.205 1208.99 Q65.6263 1209.66 62.5245 1212.88 Q59.4226 1216.07 53.7745 1221.83 Z" fill="#000000" fill-rule="evenodd" fill-opacity="1" /><path clip-path="url(#clip490)" d="M89.9086 1194.29 Q86.2975 1194.29 84.4688 1197.85 Q82.6632 1201.4 82.6632 1208.52 Q82.6632 1215.63 84.4688 1219.2 Q86.2975 1222.74 89.9086 1222.74 Q93.5428 1222.74 95.3483 1219.2 Q97.177 1215.63 97.177 1208.52 Q97.177 1201.4 95.3483 1197.85 Q93.5428 1194.29 89.9086 1194.29 M89.9086 1190.59 Q95.7187 1190.59 98.7743 1195.19 Q101.853 1199.77 101.853 1208.52 Q101.853 1217.25 98.7743 1221.86 Q95.7187 1226.44 89.9086 1226.44 Q84.0984 1226.44 81.0197 1221.86 Q77.9642 1217.25 77.9642 1208.52 Q77.9642 1199.77 81.0197 1195.19 Q84.0984 1190.59 89.9086 1190.59 Z" fill="#000000" fill-rule="evenodd" fill-opacity="1" /><path clip-path="url(#clip490)" d="M63.9133 825.273 Q67.2698 825.99 69.1448 828.259 Q71.0429 830.527 71.0429 833.861 Q71.0429 838.976 67.5244 841.777 Q64.0059 844.578 57.5245 844.578 Q55.3486 844.578 53.0338 844.138 Q50.7421 843.722 48.2884 842.865 L48.2884 838.351 Q50.2328 839.486 52.5477 840.064 Q54.8625 840.643 57.3856 840.643 Q61.7837 840.643 64.0754 838.907 Q66.3902 837.171 66.3902 833.861 Q66.3902 830.805 64.2374 829.092 Q62.1078 827.356 58.2884 827.356 L54.2606 827.356 L54.2606 823.513 L58.4735 823.513 Q61.9226 823.513 63.7513 822.148 Q65.58 820.759 65.58 818.166 Q65.58 815.504 63.6819 814.092 Q61.8069 812.657 58.2884 812.657 Q56.3671 812.657 54.168 813.074 Q51.969 813.49 49.3301 814.37 L49.3301 810.203 Q51.9921 809.463 54.3069 809.092 Q56.6449 808.722 58.705 808.722 Q64.0291 808.722 67.1309 811.152 Q70.2327 813.56 70.2327 817.68 Q70.2327 820.551 68.5892 822.541 Q66.9457 824.509 63.9133 825.273 Z" fill="#000000" fill-rule="evenodd" fill-opacity="1" /><path clip-path="url(#clip490)" d="M89.9086 812.426 Q86.2975 812.426 84.4688 815.99 Q82.6632 819.532 82.6632 826.662 Q82.6632 833.768 84.4688 837.333 Q86.2975 840.874 89.9086 840.874 Q93.5428 840.874 95.3483 837.333 Q97.177 833.768 97.177 826.662 Q97.177 819.532 95.3483 815.99 Q93.5428 812.426 89.9086 812.426 M89.9086 808.722 Q95.7187 808.722 98.7743 813.328 Q101.853 817.912 101.853 826.662 Q101.853 835.388 98.7743 839.995 Q95.7187 844.578 89.9086 844.578 Q84.0984 844.578 81.0197 839.995 Q77.9642 835.388 77.9642 826.662 Q77.9642 817.912 81.0197 813.328 Q84.0984 808.722 89.9086 808.722 Z" fill="#000000" fill-rule="evenodd" fill-opacity="1" /><path clip-path="url(#clip490)" d="M62.5939 431.558 L50.7884 450.007 L62.5939 450.007 L62.5939 431.558 M61.367 427.484 L67.2466 427.484 L67.2466 450.007 L72.1772 450.007 L72.1772 453.896 L67.2466 453.896 L67.2466 462.044 L62.5939 462.044 L62.5939 453.896 L46.9921 453.896 L46.9921 449.382 L61.367 427.484 Z" fill="#000000" fill-rule="evenodd" fill-opacity="1" /><path clip-path="url(#clip490)" d="M89.9086 430.562 Q86.2975 430.562 84.4688 434.127 Q82.6632 437.669 82.6632 444.798 Q82.6632 451.905 84.4688 455.47 Q86.2975 459.011 89.9086 459.011 Q93.5428 459.011 95.3483 455.47 Q97.177 451.905 97.177 444.798 Q97.177 437.669 95.3483 434.127 Q93.5428 430.562 89.9086 430.562 M89.9086 426.859 Q95.7187 426.859 98.7743 431.465 Q101.853 436.048 101.853 444.798 Q101.853 453.525 98.7743 458.132 Q95.7187 462.715 89.9086 462.715 Q84.0984 462.715 81.0197 458.132 Q77.9642 453.525 77.9642 444.798 Q77.9642 436.048 81.0197 431.465 Q84.0984 426.859 89.9086 426.859 Z" fill="#000000" fill-rule="evenodd" fill-opacity="1" /><path clip-path="url(#clip490)" d="M49.793 45.6205 L68.1494 45.6205 L68.1494 49.5556 L54.0754 49.5556 L54.0754 58.0278 Q55.0939 57.6806 56.1124 57.5186 Q57.131 57.3334 58.1495 57.3334 Q63.9365 57.3334 67.3161 60.5047 Q70.6957 63.6759 70.6957 69.0926 Q70.6957 74.6713 67.2235 77.7731 Q63.7513 80.8518 57.4319 80.8518 Q55.256 80.8518 52.9875 80.4814 Q50.7421 80.111 48.3347 79.3703 L48.3347 74.6713 Q50.418 75.8055 52.6402 76.3611 Q54.8625 76.9166 57.3393 76.9166 Q61.3439 76.9166 63.6819 74.8101 Q66.0198 72.7037 66.0198 69.0926 Q66.0198 65.4815 63.6819 63.375 Q61.3439 61.2685 57.3393 61.2685 Q55.4643 61.2685 53.5893 61.6852 Q51.7375 62.1019 49.793 62.9815 L49.793 45.6205 Z" fill="#000000" fill-rule="evenodd" fill-opacity="1" /><path clip-path="url(#clip490)" d="M89.9086 48.6992 Q86.2975 48.6992 84.4688 52.264 Q82.6632 55.8056 82.6632 62.9352 Q82.6632 70.0417 84.4688 73.6064 Q86.2975 77.1481 89.9086 77.1481 Q93.5428 77.1481 95.3483 73.6064 Q97.177 70.0417 97.177 62.9352 Q97.177 55.8056 95.3483 52.264 Q93.5428 48.6992 89.9086 48.6992 M89.9086 44.9955 Q95.7187 44.9955 98.7743 49.6019 Q101.853 54.1853 101.853 62.9352 Q101.853 71.662 98.7743 76.2685 Q95.7187 80.8518 89.9086 80.8518 Q84.0984 80.8518 81.0197 76.2685 Q77.9642 71.662 77.9642 62.9352 Q77.9642 54.1853 81.0197 49.6019 Q84.0984 44.9955 89.9086 44.9955 Z" fill="#000000" fill-rule="evenodd" fill-opacity="1" /><polyline clip-path="url(#clip492)" style="stroke:#009af9; stroke-linecap:round; stroke-linejoin:round; stroke-width:4; stroke-opacity:1; fill:none" points="234.841,1895.84 236.224,1895.84 238.069,1819.47 246.831,1781.28 318.311,1743.1 355.204,1743.1 448.359,1743.1 741.659,1743.1 929.814,1743.1 1386.83,1704.91 1874.74,1628.54 3067.77,1666.73 "/>
<circle clip-path="url(#clip492)" cx="234.841" cy="1895.84" r="14.4" fill="#009af9" fill-rule="evenodd" fill-opacity="1" stroke="#000000" stroke-opacity="1" stroke-width="5.12"/>
<circle clip-path="url(#clip492)" cx="236.224" cy="1895.84" r="14.4" fill="#009af9" fill-rule="evenodd" fill-opacity="1" stroke="#000000" stroke-opacity="1" stroke-width="5.12"/>
<circle clip-path="url(#clip492)" cx="238.069" cy="1819.47" r="14.4" fill="#009af9" fill-rule="evenodd" fill-opacity="1" stroke="#000000" stroke-opacity="1" stroke-width="5.12"/>
<circle clip-path="url(#clip492)" cx="246.831" cy="1781.28" r="14.4" fill="#009af9" fill-rule="evenodd" fill-opacity="1" stroke="#000000" stroke-opacity="1" stroke-width="5.12"/>
<circle clip-path="url(#clip492)" cx="318.311" cy="1743.1" r="14.4" fill="#009af9" fill-rule="evenodd" fill-opacity="1" stroke="#000000" stroke-opacity="1" stroke-width="5.12"/>
<circle clip-path="url(#clip492)" cx="355.204" cy="1743.1" r="14.4" fill="#009af9" fill-rule="evenodd" fill-opacity="1" stroke="#000000" stroke-opacity="1" stroke-width="5.12"/>
<circle clip-path="url(#clip492)" cx="448.359" cy="1743.1" r="14.4" fill="#009af9" fill-rule="evenodd" fill-opacity="1" stroke="#000000" stroke-opacity="1" stroke-width="5.12"/>
<circle clip-path="url(#clip492)" cx="741.659" cy="1743.1" r="14.4" fill="#009af9" fill-rule="evenodd" fill-opacity="1" stroke="#000000" stroke-opacity="1" stroke-width="5.12"/>
<circle clip-path="url(#clip492)" cx="929.814" cy="1743.1" r="14.4" fill="#009af9" fill-rule="evenodd" fill-opacity="1" stroke="#000000" stroke-opacity="1" stroke-width="5.12"/>
<circle clip-path="url(#clip492)" cx="1386.83" cy="1704.91" r="14.4" fill="#009af9" fill-rule="evenodd" fill-opacity="1" stroke="#000000" stroke-opacity="1" stroke-width="5.12"/>
<circle clip-path="url(#clip492)" cx="1874.74" cy="1628.54" r="14.4" fill="#009af9" fill-rule="evenodd" fill-opacity="1" stroke="#000000" stroke-opacity="1" stroke-width="5.12"/>
<circle clip-path="url(#clip492)" cx="3067.77" cy="1666.73" r="14.4" fill="#009af9" fill-rule="evenodd" fill-opacity="1" stroke="#000000" stroke-opacity="1" stroke-width="5.12"/>
<polyline clip-path="url(#clip492)" style="stroke:#e26f46; stroke-linecap:round; stroke-linejoin:round; stroke-width:4; stroke-opacity:1; fill:none" points="234.841,1819.47 236.224,1743.1 238.069,1017.56 246.831,1132.12 318.311,826.627 355.204,941.186 448.359,826.627 741.659,712.068 929.814,673.882 1386.83,597.509 1874.74,444.764 3067.77,559.323 "/>
<circle clip-path="url(#clip492)" cx="234.841" cy="1819.47" r="14.4" fill="#e26f46" fill-rule="evenodd" fill-opacity="1" stroke="#000000" stroke-opacity="1" stroke-width="5.12"/>
<circle clip-path="url(#clip492)" cx="236.224" cy="1743.1" r="14.4" fill="#e26f46" fill-rule="evenodd" fill-opacity="1" stroke="#000000" stroke-opacity="1" stroke-width="5.12"/>
<circle clip-path="url(#clip492)" cx="238.069" cy="1017.56" r="14.4" fill="#e26f46" fill-rule="evenodd" fill-opacity="1" stroke="#000000" stroke-opacity="1" stroke-width="5.12"/>
<circle clip-path="url(#clip492)" cx="246.831" cy="1132.12" r="14.4" fill="#e26f46" fill-rule="evenodd" fill-opacity="1" stroke="#000000" stroke-opacity="1" stroke-width="5.12"/>
<circle clip-path="url(#clip492)" cx="318.311" cy="826.627" r="14.4" fill="#e26f46" fill-rule="evenodd" fill-opacity="1" stroke="#000000" stroke-opacity="1" stroke-width="5.12"/>
<circle clip-path="url(#clip492)" cx="355.204" cy="941.186" r="14.4" fill="#e26f46" fill-rule="evenodd" fill-opacity="1" stroke="#000000" stroke-opacity="1" stroke-width="5.12"/>
<circle clip-path="url(#clip492)" cx="448.359" cy="826.627" r="14.4" fill="#e26f46" fill-rule="evenodd" fill-opacity="1" stroke="#000000" stroke-opacity="1" stroke-width="5.12"/>
<circle clip-path="url(#clip492)" cx="741.659" cy="712.068" r="14.4" fill="#e26f46" fill-rule="evenodd" fill-opacity="1" stroke="#000000" stroke-opacity="1" stroke-width="5.12"/>
<circle clip-path="url(#clip492)" cx="929.814" cy="673.882" r="14.4" fill="#e26f46" fill-rule="evenodd" fill-opacity="1" stroke="#000000" stroke-opacity="1" stroke-width="5.12"/>
<circle clip-path="url(#clip492)" cx="1386.83" cy="597.509" r="14.4" fill="#e26f46" fill-rule="evenodd" fill-opacity="1" stroke="#000000" stroke-opacity="1" stroke-width="5.12"/>
<circle clip-path="url(#clip492)" cx="1874.74" cy="444.764" r="14.4" fill="#e26f46" fill-rule="evenodd" fill-opacity="1" stroke="#000000" stroke-opacity="1" stroke-width="5.12"/>
<circle clip-path="url(#clip492)" cx="3067.77" cy="559.323" r="14.4" fill="#e26f46" fill-rule="evenodd" fill-opacity="1" stroke="#000000" stroke-opacity="1" stroke-width="5.12"/>
<polyline clip-path="url(#clip492)" style="stroke:#3da44d; stroke-linecap:round; stroke-linejoin:round; stroke-width:4; stroke-opacity:1; fill:none" points="234.841,1743.1 236.224,1666.73 238.069,864.813 246.831,941.186 318.311,597.509 355.204,712.068 448.359,597.509 741.659,482.95 929.814,444.764 1386.83,330.205 1874.74,101.087 3067.77,253.832 "/>
<circle clip-path="url(#clip492)" cx="234.841" cy="1743.1" r="14.4" fill="#3da44d" fill-rule="evenodd" fill-opacity="1" stroke="#000000" stroke-opacity="1" stroke-width="5.12"/>
<circle clip-path="url(#clip492)" cx="236.224" cy="1666.73" r="14.4" fill="#3da44d" fill-rule="evenodd" fill-opacity="1" stroke="#000000" stroke-opacity="1" stroke-width="5.12"/>
<circle clip-path="url(#clip492)" cx="238.069" cy="864.813" r="14.4" fill="#3da44d" fill-rule="evenodd" fill-opacity="1" stroke="#000000" stroke-opacity="1" stroke-width="5.12"/>
<circle clip-path="url(#clip492)" cx="246.831" cy="941.186" r="14.4" fill="#3da44d" fill-rule="evenodd" fill-opacity="1" stroke="#000000" stroke-opacity="1" stroke-width="5.12"/>
<circle clip-path="url(#clip492)" cx="318.311" cy="597.509" r="14.4" fill="#3da44d" fill-rule="evenodd" fill-opacity="1" stroke="#000000" stroke-opacity="1" stroke-width="5.12"/>
<circle clip-path="url(#clip492)" cx="355.204" cy="712.068" r="14.4" fill="#3da44d" fill-rule="evenodd" fill-opacity="1" stroke="#000000" stroke-opacity="1" stroke-width="5.12"/>
<circle clip-path="url(#clip492)" cx="448.359" cy="597.509" r="14.4" fill="#3da44d" fill-rule="evenodd" fill-opacity="1" stroke="#000000" stroke-opacity="1" stroke-width="5.12"/>
<circle clip-path="url(#clip492)" cx="741.659" cy="482.95" r="14.4" fill="#3da44d" fill-rule="evenodd" fill-opacity="1" stroke="#000000" stroke-opacity="1" stroke-width="5.12"/>
<circle clip-path="url(#clip492)" cx="929.814" cy="444.764" r="14.4" fill="#3da44d" fill-rule="evenodd" fill-opacity="1" stroke="#000000" stroke-opacity="1" stroke-width="5.12"/>
<circle clip-path="url(#clip492)" cx="1386.83" cy="330.205" r="14.4" fill="#3da44d" fill-rule="evenodd" fill-opacity="1" stroke="#000000" stroke-opacity="1" stroke-width="5.12"/>
<circle clip-path="url(#clip492)" cx="1874.74" cy="101.087" r="14.4" fill="#3da44d" fill-rule="evenodd" fill-opacity="1" stroke="#000000" stroke-opacity="1" stroke-width="5.12"/>
<circle clip-path="url(#clip492)" cx="3067.77" cy="253.832" r="14.4" fill="#3da44d" fill-rule="evenodd" fill-opacity="1" stroke="#000000" stroke-opacity="1" stroke-width="5.12"/>
<path clip-path="url(#clip490)" d="M1330.37 2357.16 L1972.24 2357.16 L1972.24 2149.8 L1330.37 2149.8  Z" fill="#ffffff" fill-rule="evenodd" fill-opacity="1"/>
<polyline clip-path="url(#clip490)" style="stroke:#000000; stroke-linecap:round; stroke-linejoin:round; stroke-width:4; stroke-opacity:1; fill:none" points="1330.37,2357.16 1972.24,2357.16 1972.24,2149.8 1330.37,2149.8 1330.37,2357.16 "/>
<polyline clip-path="url(#clip490)" style="stroke:#009af9; stroke-linecap:round; stroke-linejoin:round; stroke-width:4; stroke-opacity:1; fill:none" points="1363.74,2201.64 1563.93,2201.64 "/>
<path clip-path="url(#clip490)" d="M1601.58 2215.03 L1601.58 2228.78 L1597.3 2228.78 L1597.3 2193 L1601.58 2193 L1601.58 2196.93 Q1602.92 2194.62 1604.96 2193.51 Q1607.02 2192.37 1609.87 2192.37 Q1614.59 2192.37 1617.53 2196.12 Q1620.49 2199.87 1620.49 2205.98 Q1620.49 2212.1 1617.53 2215.85 Q1614.59 2219.6 1609.87 2219.6 Q1607.02 2219.6 1604.96 2218.48 Q1602.92 2217.35 1601.58 2215.03 M1616.07 2205.98 Q1616.07 2201.29 1614.13 2198.62 Q1612.21 2195.94 1608.83 2195.94 Q1605.45 2195.94 1603.5 2198.62 Q1601.58 2201.29 1601.58 2205.98 Q1601.58 2210.68 1603.5 2213.37 Q1605.45 2216.03 1608.83 2216.03 Q1612.21 2216.03 1614.13 2213.37 Q1616.07 2210.68 1616.07 2205.98 Z" fill="#000000" fill-rule="evenodd" fill-opacity="1" /><path clip-path="url(#clip490)" d="M1649.1 2203.28 L1649.1 2218.92 L1644.84 2218.92 L1644.84 2203.41 Q1644.84 2199.73 1643.41 2197.91 Q1641.97 2196.08 1639.1 2196.08 Q1635.65 2196.08 1633.66 2198.28 Q1631.67 2200.47 1631.67 2204.27 L1631.67 2218.92 L1627.39 2218.92 L1627.39 2182.91 L1631.67 2182.91 L1631.67 2197.03 Q1633.2 2194.69 1635.26 2193.53 Q1637.34 2192.37 1640.05 2192.37 Q1644.52 2192.37 1646.81 2195.15 Q1649.1 2197.91 1649.1 2203.28 Z" fill="#000000" fill-rule="evenodd" fill-opacity="1" /><path clip-path="url(#clip490)" d="M1669.38 2205.89 Q1664.22 2205.89 1662.23 2207.07 Q1660.24 2208.25 1660.24 2211.1 Q1660.24 2213.37 1661.72 2214.71 Q1663.22 2216.03 1665.79 2216.03 Q1669.33 2216.03 1671.46 2213.53 Q1673.62 2211.01 1673.62 2206.84 L1673.62 2205.89 L1669.38 2205.89 M1677.88 2204.13 L1677.88 2218.92 L1673.62 2218.92 L1673.62 2214.99 Q1672.16 2217.35 1669.98 2218.48 Q1667.81 2219.6 1664.66 2219.6 Q1660.68 2219.6 1658.32 2217.37 Q1655.98 2215.13 1655.98 2211.38 Q1655.98 2207 1658.89 2204.78 Q1661.83 2202.56 1667.64 2202.56 L1673.62 2202.56 L1673.62 2202.14 Q1673.62 2199.2 1671.67 2197.6 Q1669.75 2195.98 1666.26 2195.98 Q1664.03 2195.98 1661.93 2196.52 Q1659.82 2197.05 1657.88 2198.11 L1657.88 2194.18 Q1660.21 2193.28 1662.41 2192.84 Q1664.61 2192.37 1666.7 2192.37 Q1672.32 2192.37 1675.1 2195.29 Q1677.88 2198.21 1677.88 2204.13 Z" fill="#000000" fill-rule="evenodd" fill-opacity="1" /><path clip-path="url(#clip490)" d="M1703.18 2193.76 L1703.18 2197.79 Q1701.37 2196.86 1699.43 2196.4 Q1697.48 2195.94 1695.4 2195.94 Q1692.23 2195.94 1690.63 2196.91 Q1689.06 2197.88 1689.06 2199.83 Q1689.06 2201.31 1690.19 2202.16 Q1691.33 2203 1694.75 2203.76 L1696.21 2204.09 Q1700.75 2205.06 1702.64 2206.84 Q1704.57 2208.6 1704.57 2211.77 Q1704.57 2215.38 1701.7 2217.49 Q1698.85 2219.6 1693.85 2219.6 Q1691.76 2219.6 1689.5 2219.18 Q1687.25 2218.78 1684.75 2217.97 L1684.75 2213.58 Q1687.11 2214.8 1689.4 2215.43 Q1691.7 2216.03 1693.94 2216.03 Q1696.95 2216.03 1698.57 2215.01 Q1700.19 2213.97 1700.19 2212.1 Q1700.19 2210.36 1699.01 2209.43 Q1697.85 2208.51 1693.89 2207.65 L1692.41 2207.3 Q1688.45 2206.47 1686.7 2204.76 Q1684.94 2203.02 1684.94 2200.01 Q1684.94 2196.35 1687.53 2194.36 Q1690.12 2192.37 1694.89 2192.37 Q1697.25 2192.37 1699.33 2192.72 Q1701.42 2193.07 1703.18 2193.76 Z" fill="#000000" fill-rule="evenodd" fill-opacity="1" /><path clip-path="url(#clip490)" d="M1733.52 2204.9 L1733.52 2206.98 L1713.94 2206.98 Q1714.22 2211.38 1716.58 2213.69 Q1718.96 2215.98 1723.2 2215.98 Q1725.65 2215.98 1727.95 2215.38 Q1730.26 2214.78 1732.53 2213.58 L1732.53 2217.6 Q1730.24 2218.58 1727.83 2219.09 Q1725.42 2219.6 1722.95 2219.6 Q1716.74 2219.6 1713.11 2215.98 Q1709.5 2212.37 1709.5 2206.22 Q1709.5 2199.85 1712.92 2196.12 Q1716.37 2192.37 1722.2 2192.37 Q1727.44 2192.37 1730.47 2195.75 Q1733.52 2199.11 1733.52 2204.9 M1729.26 2203.65 Q1729.22 2200.15 1727.3 2198.07 Q1725.4 2195.98 1722.25 2195.98 Q1718.69 2195.98 1716.53 2198 Q1714.4 2200.01 1714.08 2203.67 L1729.26 2203.65 Z" fill="#000000" fill-rule="evenodd" fill-opacity="1" /><path clip-path="url(#clip490)" d="M1757 2214.99 L1764.63 2214.99 L1764.63 2188.62 L1756.32 2190.29 L1756.32 2186.03 L1764.59 2184.36 L1769.26 2184.36 L1769.26 2214.99 L1776.9 2214.99 L1776.9 2218.92 L1757 2218.92 L1757 2214.99 Z" fill="#000000" fill-rule="evenodd" fill-opacity="1" /><path clip-path="url(#clip490)" d="M1820.58 2198.07 L1813.85 2198.07 L1811.9 2205.8 L1818.69 2205.8 L1820.58 2198.07 M1817.11 2184.9 L1814.7 2194.5 L1821.46 2194.5 L1823.89 2184.9 L1827.6 2184.9 L1825.21 2194.5 L1832.44 2194.5 L1832.44 2198.07 L1824.31 2198.07 L1822.41 2205.8 L1829.77 2205.8 L1829.77 2209.34 L1821.51 2209.34 L1819.1 2218.92 L1815.4 2218.92 L1817.78 2209.34 L1811 2209.34 L1808.62 2218.92 L1804.89 2218.92 L1807.3 2209.34 L1800.01 2209.34 L1800.01 2205.8 L1808.15 2205.8 L1810.1 2198.07 L1802.64 2198.07 L1802.64 2194.5 L1811 2194.5 L1813.36 2184.9 L1817.11 2184.9 Z" fill="#000000" fill-rule="evenodd" fill-opacity="1" /><path clip-path="url(#clip490)" d="M1840.54 2193 L1844.8 2193 L1844.8 2218.92 L1840.54 2218.92 L1840.54 2193 M1840.54 2182.91 L1844.8 2182.91 L1844.8 2188.3 L1840.54 2188.3 L1840.54 2182.91 Z" fill="#000000" fill-rule="evenodd" fill-opacity="1" /><path clip-path="url(#clip490)" d="M1857.92 2185.64 L1857.92 2193 L1866.69 2193 L1866.69 2196.31 L1857.92 2196.31 L1857.92 2210.38 Q1857.92 2213.55 1858.78 2214.46 Q1859.66 2215.36 1862.32 2215.36 L1866.69 2215.36 L1866.69 2218.92 L1862.32 2218.92 Q1857.39 2218.92 1855.51 2217.1 Q1853.64 2215.24 1853.64 2210.38 L1853.64 2196.31 L1850.51 2196.31 L1850.51 2193 L1853.64 2193 L1853.64 2185.64 L1857.92 2185.64 Z" fill="#000000" fill-rule="evenodd" fill-opacity="1" /><path clip-path="url(#clip490)" d="M1894.47 2204.9 L1894.47 2206.98 L1874.89 2206.98 Q1875.17 2211.38 1877.53 2213.69 Q1879.91 2215.98 1884.15 2215.98 Q1886.6 2215.98 1888.89 2215.38 Q1891.21 2214.78 1893.48 2213.58 L1893.48 2217.6 Q1891.19 2218.58 1888.78 2219.09 Q1886.37 2219.6 1883.89 2219.6 Q1877.69 2219.6 1874.06 2215.98 Q1870.44 2212.37 1870.44 2206.22 Q1870.44 2199.85 1873.87 2196.12 Q1877.32 2192.37 1883.15 2192.37 Q1888.38 2192.37 1891.42 2195.75 Q1894.47 2199.11 1894.47 2204.9 M1890.21 2203.65 Q1890.17 2200.15 1888.25 2198.07 Q1886.35 2195.98 1883.2 2195.98 Q1879.63 2195.98 1877.48 2198 Q1875.35 2200.01 1875.03 2203.67 L1890.21 2203.65 Z" fill="#000000" fill-rule="evenodd" fill-opacity="1" /><path clip-path="url(#clip490)" d="M1916.49 2196.98 Q1915.77 2196.56 1914.91 2196.38 Q1914.08 2196.17 1913.06 2196.17 Q1909.45 2196.17 1907.5 2198.53 Q1905.58 2200.87 1905.58 2205.27 L1905.58 2218.92 L1901.3 2218.92 L1901.3 2193 L1905.58 2193 L1905.58 2197.03 Q1906.93 2194.66 1909.08 2193.53 Q1911.23 2192.37 1914.31 2192.37 Q1914.75 2192.37 1915.28 2192.44 Q1915.81 2192.49 1916.46 2192.6 L1916.49 2196.98 Z" fill="#000000" fill-rule="evenodd" fill-opacity="1" /><path clip-path="url(#clip490)" d="M1937.48 2193.76 L1937.48 2197.79 Q1935.68 2196.86 1933.73 2196.4 Q1931.79 2195.94 1929.7 2195.94 Q1926.53 2195.94 1924.93 2196.91 Q1923.36 2197.88 1923.36 2199.83 Q1923.36 2201.31 1924.5 2202.16 Q1925.63 2203 1929.06 2203.76 L1930.51 2204.09 Q1935.05 2205.06 1936.95 2206.84 Q1938.87 2208.6 1938.87 2211.77 Q1938.87 2215.38 1936 2217.49 Q1933.15 2219.6 1928.15 2219.6 Q1926.07 2219.6 1923.8 2219.18 Q1921.56 2218.78 1919.06 2217.97 L1919.06 2213.58 Q1921.42 2214.8 1923.71 2215.43 Q1926 2216.03 1928.25 2216.03 Q1931.25 2216.03 1932.87 2215.01 Q1934.5 2213.97 1934.5 2212.1 Q1934.5 2210.36 1933.31 2209.43 Q1932.16 2208.51 1928.2 2207.65 L1926.72 2207.3 Q1922.76 2206.47 1921 2204.76 Q1919.24 2203.02 1919.24 2200.01 Q1919.24 2196.35 1921.83 2194.36 Q1924.43 2192.37 1929.19 2192.37 Q1931.56 2192.37 1933.64 2192.72 Q1935.72 2193.07 1937.48 2193.76 Z" fill="#000000" fill-rule="evenodd" fill-opacity="1" /><polyline clip-path="url(#clip490)" style="stroke:#e26f46; stroke-linecap:round; stroke-linejoin:round; stroke-width:4; stroke-opacity:1; fill:none" points="1363.74,2253.48 1563.93,2253.48 "/>
<path clip-path="url(#clip490)" d="M1601.58 2266.87 L1601.58 2280.62 L1597.3 2280.62 L1597.3 2244.84 L1601.58 2244.84 L1601.58 2248.77 Q1602.92 2246.46 1604.96 2245.35 Q1607.02 2244.21 1609.87 2244.21 Q1614.59 2244.21 1617.53 2247.96 Q1620.49 2251.71 1620.49 2257.82 Q1620.49 2263.94 1617.53 2267.69 Q1614.59 2271.44 1609.87 2271.44 Q1607.02 2271.44 1604.96 2270.32 Q1602.92 2269.19 1601.58 2266.87 M1616.07 2257.82 Q1616.07 2253.13 1614.13 2250.46 Q1612.21 2247.78 1608.83 2247.78 Q1605.45 2247.78 1603.5 2250.46 Q1601.58 2253.13 1601.58 2257.82 Q1601.58 2262.52 1603.5 2265.21 Q1605.45 2267.87 1608.83 2267.87 Q1612.21 2267.87 1614.13 2265.21 Q1616.07 2262.52 1616.07 2257.82 Z" fill="#000000" fill-rule="evenodd" fill-opacity="1" /><path clip-path="url(#clip490)" d="M1649.1 2255.12 L1649.1 2270.76 L1644.84 2270.76 L1644.84 2255.25 Q1644.84 2251.57 1643.41 2249.75 Q1641.97 2247.92 1639.1 2247.92 Q1635.65 2247.92 1633.66 2250.12 Q1631.67 2252.31 1631.67 2256.11 L1631.67 2270.76 L1627.39 2270.76 L1627.39 2234.75 L1631.67 2234.75 L1631.67 2248.87 Q1633.2 2246.53 1635.26 2245.37 Q1637.34 2244.21 1640.05 2244.21 Q1644.52 2244.21 1646.81 2246.99 Q1649.1 2249.75 1649.1 2255.12 Z" fill="#000000" fill-rule="evenodd" fill-opacity="1" /><path clip-path="url(#clip490)" d="M1669.38 2257.73 Q1664.22 2257.73 1662.23 2258.91 Q1660.24 2260.09 1660.24 2262.94 Q1660.24 2265.21 1661.72 2266.55 Q1663.22 2267.87 1665.79 2267.87 Q1669.33 2267.87 1671.46 2265.37 Q1673.62 2262.85 1673.62 2258.68 L1673.62 2257.73 L1669.38 2257.73 M1677.88 2255.97 L1677.88 2270.76 L1673.62 2270.76 L1673.62 2266.83 Q1672.16 2269.19 1669.98 2270.32 Q1667.81 2271.44 1664.66 2271.44 Q1660.68 2271.44 1658.32 2269.21 Q1655.98 2266.97 1655.98 2263.22 Q1655.98 2258.84 1658.89 2256.62 Q1661.83 2254.4 1667.64 2254.4 L1673.62 2254.4 L1673.62 2253.98 Q1673.62 2251.04 1671.67 2249.44 Q1669.75 2247.82 1666.26 2247.82 Q1664.03 2247.82 1661.93 2248.36 Q1659.82 2248.89 1657.88 2249.95 L1657.88 2246.02 Q1660.21 2245.12 1662.41 2244.68 Q1664.61 2244.21 1666.7 2244.21 Q1672.32 2244.21 1675.1 2247.13 Q1677.88 2250.05 1677.88 2255.97 Z" fill="#000000" fill-rule="evenodd" fill-opacity="1" /><path clip-path="url(#clip490)" d="M1703.18 2245.6 L1703.18 2249.63 Q1701.37 2248.7 1699.43 2248.24 Q1697.48 2247.78 1695.4 2247.78 Q1692.23 2247.78 1690.63 2248.75 Q1689.06 2249.72 1689.06 2251.67 Q1689.06 2253.15 1690.19 2254 Q1691.33 2254.84 1694.75 2255.6 L1696.21 2255.93 Q1700.75 2256.9 1702.64 2258.68 Q1704.57 2260.44 1704.57 2263.61 Q1704.57 2267.22 1701.7 2269.33 Q1698.85 2271.44 1693.85 2271.44 Q1691.76 2271.44 1689.5 2271.02 Q1687.25 2270.62 1684.75 2269.81 L1684.75 2265.42 Q1687.11 2266.64 1689.4 2267.27 Q1691.7 2267.87 1693.94 2267.87 Q1696.95 2267.87 1698.57 2266.85 Q1700.19 2265.81 1700.19 2263.94 Q1700.19 2262.2 1699.01 2261.27 Q1697.85 2260.35 1693.89 2259.49 L1692.41 2259.14 Q1688.45 2258.31 1686.7 2256.6 Q1684.94 2254.86 1684.94 2251.85 Q1684.94 2248.19 1687.53 2246.2 Q1690.12 2244.21 1694.89 2244.21 Q1697.25 2244.21 1699.33 2244.56 Q1701.42 2244.91 1703.18 2245.6 Z" fill="#000000" fill-rule="evenodd" fill-opacity="1" /><path clip-path="url(#clip490)" d="M1733.52 2256.74 L1733.52 2258.82 L1713.94 2258.82 Q1714.22 2263.22 1716.58 2265.53 Q1718.96 2267.82 1723.2 2267.82 Q1725.65 2267.82 1727.95 2267.22 Q1730.26 2266.62 1732.53 2265.42 L1732.53 2269.44 Q1730.24 2270.42 1727.83 2270.93 Q1725.42 2271.44 1722.95 2271.44 Q1716.74 2271.44 1713.11 2267.82 Q1709.5 2264.21 1709.5 2258.06 Q1709.5 2251.69 1712.92 2247.96 Q1716.37 2244.21 1722.2 2244.21 Q1727.44 2244.21 1730.47 2247.59 Q1733.52 2250.95 1733.52 2256.74 M1729.26 2255.49 Q1729.22 2251.99 1727.3 2249.91 Q1725.4 2247.82 1722.25 2247.82 Q1718.69 2247.82 1716.53 2249.84 Q1714.4 2251.85 1714.08 2255.51 L1729.26 2255.49 Z" fill="#000000" fill-rule="evenodd" fill-opacity="1" /><path clip-path="url(#clip490)" d="M1760.21 2266.83 L1776.53 2266.83 L1776.53 2270.76 L1754.59 2270.76 L1754.59 2266.83 Q1757.25 2264.07 1761.83 2259.44 Q1766.44 2254.79 1767.62 2253.45 Q1769.87 2250.93 1770.75 2249.19 Q1771.65 2247.43 1771.65 2245.74 Q1771.65 2242.99 1769.7 2241.25 Q1767.78 2239.51 1764.68 2239.51 Q1762.48 2239.51 1760.03 2240.28 Q1757.6 2241.04 1754.82 2242.59 L1754.82 2237.87 Q1757.64 2236.74 1760.1 2236.16 Q1762.55 2235.58 1764.59 2235.58 Q1769.96 2235.58 1773.15 2238.26 Q1776.35 2240.95 1776.35 2245.44 Q1776.35 2247.57 1775.54 2249.49 Q1774.75 2251.39 1772.64 2253.98 Q1772.07 2254.65 1768.96 2257.87 Q1765.86 2261.06 1760.21 2266.83 Z" fill="#000000" fill-rule="evenodd" fill-opacity="1" /><path clip-path="url(#clip490)" d="M1820.58 2249.91 L1813.85 2249.91 L1811.9 2257.64 L1818.69 2257.64 L1820.58 2249.91 M1817.11 2236.74 L1814.7 2246.34 L1821.46 2246.34 L1823.89 2236.74 L1827.6 2236.74 L1825.21 2246.34 L1832.44 2246.34 L1832.44 2249.91 L1824.31 2249.91 L1822.41 2257.64 L1829.77 2257.64 L1829.77 2261.18 L1821.51 2261.18 L1819.1 2270.76 L1815.4 2270.76 L1817.78 2261.18 L1811 2261.18 L1808.62 2270.76 L1804.89 2270.76 L1807.3 2261.18 L1800.01 2261.18 L1800.01 2257.64 L1808.15 2257.64 L1810.1 2249.91 L1802.64 2249.91 L1802.64 2246.34 L1811 2246.34 L1813.36 2236.74 L1817.11 2236.74 Z" fill="#000000" fill-rule="evenodd" fill-opacity="1" /><path clip-path="url(#clip490)" d="M1840.54 2244.84 L1844.8 2244.84 L1844.8 2270.76 L1840.54 2270.76 L1840.54 2244.84 M1840.54 2234.75 L1844.8 2234.75 L1844.8 2240.14 L1840.54 2240.14 L1840.54 2234.75 Z" fill="#000000" fill-rule="evenodd" fill-opacity="1" /><path clip-path="url(#clip490)" d="M1857.92 2237.48 L1857.92 2244.84 L1866.69 2244.84 L1866.69 2248.15 L1857.92 2248.15 L1857.92 2262.22 Q1857.92 2265.39 1858.78 2266.3 Q1859.66 2267.2 1862.32 2267.2 L1866.69 2267.2 L1866.69 2270.76 L1862.32 2270.76 Q1857.39 2270.76 1855.51 2268.94 Q1853.64 2267.08 1853.64 2262.22 L1853.64 2248.15 L1850.51 2248.15 L1850.51 2244.84 L1853.64 2244.84 L1853.64 2237.48 L1857.92 2237.48 Z" fill="#000000" fill-rule="evenodd" fill-opacity="1" /><path clip-path="url(#clip490)" d="M1894.47 2256.74 L1894.47 2258.82 L1874.89 2258.82 Q1875.17 2263.22 1877.53 2265.53 Q1879.91 2267.82 1884.15 2267.82 Q1886.6 2267.82 1888.89 2267.22 Q1891.21 2266.62 1893.48 2265.42 L1893.48 2269.44 Q1891.19 2270.42 1888.78 2270.93 Q1886.37 2271.44 1883.89 2271.44 Q1877.69 2271.44 1874.06 2267.82 Q1870.44 2264.21 1870.44 2258.06 Q1870.44 2251.69 1873.87 2247.96 Q1877.32 2244.21 1883.15 2244.21 Q1888.38 2244.21 1891.42 2247.59 Q1894.47 2250.95 1894.47 2256.74 M1890.21 2255.49 Q1890.17 2251.99 1888.25 2249.91 Q1886.35 2247.82 1883.2 2247.82 Q1879.63 2247.82 1877.48 2249.84 Q1875.35 2251.85 1875.03 2255.51 L1890.21 2255.49 Z" fill="#000000" fill-rule="evenodd" fill-opacity="1" /><path clip-path="url(#clip490)" d="M1916.49 2248.82 Q1915.77 2248.4 1914.91 2248.22 Q1914.08 2248.01 1913.06 2248.01 Q1909.45 2248.01 1907.5 2250.37 Q1905.58 2252.71 1905.58 2257.11 L1905.58 2270.76 L1901.3 2270.76 L1901.3 2244.84 L1905.58 2244.84 L1905.58 2248.87 Q1906.93 2246.5 1909.08 2245.37 Q1911.23 2244.21 1914.31 2244.21 Q1914.75 2244.21 1915.28 2244.28 Q1915.81 2244.33 1916.46 2244.44 L1916.49 2248.82 Z" fill="#000000" fill-rule="evenodd" fill-opacity="1" /><path clip-path="url(#clip490)" d="M1937.48 2245.6 L1937.48 2249.63 Q1935.68 2248.7 1933.73 2248.24 Q1931.79 2247.78 1929.7 2247.78 Q1926.53 2247.78 1924.93 2248.75 Q1923.36 2249.72 1923.36 2251.67 Q1923.36 2253.15 1924.5 2254 Q1925.63 2254.84 1929.06 2255.6 L1930.51 2255.93 Q1935.05 2256.9 1936.95 2258.68 Q1938.87 2260.44 1938.87 2263.61 Q1938.87 2267.22 1936 2269.33 Q1933.15 2271.44 1928.15 2271.44 Q1926.07 2271.44 1923.8 2271.02 Q1921.56 2270.62 1919.06 2269.81 L1919.06 2265.42 Q1921.42 2266.64 1923.71 2267.27 Q1926 2267.87 1928.25 2267.87 Q1931.25 2267.87 1932.87 2266.85 Q1934.5 2265.81 1934.5 2263.94 Q1934.5 2262.2 1933.31 2261.27 Q1932.16 2260.35 1928.2 2259.49 L1926.72 2259.14 Q1922.76 2258.31 1921 2256.6 Q1919.24 2254.86 1919.24 2251.85 Q1919.24 2248.19 1921.83 2246.2 Q1924.43 2244.21 1929.19 2244.21 Q1931.56 2244.21 1933.64 2244.56 Q1935.72 2244.91 1937.48 2245.6 Z" fill="#000000" fill-rule="evenodd" fill-opacity="1" /><polyline clip-path="url(#clip490)" style="stroke:#3da44d; stroke-linecap:round; stroke-linejoin:round; stroke-width:4; stroke-opacity:1; fill:none" points="1363.74,2305.32 1563.93,2305.32 "/>
<path clip-path="url(#clip490)" d="M1619.01 2306.96 L1619.01 2322.6 L1614.75 2322.6 L1614.75 2307.09 Q1614.75 2303.41 1613.32 2301.59 Q1611.88 2299.76 1609.01 2299.76 Q1605.56 2299.76 1603.57 2301.96 Q1601.58 2304.15 1601.58 2307.95 L1601.58 2322.6 L1597.3 2322.6 L1597.3 2296.68 L1601.58 2296.68 L1601.58 2300.71 Q1603.11 2298.37 1605.17 2297.21 Q1607.25 2296.05 1609.96 2296.05 Q1614.43 2296.05 1616.72 2298.83 Q1619.01 2301.59 1619.01 2306.96 Z" fill="#000000" fill-rule="evenodd" fill-opacity="1" /><path clip-path="url(#clip490)" d="M1649.68 2308.58 L1649.68 2310.66 L1630.1 2310.66 Q1630.38 2315.06 1632.74 2317.37 Q1635.12 2319.66 1639.36 2319.66 Q1641.81 2319.66 1644.1 2319.06 Q1646.42 2318.46 1648.69 2317.26 L1648.69 2321.28 Q1646.39 2322.26 1643.99 2322.77 Q1641.58 2323.28 1639.1 2323.28 Q1632.9 2323.28 1629.27 2319.66 Q1625.65 2316.05 1625.65 2309.9 Q1625.65 2303.53 1629.08 2299.8 Q1632.53 2296.05 1638.36 2296.05 Q1643.59 2296.05 1646.63 2299.43 Q1649.68 2302.79 1649.68 2308.58 M1645.42 2307.33 Q1645.38 2303.83 1643.46 2301.75 Q1641.56 2299.66 1638.41 2299.66 Q1634.84 2299.66 1632.69 2301.68 Q1630.56 2303.69 1630.24 2307.35 L1645.42 2307.33 Z" fill="#000000" fill-rule="evenodd" fill-opacity="1" /><path clip-path="url(#clip490)" d="M1660.89 2289.32 L1660.89 2296.68 L1669.66 2296.68 L1669.66 2299.99 L1660.89 2299.99 L1660.89 2314.06 Q1660.89 2317.23 1661.74 2318.14 Q1662.62 2319.04 1665.28 2319.04 L1669.66 2319.04 L1669.66 2322.6 L1665.28 2322.6 Q1660.35 2322.6 1658.48 2320.78 Q1656.6 2318.92 1656.6 2314.06 L1656.6 2299.99 L1653.48 2299.99 L1653.48 2296.68 L1656.6 2296.68 L1656.6 2289.32 L1660.89 2289.32 Z" fill="#000000" fill-rule="evenodd" fill-opacity="1" /><path clip-path="url(#clip490)" d="M1710.1 2301.75 L1703.36 2301.75 L1701.42 2309.48 L1708.2 2309.48 L1710.1 2301.75 M1706.63 2288.58 L1704.22 2298.18 L1710.98 2298.18 L1713.41 2288.58 L1717.11 2288.58 L1714.73 2298.18 L1721.95 2298.18 L1721.95 2301.75 L1713.83 2301.75 L1711.93 2309.48 L1719.29 2309.48 L1719.29 2313.02 L1711.02 2313.02 L1708.62 2322.6 L1704.91 2322.6 L1707.3 2313.02 L1700.51 2313.02 L1698.13 2322.6 L1694.4 2322.6 L1696.81 2313.02 L1689.52 2313.02 L1689.52 2309.48 L1697.67 2309.48 L1699.61 2301.75 L1692.16 2301.75 L1692.16 2298.18 L1700.51 2298.18 L1702.88 2288.58 L1706.63 2288.58 Z" fill="#000000" fill-rule="evenodd" fill-opacity="1" /><path clip-path="url(#clip490)" d="M1730.05 2296.68 L1734.31 2296.68 L1734.31 2322.6 L1730.05 2322.6 L1730.05 2296.68 M1730.05 2286.59 L1734.31 2286.59 L1734.31 2291.98 L1730.05 2291.98 L1730.05 2286.59 Z" fill="#000000" fill-rule="evenodd" fill-opacity="1" /><path clip-path="url(#clip490)" d="M1747.44 2289.32 L1747.44 2296.68 L1756.21 2296.68 L1756.21 2299.99 L1747.44 2299.99 L1747.44 2314.06 Q1747.44 2317.23 1748.29 2318.14 Q1749.17 2319.04 1751.83 2319.04 L1756.21 2319.04 L1756.21 2322.6 L1751.83 2322.6 Q1746.9 2322.6 1745.03 2320.78 Q1743.15 2318.92 1743.15 2314.06 L1743.15 2299.99 L1740.03 2299.99 L1740.03 2296.68 L1743.15 2296.68 L1743.15 2289.32 L1747.44 2289.32 Z" fill="#000000" fill-rule="evenodd" fill-opacity="1" /><path clip-path="url(#clip490)" d="M1783.99 2308.58 L1783.99 2310.66 L1764.4 2310.66 Q1764.68 2315.06 1767.04 2317.37 Q1769.43 2319.66 1773.66 2319.66 Q1776.12 2319.66 1778.41 2319.06 Q1780.72 2318.46 1782.99 2317.26 L1782.99 2321.28 Q1780.7 2322.26 1778.29 2322.77 Q1775.88 2323.28 1773.41 2323.28 Q1767.2 2323.28 1763.57 2319.66 Q1759.96 2316.05 1759.96 2309.9 Q1759.96 2303.53 1763.38 2299.8 Q1766.83 2296.05 1772.67 2296.05 Q1777.9 2296.05 1780.93 2299.43 Q1783.99 2302.79 1783.99 2308.58 M1779.73 2307.33 Q1779.68 2303.83 1777.76 2301.75 Q1775.86 2299.66 1772.71 2299.66 Q1769.15 2299.66 1767 2301.68 Q1764.87 2303.69 1764.54 2307.35 L1779.73 2307.33 Z" fill="#000000" fill-rule="evenodd" fill-opacity="1" /><path clip-path="url(#clip490)" d="M1806 2300.66 Q1805.28 2300.24 1804.43 2300.06 Q1803.59 2299.85 1802.57 2299.85 Q1798.96 2299.85 1797.02 2302.21 Q1795.1 2304.55 1795.1 2308.95 L1795.1 2322.6 L1790.82 2322.6 L1790.82 2296.68 L1795.1 2296.68 L1795.1 2300.71 Q1796.44 2298.34 1798.59 2297.21 Q1800.75 2296.05 1803.82 2296.05 Q1804.26 2296.05 1804.8 2296.12 Q1805.33 2296.17 1805.98 2296.28 L1806 2300.66 Z" fill="#000000" fill-rule="evenodd" fill-opacity="1" /><path clip-path="url(#clip490)" d="M1827 2297.44 L1827 2301.47 Q1825.19 2300.54 1823.25 2300.08 Q1821.3 2299.62 1819.22 2299.62 Q1816.05 2299.62 1814.45 2300.59 Q1812.88 2301.56 1812.88 2303.51 Q1812.88 2304.99 1814.01 2305.84 Q1815.14 2306.68 1818.57 2307.44 L1820.03 2307.77 Q1824.57 2308.74 1826.46 2310.52 Q1828.38 2312.28 1828.38 2315.45 Q1828.38 2319.06 1825.51 2321.17 Q1822.67 2323.28 1817.67 2323.28 Q1815.58 2323.28 1813.32 2322.86 Q1811.07 2322.46 1808.57 2321.65 L1808.57 2317.26 Q1810.93 2318.48 1813.22 2319.11 Q1815.51 2319.71 1817.76 2319.71 Q1820.77 2319.71 1822.39 2318.69 Q1824.01 2317.65 1824.01 2315.78 Q1824.01 2314.04 1822.83 2313.11 Q1821.67 2312.19 1817.71 2311.33 L1816.23 2310.98 Q1812.27 2310.15 1810.51 2308.44 Q1808.76 2306.7 1808.76 2303.69 Q1808.76 2300.03 1811.35 2298.04 Q1813.94 2296.05 1818.71 2296.05 Q1821.07 2296.05 1823.15 2296.4 Q1825.24 2296.75 1827 2297.44 Z" fill="#000000" fill-rule="evenodd" fill-opacity="1" /></svg>
