<?xml version="1.0" encoding="utf-8"?>
<svg xmlns="http://www.w3.org/2000/svg" xmlns:xlink="http://www.w3.org/1999/xlink" width="800" height="640" viewBox="0 0 3200 2560">
<defs>
  <clipPath id="clip100">
    <rect x="0" y="0" width="3200" height="2560"/>
  </clipPath>
</defs>
<path clip-path="url(#clip100)" d="M0 2560 L3200 2560 L3200 0 L0 0  Z" fill="#ffffff" fill-rule="evenodd" fill-opacity="1"/>
<defs>
  <clipPath id="clip101">
    <rect x="640" y="0" width="2241" height="2241"/>
  </clipPath>
</defs>
<path clip-path="url(#clip100)" d="M177.121 2020.69 L3152.76 2020.69 L3152.76 47.2441 L177.121 47.2441  Z" fill="#ffffff" fill-rule="evenodd" fill-opacity="1"/>
<defs>
  <clipPath id="clip102">
    <rect x="177" y="47" width="2977" height="1974"/>
  </clipPath>
</defs>
<polyline clip-path="url(#clip102)" style="stroke:#000000; stroke-linecap:round; stroke-linejoin:round; stroke-width:2; stroke-opacity:0.1; fill:none" points="988.9,2020.69 988.9,47.2441 "/>
<polyline clip-path="url(#clip102)" style="stroke:#000000; stroke-linecap:round; stroke-linejoin:round; stroke-width:2; stroke-opacity:0.1; fill:none" points="2179.82,2020.69 2179.82,47.2441 "/>
<polyline clip-path="url(#clip100)" style="stroke:#000000; stroke-linecap:round; stroke-linejoin:round; stroke-width:4; stroke-opacity:1; fill:none" points="177.121,2020.69 3152.76,2020.69 "/>
<polyline clip-path="url(#clip100)" style="stroke:#000000; stroke-linecap:round; stroke-linejoin:round; stroke-width:4; stroke-opacity:1; fill:none" points="988.9,2020.69 988.9,2004.44 "/>
<polyline clip-path="url(#clip100)" style="stroke:#000000; stroke-linecap:round; stroke-linejoin:round; stroke-width:4; stroke-opacity:1; fill:none" points="2179.82,2020.69 2179.82,2004.44 "/>
<path clip-path="url(#clip100)" d="M954.673 2101.22 L962.312 2101.22 L962.312 2074.85 L954.002 2076.52 L954.002 2072.26 L962.266 2070.59 L966.942 2070.59 L966.942 2101.22 L974.58 2101.22 L974.58 2105.15 L954.673 2105.15 L954.673 2101.22 Z" fill="#000000" fill-rule="evenodd" fill-opacity="1" /><path clip-path="url(#clip100)" d="M994.025 2073.67 Q990.414 2073.67 988.585 2077.24 Q986.779 2080.78 986.779 2087.91 Q986.779 2095.01 988.585 2098.58 Q990.414 2102.12 994.025 2102.12 Q997.659 2102.12 999.465 2098.58 Q1001.29 2095.01 1001.29 2087.91 Q1001.29 2080.78 999.465 2077.24 Q997.659 2073.67 994.025 2073.67 M994.025 2069.97 Q999.835 2069.97 1002.89 2074.57 Q1005.97 2079.16 1005.97 2087.91 Q1005.97 2096.63 1002.89 2101.24 Q999.835 2105.82 994.025 2105.82 Q988.215 2105.82 985.136 2101.24 Q982.08 2096.63 982.08 2087.91 Q982.08 2079.16 985.136 2074.57 Q988.215 2069.97 994.025 2069.97 Z" fill="#000000" fill-rule="evenodd" fill-opacity="1" /><path clip-path="url(#clip100)" d="M1010.54 2074.55 L1023.8 2074.55 L1023.8 2077.74 L1005.97 2077.74 L1005.97 2074.55 Q1008.13 2072.31 1011.86 2068.55 Q1015.6 2064.77 1016.56 2063.67 Q1018.38 2061.62 1019.1 2060.21 Q1019.83 2058.78 1019.83 2057.41 Q1019.83 2055.17 1018.25 2053.76 Q1016.69 2052.35 1014.17 2052.35 Q1012.38 2052.35 1010.39 2052.97 Q1008.41 2053.59 1006.16 2054.85 L1006.16 2051.02 Q1008.45 2050.1 1010.45 2049.63 Q1012.44 2049.15 1014.09 2049.15 Q1018.46 2049.15 1021.05 2051.34 Q1023.65 2053.52 1023.65 2057.17 Q1023.65 2058.9 1022.99 2060.46 Q1022.35 2062 1020.64 2064.11 Q1020.17 2064.65 1017.65 2067.27 Q1015.13 2069.86 1010.54 2074.55 Z" fill="#000000" fill-rule="evenodd" fill-opacity="1" /><path clip-path="url(#clip100)" d="M2144.28 2101.22 L2151.92 2101.22 L2151.92 2074.85 L2143.61 2076.52 L2143.61 2072.26 L2151.87 2070.59 L2156.55 2070.59 L2156.55 2101.22 L2164.19 2101.22 L2164.19 2105.15 L2144.28 2105.15 L2144.28 2101.22 Z" fill="#000000" fill-rule="evenodd" fill-opacity="1" /><path clip-path="url(#clip100)" d="M2183.63 2073.67 Q2180.02 2073.67 2178.19 2077.24 Q2176.38 2080.78 2176.38 2087.91 Q2176.38 2095.01 2178.19 2098.58 Q2180.02 2102.12 2183.63 2102.12 Q2187.26 2102.12 2189.07 2098.58 Q2190.9 2095.01 2190.9 2087.91 Q2190.9 2080.78 2189.07 2077.24 Q2187.26 2073.67 2183.63 2073.67 M2183.63 2069.97 Q2189.44 2069.97 2192.5 2074.57 Q2195.57 2079.16 2195.57 2087.91 Q2195.57 2096.63 2192.5 2101.24 Q2189.44 2105.82 2183.63 2105.82 Q2177.82 2105.82 2174.74 2101.24 Q2171.69 2096.63 2171.69 2087.91 Q2171.69 2079.16 2174.74 2074.57 Q2177.82 2069.97 2183.63 2069.97 Z" fill="#000000" fill-rule="evenodd" fill-opacity="1" /><path clip-path="url(#clip100)" d="M2208.25 2052.97 L2198.66 2067.96 L2208.25 2067.96 L2208.25 2052.97 M2207.25 2049.66 L2212.03 2049.66 L2212.03 2067.96 L2216.04 2067.96 L2216.04 2071.12 L2212.03 2071.12 L2212.03 2077.74 L2208.25 2077.74 L2208.25 2071.12 L2195.57 2071.12 L2195.57 2067.45 L2207.25 2049.66 Z" fill="#000000" fill-rule="evenodd" fill-opacity="1" /><path clip-path="url(#clip100)" d="M1600.09 2174.47 L1600.09 2195.98 L1594.23 2195.98 L1594.23 2174.66 Q1594.23 2169.6 1592.26 2167.08 Q1590.28 2164.57 1586.34 2164.57 Q1581.6 2164.57 1578.86 2167.59 Q1576.12 2170.61 1576.12 2175.83 L1576.12 2195.98 L1570.23 2195.98 L1570.23 2160.33 L1576.12 2160.33 L1576.12 2165.87 Q1578.22 2162.66 1581.05 2161.07 Q1583.92 2159.47 1587.64 2159.47 Q1593.79 2159.47 1596.94 2163.29 Q1600.09 2167.08 1600.09 2174.47 Z" fill="#000000" fill-rule="evenodd" fill-opacity="1" /><path clip-path="url(#clip100)" d="M1656.33 2155.11 L1656.33 2172.84 L1674.06 2172.84 L1674.06 2178.25 L1656.33 2178.25 L1656.33 2195.98 L1650.98 2195.98 L1650.98 2178.25 L1633.25 2178.25 L1633.25 2172.84 L1650.98 2172.84 L1650.98 2155.11 L1656.33 2155.11 Z" fill="#000000" fill-rule="evenodd" fill-opacity="1" /><path clip-path="url(#clip100)" d="M1735.58 2167.18 Q1737.78 2163.23 1740.83 2161.35 Q1743.89 2159.47 1748.03 2159.47 Q1753.6 2159.47 1756.62 2163.39 Q1759.64 2167.27 1759.64 2174.47 L1759.64 2195.98 L1753.76 2195.98 L1753.76 2174.66 Q1753.76 2169.53 1751.94 2167.05 Q1750.13 2164.57 1746.4 2164.57 Q1741.85 2164.57 1739.21 2167.59 Q1736.57 2170.61 1736.57 2175.83 L1736.57 2195.98 L1730.68 2195.98 L1730.68 2174.66 Q1730.68 2169.5 1728.87 2167.05 Q1727.05 2164.57 1723.26 2164.57 Q1718.78 2164.57 1716.13 2167.62 Q1713.49 2170.65 1713.49 2175.83 L1713.49 2195.98 L1707.6 2195.98 L1707.6 2160.33 L1713.49 2160.33 L1713.49 2165.87 Q1715.5 2162.59 1718.3 2161.03 Q1721.1 2159.47 1724.95 2159.47 Q1728.83 2159.47 1731.54 2161.45 Q1734.28 2163.42 1735.58 2167.18 Z" fill="#000000" fill-rule="evenodd" fill-opacity="1" /><polyline clip-path="url(#clip102)" style="stroke:#000000; stroke-linecap:round; stroke-linejoin:round; stroke-width:2; stroke-opacity:0.1; fill:none" points="177.121,1980.89 3152.76,1980.89 "/>
<polyline clip-path="url(#clip102)" style="stroke:#000000; stroke-linecap:round; stroke-linejoin:round; stroke-width:2; stroke-opacity:0.1; fill:none" points="177.121,1579.65 3152.76,1579.65 "/>
<polyline clip-path="url(#clip102)" style="stroke:#000000; stroke-linecap:round; stroke-linejoin:round; stroke-width:2; stroke-opacity:0.1; fill:none" points="177.121,1178.41 3152.76,1178.41 "/>
<polyline clip-path="url(#clip102)" style="stroke:#000000; stroke-linecap:round; stroke-linejoin:round; stroke-width:2; stroke-opacity:0.1; fill:none" points="177.121,777.176 3152.76,777.176 "/>
<polyline clip-path="url(#clip102)" style="stroke:#000000; stroke-linecap:round; stroke-linejoin:round; stroke-width:2; stroke-opacity:0.1; fill:none" points="177.121,375.938 3152.76,375.938 "/>
<polyline clip-path="url(#clip100)" style="stroke:#000000; stroke-linecap:round; stroke-linejoin:round; stroke-width:4; stroke-opacity:1; fill:none" points="177.121,2020.69 177.121,47.2441 "/>
<polyline clip-path="url(#clip100)" style="stroke:#000000; stroke-linecap:round; stroke-linejoin:round; stroke-width:4; stroke-opacity:1; fill:none" points="177.121,1980.89 196.019,1980.89 "/>
<polyline clip-path="url(#clip100)" style="stroke:#000000; stroke-linecap:round; stroke-linejoin:round; stroke-width:4; stroke-opacity:1; fill:none" points="177.121,1579.65 196.019,1579.65 "/>
<polyline clip-path="url(#clip100)" style="stroke:#000000; stroke-linecap:round; stroke-linejoin:round; stroke-width:4; stroke-opacity:1; fill:none" points="177.121,1178.41 196.019,1178.41 "/>
<polyline clip-path="url(#clip100)" style="stroke:#000000; stroke-linecap:round; stroke-linejoin:round; stroke-width:4; stroke-opacity:1; fill:none" points="177.121,777.176 196.019,777.176 "/>
<polyline clip-path="url(#clip100)" style="stroke:#000000; stroke-linecap:round; stroke-linejoin:round; stroke-width:4; stroke-opacity:1; fill:none" points="177.121,375.938 196.019,375.938 "/>
<path clip-path="url(#clip100)" d="M117.177 1966.69 Q113.566 1966.69 111.737 1970.25 Q109.932 1973.8 109.932 1980.93 Q109.932 1988.03 111.737 1991.6 Q113.566 1995.14 117.177 1995.14 Q120.811 1995.14 122.617 1991.6 Q124.445 1988.03 124.445 1980.93 Q124.445 1973.8 122.617 1970.25 Q120.811 1966.69 117.177 1966.69 M117.177 1962.99 Q122.987 1962.99 126.043 1967.59 Q129.121 1972.18 129.121 1980.93 Q129.121 1989.65 126.043 1994.26 Q122.987 1998.84 117.177 1998.84 Q111.367 1998.84 108.288 1994.26 Q105.233 1989.65 105.233 1980.93 Q105.233 1972.18 108.288 1967.59 Q111.367 1962.99 117.177 1962.99 Z" fill="#000000" fill-rule="evenodd" fill-opacity="1" /><path clip-path="url(#clip100)" d="M82.0382 1593 L98.3576 1593 L98.3576 1596.93 L76.4133 1596.93 L76.4133 1593 Q79.0753 1590.24 83.6586 1585.61 Q88.2651 1580.96 89.4456 1579.62 Q91.691 1577.09 92.5706 1575.36 Q93.4734 1573.6 93.4734 1571.91 Q93.4734 1569.15 91.5289 1567.42 Q89.6076 1565.68 86.5058 1565.68 Q84.3067 1565.68 81.8531 1566.45 Q79.4225 1567.21 76.6447 1568.76 L76.6447 1564.04 Q79.4688 1562.9 81.9225 1562.33 Q84.3762 1561.75 86.4132 1561.75 Q91.7836 1561.75 94.978 1564.43 Q98.1724 1567.12 98.1724 1571.61 Q98.1724 1573.74 97.3622 1575.66 Q96.5752 1577.56 94.4687 1580.15 Q93.89 1580.82 90.7882 1584.04 Q87.6864 1587.23 82.0382 1593 Z" fill="#000000" fill-rule="evenodd" fill-opacity="1" /><path clip-path="url(#clip100)" d="M108.219 1562.37 L126.575 1562.37 L126.575 1566.31 L112.501 1566.31 L112.501 1574.78 Q113.52 1574.43 114.538 1574.27 Q115.557 1574.09 116.575 1574.09 Q122.362 1574.09 125.742 1577.26 Q129.121 1580.43 129.121 1585.84 Q129.121 1591.42 125.649 1594.52 Q122.177 1597.6 115.857 1597.6 Q113.682 1597.6 111.413 1597.23 Q109.168 1596.86 106.76 1596.12 L106.76 1591.42 Q108.844 1592.56 111.066 1593.11 Q113.288 1593.67 115.765 1593.67 Q119.77 1593.67 122.107 1591.56 Q124.445 1589.46 124.445 1585.84 Q124.445 1582.23 122.107 1580.13 Q119.77 1578.02 115.765 1578.02 Q113.89 1578.02 112.015 1578.44 Q110.163 1578.85 108.219 1579.73 L108.219 1562.37 Z" fill="#000000" fill-rule="evenodd" fill-opacity="1" /><path clip-path="url(#clip100)" d="M77.0614 1161.13 L95.4178 1161.13 L95.4178 1165.07 L81.3438 1165.07 L81.3438 1173.54 Q82.3623 1173.19 83.3808 1173.03 Q84.3993 1172.85 85.4178 1172.85 Q91.2049 1172.85 94.5845 1176.02 Q97.9641 1179.19 97.9641 1184.61 Q97.9641 1190.19 94.4919 1193.29 Q91.0197 1196.37 84.7003 1196.37 Q82.5243 1196.37 80.2558 1196 Q78.0105 1195.62 75.6031 1194.88 L75.6031 1190.19 Q77.6864 1191.32 79.9086 1191.87 Q82.1308 1192.43 84.6077 1192.43 Q88.6123 1192.43 90.9502 1190.32 Q93.2882 1188.22 93.2882 1184.61 Q93.2882 1181 90.9502 1178.89 Q88.6123 1176.78 84.6077 1176.78 Q82.7327 1176.78 80.8577 1177.2 Q79.0058 1177.62 77.0614 1178.5 L77.0614 1161.13 Z" fill="#000000" fill-rule="evenodd" fill-opacity="1" /><path clip-path="url(#clip100)" d="M117.177 1164.21 Q113.566 1164.21 111.737 1167.78 Q109.932 1171.32 109.932 1178.45 Q109.932 1185.56 111.737 1189.12 Q113.566 1192.66 117.177 1192.66 Q120.811 1192.66 122.617 1189.12 Q124.445 1185.56 124.445 1178.45 Q124.445 1171.32 122.617 1167.78 Q120.811 1164.21 117.177 1164.21 M117.177 1160.51 Q122.987 1160.51 126.043 1165.12 Q129.121 1169.7 129.121 1178.45 Q129.121 1187.18 126.043 1191.78 Q122.987 1196.37 117.177 1196.37 Q111.367 1196.37 108.288 1191.78 Q105.233 1187.18 105.233 1178.45 Q105.233 1169.7 108.288 1165.12 Q111.367 1160.51 117.177 1160.51 Z" fill="#000000" fill-rule="evenodd" fill-opacity="1" /><path clip-path="url(#clip100)" d="M76.8299 759.896 L99.052 759.896 L99.052 761.887 L86.5058 794.456 L81.6216 794.456 L93.4271 763.831 L76.8299 763.831 L76.8299 759.896 Z" fill="#000000" fill-rule="evenodd" fill-opacity="1" /><path clip-path="url(#clip100)" d="M108.219 759.896 L126.575 759.896 L126.575 763.831 L112.501 763.831 L112.501 772.304 Q113.52 771.956 114.538 771.794 Q115.557 771.609 116.575 771.609 Q122.362 771.609 125.742 774.78 Q129.121 777.952 129.121 783.368 Q129.121 788.947 125.649 792.049 Q122.177 795.128 115.857 795.128 Q113.682 795.128 111.413 794.757 Q109.168 794.387 106.76 793.646 L106.76 788.947 Q108.844 790.081 111.066 790.637 Q113.288 791.192 115.765 791.192 Q119.77 791.192 122.107 789.086 Q124.445 786.98 124.445 783.368 Q124.445 779.757 122.107 777.651 Q119.77 775.544 115.765 775.544 Q113.89 775.544 112.015 775.961 Q110.163 776.378 108.219 777.257 L108.219 759.896 Z" fill="#000000" fill-rule="evenodd" fill-opacity="1" /><path clip-path="url(#clip100)" d="M47.6634 389.283 L55.3023 389.283 L55.3023 362.918 L46.9921 364.584 L46.9921 360.325 L55.256 358.658 L59.9319 358.658 L59.9319 389.283 L67.5707 389.283 L67.5707 393.218 L47.6634 393.218 L47.6634 389.283 Z" fill="#000000" fill-rule="evenodd" fill-opacity="1" /><path clip-path="url(#clip100)" d="M87.0151 361.737 Q83.404 361.737 81.5753 365.302 Q79.7697 368.843 79.7697 375.973 Q79.7697 383.079 81.5753 386.644 Q83.404 390.186 87.0151 390.186 Q90.6493 390.186 92.4548 386.644 Q94.2835 383.079 94.2835 375.973 Q94.2835 368.843 92.4548 365.302 Q90.6493 361.737 87.0151 361.737 M87.0151 358.033 Q92.8252 358.033 95.8808 362.64 Q98.9594 367.223 98.9594 375.973 Q98.9594 384.7 95.8808 389.306 Q92.8252 393.89 87.0151 393.89 Q81.2049 393.89 78.1262 389.306 Q75.0707 384.7 75.0707 375.973 Q75.0707 367.223 78.1262 362.64 Q81.2049 358.033 87.0151 358.033 Z" fill="#000000" fill-rule="evenodd" fill-opacity="1" /><path clip-path="url(#clip100)" d="M117.177 361.737 Q113.566 361.737 111.737 365.302 Q109.932 368.843 109.932 375.973 Q109.932 383.079 111.737 386.644 Q113.566 390.186 117.177 390.186 Q120.811 390.186 122.617 386.644 Q124.445 383.079 124.445 375.973 Q124.445 368.843 122.617 365.302 Q120.811 361.737 117.177 361.737 M117.177 358.033 Q122.987 358.033 126.043 362.64 Q129.121 367.223 129.121 375.973 Q129.121 384.7 126.043 389.306 Q122.987 393.89 117.177 393.89 Q111.367 393.89 108.288 389.306 Q105.233 384.7 105.233 375.973 Q105.233 367.223 108.288 362.64 Q111.367 358.033 117.177 358.033 Z" fill="#000000" fill-rule="evenodd" fill-opacity="1" /><polyline clip-path="url(#clip102)" style="stroke:#009af9; stroke-linecap:round; stroke-linejoin:round; stroke-width:4; stroke-opacity:1; fill:none" points="261.337,1964.84 366.193,1964.84 461.288,1932.74 694.237,1916.69 1150.77,1900.64 1242.87,1900.64 1388.56,1900.64 1610.18,1884.59 1691.45,1884.59 1821.73,1868.54 1912.87,1852.49 2054.06,1852.49 2066.86,1852.49 2365.56,1804.35 2742.79,1804.35 2907.97,1708.05 3068.54,1756.2 "/>
<circle clip-path="url(#clip102)" cx="261.337" cy="1964.84" r="14.4" fill="#009af9" fill-rule="evenodd" fill-opacity="1" stroke="#000000" stroke-opacity="1" stroke-width="5.12"/>
<circle clip-path="url(#clip102)" cx="366.193" cy="1964.84" r="14.4" fill="#009af9" fill-rule="evenodd" fill-opacity="1" stroke="#000000" stroke-opacity="1" stroke-width="5.12"/>
<circle clip-path="url(#clip102)" cx="461.288" cy="1932.74" r="14.4" fill="#009af9" fill-rule="evenodd" fill-opacity="1" stroke="#000000" stroke-opacity="1" stroke-width="5.12"/>
<circle clip-path="url(#clip102)" cx="694.237" cy="1916.69" r="14.4" fill="#009af9" fill-rule="evenodd" fill-opacity="1" stroke="#000000" stroke-opacity="1" stroke-width="5.12"/>
<circle clip-path="url(#clip102)" cx="1150.77" cy="1900.64" r="14.4" fill="#009af9" fill-rule="evenodd" fill-opacity="1" stroke="#000000" stroke-opacity="1" stroke-width="5.12"/>
<circle clip-path="url(#clip102)" cx="1242.87" cy="1900.64" r="14.4" fill="#009af9" fill-rule="evenodd" fill-opacity="1" stroke="#000000" stroke-opacity="1" stroke-width="5.12"/>
<circle clip-path="url(#clip102)" cx="1388.56" cy="1900.64" r="14.4" fill="#009af9" fill-rule="evenodd" fill-opacity="1" stroke="#000000" stroke-opacity="1" stroke-width="5.12"/>
<circle clip-path="url(#clip102)" cx="1610.18" cy="1884.59" r="14.4" fill="#009af9" fill-rule="evenodd" fill-opacity="1" stroke="#000000" stroke-opacity="1" stroke-width="5.12"/>
<circle clip-path="url(#clip102)" cx="1691.45" cy="1884.59" r="14.4" fill="#009af9" fill-rule="evenodd" fill-opacity="1" stroke="#000000" stroke-opacity="1" stroke-width="5.12"/>
<circle clip-path="url(#clip102)" cx="1821.73" cy="1868.54" r="14.4" fill="#009af9" fill-rule="evenodd" fill-opacity="1" stroke="#000000" stroke-opacity="1" stroke-width="5.12"/>
<circle clip-path="url(#clip102)" cx="1912.87" cy="1852.49" r="14.4" fill="#009af9" fill-rule="evenodd" fill-opacity="1" stroke="#000000" stroke-opacity="1" stroke-width="5.12"/>
<circle clip-path="url(#clip102)" cx="2054.06" cy="1852.49" r="14.4" fill="#009af9" fill-rule="evenodd" fill-opacity="1" stroke="#000000" stroke-opacity="1" stroke-width="5.12"/>
<circle clip-path="url(#clip102)" cx="2066.86" cy="1852.49" r="14.4" fill="#009af9" fill-rule="evenodd" fill-opacity="1" stroke="#000000" stroke-opacity="1" stroke-width="5.12"/>
<circle clip-path="url(#clip102)" cx="2365.56" cy="1804.35" r="14.4" fill="#009af9" fill-rule="evenodd" fill-opacity="1" stroke="#000000" stroke-opacity="1" stroke-width="5.12"/>
<circle clip-path="url(#clip102)" cx="2742.79" cy="1804.35" r="14.4" fill="#009af9" fill-rule="evenodd" fill-opacity="1" stroke="#000000" stroke-opacity="1" stroke-width="5.12"/>
<circle clip-path="url(#clip102)" cx="2907.97" cy="1708.05" r="14.4" fill="#009af9" fill-rule="evenodd" fill-opacity="1" stroke="#000000" stroke-opacity="1" stroke-width="5.12"/>
<circle clip-path="url(#clip102)" cx="3068.54" cy="1756.2" r="14.4" fill="#009af9" fill-rule="evenodd" fill-opacity="1" stroke="#000000" stroke-opacity="1" stroke-width="5.12"/>
<polyline clip-path="url(#clip102)" style="stroke:#e26f46; stroke-linecap:round; stroke-linejoin:round; stroke-width:4; stroke-opacity:1; fill:none" points="261.337,1932.74 366.193,1916.69 461.288,1675.95 694.237,1595.7 1150.77,1467.31 1242.87,1499.4 1388.56,1419.16 1610.18,1435.21 1691.45,1354.96 1821.73,1290.76 1912.87,1290.76 2054.06,1371.01 2066.86,1290.76 2365.56,1178.41 2742.79,889.523 2907.97,375.938 3068.54,375.938 "/>
<circle clip-path="url(#clip102)" cx="261.337" cy="1932.74" r="14.4" fill="#e26f46" fill-rule="evenodd" fill-opacity="1" stroke="#000000" stroke-opacity="1" stroke-width="5.12"/>
<circle clip-path="url(#clip102)" cx="366.193" cy="1916.69" r="14.4" fill="#e26f46" fill-rule="evenodd" fill-opacity="1" stroke="#000000" stroke-opacity="1" stroke-width="5.12"/>
<circle clip-path="url(#clip102)" cx="461.288" cy="1675.95" r="14.4" fill="#e26f46" fill-rule="evenodd" fill-opacity="1" stroke="#000000" stroke-opacity="1" stroke-width="5.12"/>
<circle clip-path="url(#clip102)" cx="694.237" cy="1595.7" r="14.4" fill="#e26f46" fill-rule="evenodd" fill-opacity="1" stroke="#000000" stroke-opacity="1" stroke-width="5.12"/>
<circle clip-path="url(#clip102)" cx="1150.77" cy="1467.31" r="14.4" fill="#e26f46" fill-rule="evenodd" fill-opacity="1" stroke="#000000" stroke-opacity="1" stroke-width="5.12"/>
<circle clip-path="url(#clip102)" cx="1242.87" cy="1499.4" r="14.4" fill="#e26f46" fill-rule="evenodd" fill-opacity="1" stroke="#000000" stroke-opacity="1" stroke-width="5.12"/>
<circle clip-path="url(#clip102)" cx="1388.56" cy="1419.16" r="14.4" fill="#e26f46" fill-rule="evenodd" fill-opacity="1" stroke="#000000" stroke-opacity="1" stroke-width="5.12"/>
<circle clip-path="url(#clip102)" cx="1610.18" cy="1435.21" r="14.4" fill="#e26f46" fill-rule="evenodd" fill-opacity="1" stroke="#000000" stroke-opacity="1" stroke-width="5.12"/>
<circle clip-path="url(#clip102)" cx="1691.45" cy="1354.96" r="14.4" fill="#e26f46" fill-rule="evenodd" fill-opacity="1" stroke="#000000" stroke-opacity="1" stroke-width="5.12"/>
<circle clip-path="url(#clip102)" cx="1821.73" cy="1290.76" r="14.4" fill="#e26f46" fill-rule="evenodd" fill-opacity="1" stroke="#000000" stroke-opacity="1" stroke-width="5.12"/>
<circle clip-path="url(#clip102)" cx="1912.87" cy="1290.76" r="14.4" fill="#e26f46" fill-rule="evenodd" fill-opacity="1" stroke="#000000" stroke-opacity="1" stroke-width="5.12"/>
<circle clip-path="url(#clip102)" cx="2054.06" cy="1371.01" r="14.4" fill="#e26f46" fill-rule="evenodd" fill-opacity="1" stroke="#000000" stroke-opacity="1" stroke-width="5.12"/>
<circle clip-path="url(#clip102)" cx="2066.86" cy="1290.76" r="14.4" fill="#e26f46" fill-rule="evenodd" fill-opacity="1" stroke="#000000" stroke-opacity="1" stroke-width="5.12"/>
<circle clip-path="url(#clip102)" cx="2365.56" cy="1178.41" r="14.4" fill="#e26f46" fill-rule="evenodd" fill-opacity="1" stroke="#000000" stroke-opacity="1" stroke-width="5.12"/>
<circle clip-path="url(#clip102)" cx="2742.79" cy="889.523" r="14.4" fill="#e26f46" fill-rule="evenodd" fill-opacity="1" stroke="#000000" stroke-opacity="1" stroke-width="5.12"/>
<circle clip-path="url(#clip102)" cx="2907.97" cy="375.938" r="14.4" fill="#e26f46" fill-rule="evenodd" fill-opacity="1" stroke="#000000" stroke-opacity="1" stroke-width="5.12"/>
<circle clip-path="url(#clip102)" cx="3068.54" cy="375.938" r="14.4" fill="#e26f46" fill-rule="evenodd" fill-opacity="1" stroke="#000000" stroke-opacity="1" stroke-width="5.12"/>
<polyline clip-path="url(#clip102)" style="stroke:#3da44d; stroke-linecap:round; stroke-linejoin:round; stroke-width:4; stroke-opacity:1; fill:none" points="261.337,1916.69 366.193,1900.64 461.288,1627.8 694.237,1531.5 1150.77,1387.06 1242.87,1419.16 1388.56,1338.91 1610.18,1338.91 1691.45,1258.66 1821.73,1178.41 1912.87,1162.36 2054.06,1242.61 2066.86,1162.36 2365.56,1001.87 2742.79,712.978 2907.97,103.096 3068.54,151.245 "/>
<circle clip-path="url(#clip102)" cx="261.337" cy="1916.69" r="14.4" fill="#3da44d" fill-rule="evenodd" fill-opacity="1" stroke="#000000" stroke-opacity="1" stroke-width="5.12"/>
<circle clip-path="url(#clip102)" cx="366.193" cy="1900.64" r="14.4" fill="#3da44d" fill-rule="evenodd" fill-opacity="1" stroke="#000000" stroke-opacity="1" stroke-width="5.12"/>
<circle clip-path="url(#clip102)" cx="461.288" cy="1627.8" r="14.4" fill="#3da44d" fill-rule="evenodd" fill-opacity="1" stroke="#000000" stroke-opacity="1" stroke-width="5.12"/>
<circle clip-path="url(#clip102)" cx="694.237" cy="1531.5" r="14.4" fill="#3da44d" fill-rule="evenodd" fill-opacity="1" stroke="#000000" stroke-opacity="1" stroke-width="5.12"/>
<circle clip-path="url(#clip102)" cx="1150.77" cy="1387.06" r="14.4" fill="#3da44d" fill-rule="evenodd" fill-opacity="1" stroke="#000000" stroke-opacity="1" stroke-width="5.12"/>
<circle clip-path="url(#clip102)" cx="1242.87" cy="1419.16" r="14.4" fill="#3da44d" fill-rule="evenodd" fill-opacity="1" stroke="#000000" stroke-opacity="1" stroke-width="5.12"/>
<circle clip-path="url(#clip102)" cx="1388.56" cy="1338.91" r="14.4" fill="#3da44d" fill-rule="evenodd" fill-opacity="1" stroke="#000000" stroke-opacity="1" stroke-width="5.12"/>
<circle clip-path="url(#clip102)" cx="1610.18" cy="1338.91" r="14.4" fill="#3da44d" fill-rule="evenodd" fill-opacity="1" stroke="#000000" stroke-opacity="1" stroke-width="5.12"/>
<circle clip-path="url(#clip102)" cx="1691.45" cy="1258.66" r="14.4" fill="#3da44d" fill-rule="evenodd" fill-opacity="1" stroke="#000000" stroke-opacity="1" stroke-width="5.12"/>
<circle clip-path="url(#clip102)" cx="1821.73" cy="1178.41" r="14.4" fill="#3da44d" fill-rule="evenodd" fill-opacity="1" stroke="#000000" stroke-opacity="1" stroke-width="5.12"/>
<circle clip-path="url(#clip102)" cx="1912.87" cy="1162.36" r="14.4" fill="#3da44d" fill-rule="evenodd" fill-opacity="1" stroke="#000000" stroke-opacity="1" stroke-width="5.12"/>
<circle clip-path="url(#clip102)" cx="2054.06" cy="1242.61" r="14.4" fill="#3da44d" fill-rule="evenodd" fill-opacity="1" stroke="#000000" stroke-opacity="1" stroke-width="5.12"/>
<circle clip-path="url(#clip102)" cx="2066.86" cy="1162.36" r="14.4" fill="#3da44d" fill-rule="evenodd" fill-opacity="1" stroke="#000000" stroke-opacity="1" stroke-width="5.12"/>
<circle clip-path="url(#clip102)" cx="2365.56" cy="1001.87" r="14.4" fill="#3da44d" fill-rule="evenodd" fill-opacity="1" stroke="#000000" stroke-opacity="1" stroke-width="5.12"/>
<circle clip-path="url(#clip102)" cx="2742.79" cy="712.978" r="14.4" fill="#3da44d" fill-rule="evenodd" fill-opacity="1" stroke="#000000" stroke-opacity="1" stroke-width="5.12"/>
<circle clip-path="url(#clip102)" cx="2907.97" cy="103.096" r="14.4" fill="#3da44d" fill-rule="evenodd" fill-opacity="1" stroke="#000000" stroke-opacity="1" stroke-width="5.12"/>
<circle clip-path="url(#clip102)" cx="3068.54" cy="151.245" r="14.4" fill="#3da44d" fill-rule="evenodd" fill-opacity="1" stroke="#000000" stroke-opacity="1" stroke-width="5.12"/>
<polyline clip-path="url(#clip102)" style="stroke:#c271d2; stroke-linecap:round; stroke-linejoin:round; stroke-width:4; stroke-opacity:1; fill:none" points="-2798.51,375.938 6128.39,375.938 "/>
<path clip-path="url(#clip100)" d="M436.261 2342.42 L2893.62 2342.42 L2893.62 2238.74 L436.261 2238.74  Z" fill="#ffffff" fill-rule="evenodd" fill-opacity="1"/>
<polyline clip-path="url(#clip100)" style="stroke:#000000; stroke-linecap:round; stroke-linejoin:round; stroke-width:4; stroke-opacity:1; fill:none" points="436.261,2342.42 2893.62,2342.42 2893.62,2238.74 436.261,2238.74 436.261,2342.42 "/>
<polyline clip-path="url(#clip100)" style="stroke:#009af9; stroke-linecap:round; stroke-linejoin:round; stroke-width:4; stroke-opacity:1; fill:none" points="469.324,2290.58 667.699,2290.58 "/>
<path clip-path="url(#clip100)" d="M705.044 2303.98 L705.044 2317.73 L700.762 2317.73 L700.762 2281.94 L705.044 2281.94 L705.044 2285.87 Q706.387 2283.56 708.424 2282.45 Q710.484 2281.31 713.331 2281.31 Q718.054 2281.31 720.993 2285.06 Q723.956 2288.81 723.956 2294.92 Q723.956 2301.04 720.993 2304.79 Q718.054 2308.54 713.331 2308.54 Q710.484 2308.54 708.424 2307.42 Q706.387 2306.29 705.044 2303.98 M719.535 2294.92 Q719.535 2290.23 717.591 2287.56 Q715.669 2284.88 712.29 2284.88 Q708.91 2284.88 706.966 2287.56 Q705.044 2290.23 705.044 2294.92 Q705.044 2299.62 706.966 2302.31 Q708.91 2304.97 712.29 2304.97 Q715.669 2304.97 717.591 2302.31 Q719.535 2299.62 719.535 2294.92 Z" fill="#000000" fill-rule="evenodd" fill-opacity="1" /><path clip-path="url(#clip100)" d="M752.567 2292.22 L752.567 2307.86 L748.308 2307.86 L748.308 2292.35 Q748.308 2288.67 746.873 2286.85 Q745.438 2285.02 742.567 2285.02 Q739.118 2285.02 737.128 2287.22 Q735.137 2289.42 735.137 2293.21 L735.137 2307.86 L730.854 2307.86 L730.854 2271.85 L735.137 2271.85 L735.137 2285.97 Q736.665 2283.63 738.725 2282.47 Q740.808 2281.31 743.516 2281.31 Q747.984 2281.31 750.276 2284.09 Q752.567 2286.85 752.567 2292.22 Z" fill="#000000" fill-rule="evenodd" fill-opacity="1" /><path clip-path="url(#clip100)" d="M772.845 2294.83 Q767.683 2294.83 765.692 2296.01 Q763.701 2297.19 763.701 2300.04 Q763.701 2302.31 765.183 2303.65 Q766.688 2304.97 769.257 2304.97 Q772.799 2304.97 774.928 2302.47 Q777.081 2299.95 777.081 2295.78 L777.081 2294.83 L772.845 2294.83 M781.34 2293.07 L781.34 2307.86 L777.081 2307.86 L777.081 2303.93 Q775.623 2306.29 773.447 2307.42 Q771.271 2308.54 768.123 2308.54 Q764.141 2308.54 761.78 2306.31 Q759.442 2304.07 759.442 2300.32 Q759.442 2295.94 762.359 2293.72 Q765.299 2291.5 771.109 2291.5 L777.081 2291.5 L777.081 2291.08 Q777.081 2288.14 775.137 2286.54 Q773.215 2284.92 769.72 2284.92 Q767.498 2284.92 765.391 2285.46 Q763.285 2285.99 761.34 2287.05 L761.34 2283.12 Q763.678 2282.22 765.877 2281.78 Q768.076 2281.31 770.16 2281.31 Q775.785 2281.31 778.562 2284.23 Q781.34 2287.15 781.34 2293.07 Z" fill="#000000" fill-rule="evenodd" fill-opacity="1" /><path clip-path="url(#clip100)" d="M806.641 2282.7 L806.641 2286.73 Q804.835 2285.8 802.891 2285.34 Q800.947 2284.88 798.863 2284.88 Q795.692 2284.88 794.095 2285.85 Q792.521 2286.82 792.521 2288.77 Q792.521 2290.25 793.655 2291.1 Q794.789 2291.94 798.215 2292.7 L799.673 2293.03 Q804.21 2294 806.109 2295.78 Q808.03 2297.54 808.03 2300.71 Q808.03 2304.32 805.16 2306.43 Q802.312 2308.54 797.312 2308.54 Q795.229 2308.54 792.961 2308.12 Q790.715 2307.73 788.215 2306.91 L788.215 2302.52 Q790.576 2303.74 792.868 2304.37 Q795.16 2304.97 797.405 2304.97 Q800.414 2304.97 802.035 2303.95 Q803.655 2302.91 803.655 2301.04 Q803.655 2299.3 802.474 2298.37 Q801.317 2297.45 797.359 2296.59 L795.877 2296.24 Q791.919 2295.41 790.16 2293.7 Q788.4 2291.96 788.4 2288.95 Q788.4 2285.29 790.993 2283.3 Q793.586 2281.31 798.354 2281.31 Q800.715 2281.31 802.798 2281.66 Q804.882 2282.01 806.641 2282.7 Z" fill="#000000" fill-rule="evenodd" fill-opacity="1" /><path clip-path="url(#clip100)" d="M836.988 2293.84 L836.988 2295.92 L817.405 2295.92 Q817.683 2300.32 820.044 2302.63 Q822.428 2304.92 826.664 2304.92 Q829.118 2304.92 831.409 2304.32 Q833.724 2303.72 835.993 2302.52 L835.993 2306.54 Q833.701 2307.52 831.294 2308.03 Q828.886 2308.54 826.409 2308.54 Q820.206 2308.54 816.572 2304.92 Q812.96 2301.31 812.96 2295.16 Q812.96 2288.79 816.386 2285.06 Q819.835 2281.31 825.669 2281.31 Q830.9 2281.31 833.933 2284.69 Q836.988 2288.05 836.988 2293.84 M832.729 2292.59 Q832.683 2289.09 830.761 2287.01 Q828.863 2284.92 825.715 2284.92 Q822.15 2284.92 819.997 2286.94 Q817.868 2288.95 817.544 2292.61 L832.729 2292.59 Z" fill="#000000" fill-rule="evenodd" fill-opacity="1" /><path clip-path="url(#clip100)" d="M860.46 2303.93 L868.099 2303.93 L868.099 2277.56 L859.789 2279.23 L859.789 2274.97 L868.053 2273.3 L872.729 2273.3 L872.729 2303.93 L880.367 2303.93 L880.367 2307.86 L860.46 2307.86 L860.46 2303.93 Z" fill="#000000" fill-rule="evenodd" fill-opacity="1" /><path clip-path="url(#clip100)" d="M924.048 2287.01 L917.312 2287.01 L915.367 2294.74 L922.15 2294.74 L924.048 2287.01 M920.576 2273.84 L918.168 2283.44 L924.927 2283.44 L927.358 2273.84 L931.062 2273.84 L928.677 2283.44 L935.9 2283.44 L935.9 2287.01 L927.775 2287.01 L925.877 2294.74 L933.238 2294.74 L933.238 2298.28 L924.974 2298.28 L922.566 2307.86 L918.863 2307.86 L921.247 2298.28 L914.465 2298.28 L912.08 2307.86 L908.353 2307.86 L910.761 2298.28 L903.469 2298.28 L903.469 2294.74 L911.617 2294.74 L913.562 2287.01 L906.108 2287.01 L906.108 2283.44 L914.465 2283.44 L916.826 2273.84 L920.576 2273.84 Z" fill="#000000" fill-rule="evenodd" fill-opacity="1" /><path clip-path="url(#clip100)" d="M944.001 2281.94 L948.261 2281.94 L948.261 2307.86 L944.001 2307.86 L944.001 2281.94 M944.001 2271.85 L948.261 2271.85 L948.261 2277.24 L944.001 2277.24 L944.001 2271.85 Z" fill="#000000" fill-rule="evenodd" fill-opacity="1" /><path clip-path="url(#clip100)" d="M961.386 2274.58 L961.386 2281.94 L970.159 2281.94 L970.159 2285.25 L961.386 2285.25 L961.386 2299.32 Q961.386 2302.49 962.242 2303.4 Q963.122 2304.3 965.784 2304.3 L970.159 2304.3 L970.159 2307.86 L965.784 2307.86 Q960.853 2307.86 958.978 2306.04 Q957.103 2304.18 957.103 2299.32 L957.103 2285.25 L953.978 2285.25 L953.978 2281.94 L957.103 2281.94 L957.103 2274.58 L961.386 2274.58 Z" fill="#000000" fill-rule="evenodd" fill-opacity="1" /><path clip-path="url(#clip100)" d="M997.936 2293.84 L997.936 2295.92 L978.353 2295.92 Q978.631 2300.32 980.992 2302.63 Q983.376 2304.92 987.612 2304.92 Q990.066 2304.92 992.358 2304.32 Q994.672 2303.72 996.941 2302.52 L996.941 2306.54 Q994.649 2307.52 992.242 2308.03 Q989.834 2308.54 987.358 2308.54 Q981.154 2308.54 977.52 2304.92 Q973.909 2301.31 973.909 2295.16 Q973.909 2288.79 977.335 2285.06 Q980.784 2281.31 986.617 2281.31 Q991.848 2281.31 994.881 2284.69 Q997.936 2288.05 997.936 2293.84 M993.677 2292.59 Q993.631 2289.09 991.709 2287.01 Q989.811 2284.92 986.663 2284.92 Q983.098 2284.92 980.946 2286.94 Q978.816 2288.95 978.492 2292.61 L993.677 2292.59 Z" fill="#000000" fill-rule="evenodd" fill-opacity="1" /><path clip-path="url(#clip100)" d="M1019.95 2285.92 Q1019.23 2285.5 1018.38 2285.32 Q1017.54 2285.11 1016.52 2285.11 Q1012.91 2285.11 1010.97 2287.47 Q1009.05 2289.81 1009.05 2294.21 L1009.05 2307.86 L1004.76 2307.86 L1004.76 2281.94 L1009.05 2281.94 L1009.05 2285.97 Q1010.39 2283.6 1012.54 2282.47 Q1014.7 2281.31 1017.77 2281.31 Q1018.21 2281.31 1018.75 2281.38 Q1019.28 2281.43 1019.93 2281.54 L1019.95 2285.92 Z" fill="#000000" fill-rule="evenodd" fill-opacity="1" /><path clip-path="url(#clip100)" d="M1040.95 2282.7 L1040.95 2286.73 Q1039.14 2285.8 1037.2 2285.34 Q1035.25 2284.88 1033.17 2284.88 Q1030 2284.88 1028.4 2285.85 Q1026.83 2286.82 1026.83 2288.77 Q1026.83 2290.25 1027.96 2291.1 Q1029.09 2291.94 1032.52 2292.7 L1033.98 2293.03 Q1038.51 2294 1040.41 2295.78 Q1042.33 2297.54 1042.33 2300.71 Q1042.33 2304.32 1039.46 2306.43 Q1036.62 2308.54 1031.62 2308.54 Q1029.53 2308.54 1027.26 2308.12 Q1025.02 2307.73 1022.52 2306.91 L1022.52 2302.52 Q1024.88 2303.74 1027.17 2304.37 Q1029.46 2304.97 1031.71 2304.97 Q1034.72 2304.97 1036.34 2303.95 Q1037.96 2302.91 1037.96 2301.04 Q1037.96 2299.3 1036.78 2298.37 Q1035.62 2297.45 1031.66 2296.59 L1030.18 2296.24 Q1026.22 2295.41 1024.46 2293.7 Q1022.7 2291.96 1022.7 2288.95 Q1022.7 2285.29 1025.3 2283.3 Q1027.89 2281.31 1032.66 2281.31 Q1035.02 2281.31 1037.1 2281.66 Q1039.19 2282.01 1040.95 2282.7 Z" fill="#000000" fill-rule="evenodd" fill-opacity="1" /><polyline clip-path="url(#clip100)" style="stroke:#e26f46; stroke-linecap:round; stroke-linejoin:round; stroke-width:4; stroke-opacity:1; fill:none" points="1075.4,2290.58 1273.77,2290.58 "/>
<path clip-path="url(#clip100)" d="M1311.12 2303.98 L1311.12 2317.73 L1306.84 2317.73 L1306.84 2281.94 L1311.12 2281.94 L1311.12 2285.87 Q1312.46 2283.56 1314.5 2282.45 Q1316.56 2281.31 1319.4 2281.31 Q1324.13 2281.31 1327.07 2285.06 Q1330.03 2288.81 1330.03 2294.92 Q1330.03 2301.04 1327.07 2304.79 Q1324.13 2308.54 1319.4 2308.54 Q1316.56 2308.54 1314.5 2307.42 Q1312.46 2306.29 1311.12 2303.98 M1325.61 2294.92 Q1325.61 2290.23 1323.66 2287.56 Q1321.74 2284.88 1318.36 2284.88 Q1314.98 2284.88 1313.04 2287.56 Q1311.12 2290.23 1311.12 2294.92 Q1311.12 2299.62 1313.04 2302.31 Q1314.98 2304.97 1318.36 2304.97 Q1321.74 2304.97 1323.66 2302.31 Q1325.61 2299.62 1325.61 2294.92 Z" fill="#000000" fill-rule="evenodd" fill-opacity="1" /><path clip-path="url(#clip100)" d="M1358.64 2292.22 L1358.64 2307.86 L1354.38 2307.86 L1354.38 2292.35 Q1354.38 2288.67 1352.95 2286.85 Q1351.51 2285.02 1348.64 2285.02 Q1345.19 2285.02 1343.2 2287.22 Q1341.21 2289.42 1341.21 2293.21 L1341.21 2307.86 L1336.93 2307.86 L1336.93 2271.85 L1341.21 2271.85 L1341.21 2285.97 Q1342.74 2283.63 1344.8 2282.47 Q1346.88 2281.31 1349.59 2281.31 Q1354.06 2281.31 1356.35 2284.09 Q1358.64 2286.85 1358.64 2292.22 Z" fill="#000000" fill-rule="evenodd" fill-opacity="1" /><path clip-path="url(#clip100)" d="M1378.92 2294.83 Q1373.76 2294.83 1371.77 2296.01 Q1369.77 2297.19 1369.77 2300.04 Q1369.77 2302.31 1371.26 2303.65 Q1372.76 2304.97 1375.33 2304.97 Q1378.87 2304.97 1381 2302.47 Q1383.15 2299.95 1383.15 2295.78 L1383.15 2294.83 L1378.92 2294.83 M1387.41 2293.07 L1387.41 2307.86 L1383.15 2307.86 L1383.15 2303.93 Q1381.7 2306.29 1379.52 2307.42 Q1377.34 2308.54 1374.2 2308.54 Q1370.21 2308.54 1367.85 2306.31 Q1365.52 2304.07 1365.52 2300.32 Q1365.52 2295.94 1368.43 2293.72 Q1371.37 2291.5 1377.18 2291.5 L1383.15 2291.5 L1383.15 2291.08 Q1383.15 2288.14 1381.21 2286.54 Q1379.29 2284.92 1375.79 2284.92 Q1373.57 2284.92 1371.46 2285.46 Q1369.36 2285.99 1367.41 2287.05 L1367.41 2283.12 Q1369.75 2282.22 1371.95 2281.78 Q1374.15 2281.31 1376.23 2281.31 Q1381.86 2281.31 1384.64 2284.23 Q1387.41 2287.15 1387.41 2293.07 Z" fill="#000000" fill-rule="evenodd" fill-opacity="1" /><path clip-path="url(#clip100)" d="M1412.71 2282.7 L1412.71 2286.73 Q1410.91 2285.8 1408.96 2285.34 Q1407.02 2284.88 1404.94 2284.88 Q1401.77 2284.88 1400.17 2285.85 Q1398.59 2286.82 1398.59 2288.77 Q1398.59 2290.25 1399.73 2291.1 Q1400.86 2291.94 1404.29 2292.7 L1405.75 2293.03 Q1410.28 2294 1412.18 2295.78 Q1414.1 2297.54 1414.1 2300.71 Q1414.1 2304.32 1411.23 2306.43 Q1408.39 2308.54 1403.39 2308.54 Q1401.3 2308.54 1399.03 2308.12 Q1396.79 2307.73 1394.29 2306.91 L1394.29 2302.52 Q1396.65 2303.74 1398.94 2304.37 Q1401.23 2304.97 1403.48 2304.97 Q1406.49 2304.97 1408.11 2303.95 Q1409.73 2302.91 1409.73 2301.04 Q1409.73 2299.3 1408.55 2298.37 Q1407.39 2297.45 1403.43 2296.59 L1401.95 2296.24 Q1397.99 2295.41 1396.23 2293.7 Q1394.47 2291.96 1394.47 2288.95 Q1394.47 2285.29 1397.07 2283.3 Q1399.66 2281.31 1404.43 2281.31 Q1406.79 2281.31 1408.87 2281.66 Q1410.95 2282.01 1412.71 2282.7 Z" fill="#000000" fill-rule="evenodd" fill-opacity="1" /><path clip-path="url(#clip100)" d="M1443.06 2293.84 L1443.06 2295.92 L1423.48 2295.92 Q1423.76 2300.32 1426.12 2302.63 Q1428.5 2304.92 1432.74 2304.92 Q1435.19 2304.92 1437.48 2304.32 Q1439.8 2303.72 1442.07 2302.52 L1442.07 2306.54 Q1439.77 2307.52 1437.37 2308.03 Q1434.96 2308.54 1432.48 2308.54 Q1426.28 2308.54 1422.64 2304.92 Q1419.03 2301.31 1419.03 2295.16 Q1419.03 2288.79 1422.46 2285.06 Q1425.91 2281.31 1431.74 2281.31 Q1436.97 2281.31 1440.01 2284.69 Q1443.06 2288.05 1443.06 2293.84 M1438.8 2292.59 Q1438.76 2289.09 1436.83 2287.01 Q1434.94 2284.92 1431.79 2284.92 Q1428.22 2284.92 1426.07 2286.94 Q1423.94 2288.95 1423.62 2292.61 L1438.8 2292.59 Z" fill="#000000" fill-rule="evenodd" fill-opacity="1" /><path clip-path="url(#clip100)" d="M1469.75 2303.93 L1486.07 2303.93 L1486.07 2307.86 L1464.13 2307.86 L1464.13 2303.93 Q1466.79 2301.17 1471.37 2296.54 Q1475.98 2291.89 1477.16 2290.55 Q1479.4 2288.03 1480.28 2286.29 Q1481.19 2284.53 1481.19 2282.84 Q1481.19 2280.09 1479.24 2278.35 Q1477.32 2276.61 1474.22 2276.61 Q1472.02 2276.61 1469.57 2277.38 Q1467.14 2278.14 1464.36 2279.69 L1464.36 2274.97 Q1467.18 2273.84 1469.64 2273.26 Q1472.09 2272.68 1474.13 2272.68 Q1479.5 2272.68 1482.69 2275.36 Q1485.89 2278.05 1485.89 2282.54 Q1485.89 2284.67 1485.07 2286.59 Q1484.29 2288.49 1482.18 2291.08 Q1481.6 2291.75 1478.5 2294.97 Q1475.4 2298.16 1469.75 2303.93 Z" fill="#000000" fill-rule="evenodd" fill-opacity="1" /><path clip-path="url(#clip100)" d="M1530.12 2287.01 L1523.38 2287.01 L1521.44 2294.74 L1528.22 2294.74 L1530.12 2287.01 M1526.65 2273.84 L1524.24 2283.44 L1531 2283.44 L1533.43 2273.84 L1537.13 2273.84 L1534.75 2283.44 L1541.97 2283.44 L1541.97 2287.01 L1533.85 2287.01 L1531.95 2294.74 L1539.31 2294.74 L1539.31 2298.28 L1531.05 2298.28 L1528.64 2307.86 L1524.94 2307.86 L1527.32 2298.28 L1520.54 2298.28 L1518.15 2307.86 L1514.43 2307.86 L1516.83 2298.28 L1509.54 2298.28 L1509.54 2294.74 L1517.69 2294.74 L1519.63 2287.01 L1512.18 2287.01 L1512.18 2283.44 L1520.54 2283.44 L1522.9 2273.84 L1526.65 2273.84 Z" fill="#000000" fill-rule="evenodd" fill-opacity="1" /><path clip-path="url(#clip100)" d="M1550.07 2281.94 L1554.33 2281.94 L1554.33 2307.86 L1550.07 2307.86 L1550.07 2281.94 M1550.07 2271.85 L1554.33 2271.85 L1554.33 2277.24 L1550.07 2277.24 L1550.07 2271.85 Z" fill="#000000" fill-rule="evenodd" fill-opacity="1" /><path clip-path="url(#clip100)" d="M1567.46 2274.58 L1567.46 2281.94 L1576.23 2281.94 L1576.23 2285.25 L1567.46 2285.25 L1567.46 2299.32 Q1567.46 2302.49 1568.32 2303.4 Q1569.19 2304.3 1571.86 2304.3 L1576.23 2304.3 L1576.23 2307.86 L1571.86 2307.86 Q1566.93 2307.86 1565.05 2306.04 Q1563.18 2304.18 1563.18 2299.32 L1563.18 2285.25 L1560.05 2285.25 L1560.05 2281.94 L1563.18 2281.94 L1563.18 2274.58 L1567.46 2274.58 Z" fill="#000000" fill-rule="evenodd" fill-opacity="1" /><path clip-path="url(#clip100)" d="M1604.01 2293.84 L1604.01 2295.92 L1584.43 2295.92 Q1584.7 2300.32 1587.07 2302.63 Q1589.45 2304.92 1593.69 2304.92 Q1596.14 2304.92 1598.43 2304.32 Q1600.75 2303.72 1603.01 2302.52 L1603.01 2306.54 Q1600.72 2307.52 1598.31 2308.03 Q1595.91 2308.54 1593.43 2308.54 Q1587.23 2308.54 1583.59 2304.92 Q1579.98 2301.31 1579.98 2295.16 Q1579.98 2288.79 1583.41 2285.06 Q1586.86 2281.31 1592.69 2281.31 Q1597.92 2281.31 1600.95 2284.69 Q1604.01 2288.05 1604.01 2293.84 M1599.75 2292.59 Q1599.7 2289.09 1597.78 2287.01 Q1595.88 2284.92 1592.74 2284.92 Q1589.17 2284.92 1587.02 2286.94 Q1584.89 2288.95 1584.57 2292.61 L1599.75 2292.59 Z" fill="#000000" fill-rule="evenodd" fill-opacity="1" /><path clip-path="url(#clip100)" d="M1626.02 2285.92 Q1625.31 2285.5 1624.45 2285.32 Q1623.62 2285.11 1622.6 2285.11 Q1618.99 2285.11 1617.04 2287.47 Q1615.12 2289.81 1615.12 2294.21 L1615.12 2307.86 L1610.84 2307.86 L1610.84 2281.94 L1615.12 2281.94 L1615.12 2285.97 Q1616.46 2283.6 1618.62 2282.47 Q1620.77 2281.31 1623.85 2281.31 Q1624.29 2281.31 1624.82 2281.38 Q1625.35 2281.43 1626 2281.54 L1626.02 2285.92 Z" fill="#000000" fill-rule="evenodd" fill-opacity="1" /><path clip-path="url(#clip100)" d="M1647.02 2282.7 L1647.02 2286.73 Q1645.21 2285.8 1643.27 2285.34 Q1641.32 2284.88 1639.24 2284.88 Q1636.07 2284.88 1634.47 2285.85 Q1632.9 2286.82 1632.9 2288.77 Q1632.9 2290.25 1634.03 2291.1 Q1635.17 2291.94 1638.59 2292.7 L1640.05 2293.03 Q1644.59 2294 1646.49 2295.78 Q1648.41 2297.54 1648.41 2300.71 Q1648.41 2304.32 1645.54 2306.43 Q1642.69 2308.54 1637.69 2308.54 Q1635.61 2308.54 1633.34 2308.12 Q1631.09 2307.73 1628.59 2306.91 L1628.59 2302.52 Q1630.95 2303.74 1633.25 2304.37 Q1635.54 2304.97 1637.78 2304.97 Q1640.79 2304.97 1642.41 2303.95 Q1644.03 2302.91 1644.03 2301.04 Q1644.03 2299.3 1642.85 2298.37 Q1641.69 2297.45 1637.74 2296.59 L1636.25 2296.24 Q1632.3 2295.41 1630.54 2293.7 Q1628.78 2291.96 1628.78 2288.95 Q1628.78 2285.29 1631.37 2283.3 Q1633.96 2281.31 1638.73 2281.31 Q1641.09 2281.31 1643.18 2281.66 Q1645.26 2282.01 1647.02 2282.7 Z" fill="#000000" fill-rule="evenodd" fill-opacity="1" /><polyline clip-path="url(#clip100)" style="stroke:#3da44d; stroke-linecap:round; stroke-linejoin:round; stroke-width:4; stroke-opacity:1; fill:none" points="1681.47,2290.58 1879.85,2290.58 "/>
<path clip-path="url(#clip100)" d="M1934.62 2292.22 L1934.62 2307.86 L1930.36 2307.86 L1930.36 2292.35 Q1930.36 2288.67 1928.93 2286.85 Q1927.49 2285.02 1924.62 2285.02 Q1921.17 2285.02 1919.18 2287.22 Q1917.19 2289.42 1917.19 2293.21 L1917.19 2307.86 L1912.91 2307.86 L1912.91 2281.94 L1917.19 2281.94 L1917.19 2285.97 Q1918.72 2283.63 1920.78 2282.47 Q1922.86 2281.31 1925.57 2281.31 Q1930.04 2281.31 1932.33 2284.09 Q1934.62 2286.85 1934.62 2292.22 Z" fill="#000000" fill-rule="evenodd" fill-opacity="1" /><path clip-path="url(#clip100)" d="M1965.29 2293.84 L1965.29 2295.92 L1945.71 2295.92 Q1945.99 2300.32 1948.35 2302.63 Q1950.73 2304.92 1954.97 2304.92 Q1957.42 2304.92 1959.71 2304.32 Q1962.03 2303.72 1964.3 2302.52 L1964.3 2306.54 Q1962.01 2307.52 1959.6 2308.03 Q1957.19 2308.54 1954.71 2308.54 Q1948.51 2308.54 1944.88 2304.92 Q1941.26 2301.31 1941.26 2295.16 Q1941.26 2288.79 1944.69 2285.06 Q1948.14 2281.31 1953.97 2281.31 Q1959.2 2281.31 1962.24 2284.69 Q1965.29 2288.05 1965.29 2293.84 M1961.03 2292.59 Q1960.99 2289.09 1959.07 2287.01 Q1957.17 2284.92 1954.02 2284.92 Q1950.45 2284.92 1948.3 2286.94 Q1946.17 2288.95 1945.85 2292.61 L1961.03 2292.59 Z" fill="#000000" fill-rule="evenodd" fill-opacity="1" /><path clip-path="url(#clip100)" d="M1976.5 2274.58 L1976.5 2281.94 L1985.27 2281.94 L1985.27 2285.25 L1976.5 2285.25 L1976.5 2299.32 Q1976.5 2302.49 1977.35 2303.4 Q1978.23 2304.3 1980.89 2304.3 L1985.27 2304.3 L1985.27 2307.86 L1980.89 2307.86 Q1975.96 2307.86 1974.09 2306.04 Q1972.21 2304.18 1972.21 2299.32 L1972.21 2285.25 L1969.09 2285.25 L1969.09 2281.94 L1972.21 2281.94 L1972.21 2274.58 L1976.5 2274.58 Z" fill="#000000" fill-rule="evenodd" fill-opacity="1" /><path clip-path="url(#clip100)" d="M2025.71 2287.01 L2018.97 2287.01 L2017.03 2294.74 L2023.81 2294.74 L2025.71 2287.01 M2022.24 2273.84 L2019.83 2283.44 L2026.59 2283.44 L2029.02 2273.84 L2032.72 2273.84 L2030.34 2283.44 L2037.56 2283.44 L2037.56 2287.01 L2029.44 2287.01 L2027.54 2294.74 L2034.9 2294.74 L2034.9 2298.28 L2026.63 2298.28 L2024.23 2307.86 L2020.52 2307.86 L2022.91 2298.28 L2016.13 2298.28 L2013.74 2307.86 L2010.01 2307.86 L2012.42 2298.28 L2005.13 2298.28 L2005.13 2294.74 L2013.28 2294.74 L2015.22 2287.01 L2007.77 2287.01 L2007.77 2283.44 L2016.13 2283.44 L2018.49 2273.84 L2022.24 2273.84 Z" fill="#000000" fill-rule="evenodd" fill-opacity="1" /><path clip-path="url(#clip100)" d="M2045.66 2281.94 L2049.92 2281.94 L2049.92 2307.86 L2045.66 2307.86 L2045.66 2281.94 M2045.66 2271.85 L2049.92 2271.85 L2049.92 2277.24 L2045.66 2277.24 L2045.66 2271.85 Z" fill="#000000" fill-rule="evenodd" fill-opacity="1" /><path clip-path="url(#clip100)" d="M2063.05 2274.58 L2063.05 2281.94 L2071.82 2281.94 L2071.82 2285.25 L2063.05 2285.25 L2063.05 2299.32 Q2063.05 2302.49 2063.9 2303.4 Q2064.78 2304.3 2067.44 2304.3 L2071.82 2304.3 L2071.82 2307.86 L2067.44 2307.86 Q2062.51 2307.86 2060.64 2306.04 Q2058.76 2304.18 2058.76 2299.32 L2058.76 2285.25 L2055.64 2285.25 L2055.64 2281.94 L2058.76 2281.94 L2058.76 2274.58 L2063.05 2274.58 Z" fill="#000000" fill-rule="evenodd" fill-opacity="1" /><path clip-path="url(#clip100)" d="M2099.6 2293.84 L2099.6 2295.92 L2080.01 2295.92 Q2080.29 2300.32 2082.65 2302.63 Q2085.04 2304.92 2089.27 2304.92 Q2091.73 2304.92 2094.02 2304.32 Q2096.33 2303.72 2098.6 2302.52 L2098.6 2306.54 Q2096.31 2307.52 2093.9 2308.03 Q2091.5 2308.54 2089.02 2308.54 Q2082.81 2308.54 2079.18 2304.92 Q2075.57 2301.31 2075.57 2295.16 Q2075.57 2288.79 2079 2285.06 Q2082.44 2281.31 2088.28 2281.31 Q2093.51 2281.31 2096.54 2284.69 Q2099.6 2288.05 2099.6 2293.84 M2095.34 2292.59 Q2095.29 2289.09 2093.37 2287.01 Q2091.47 2284.92 2088.32 2284.92 Q2084.76 2284.92 2082.61 2286.94 Q2080.48 2288.95 2080.15 2292.61 L2095.34 2292.59 Z" fill="#000000" fill-rule="evenodd" fill-opacity="1" /><path clip-path="url(#clip100)" d="M2121.61 2285.92 Q2120.89 2285.5 2120.04 2285.32 Q2119.2 2285.11 2118.18 2285.11 Q2114.57 2285.11 2112.63 2287.47 Q2110.71 2289.81 2110.71 2294.21 L2110.71 2307.86 L2106.43 2307.86 L2106.43 2281.94 L2110.71 2281.94 L2110.71 2285.97 Q2112.05 2283.6 2114.2 2282.47 Q2116.36 2281.31 2119.43 2281.31 Q2119.87 2281.31 2120.41 2281.38 Q2120.94 2281.43 2121.59 2281.54 L2121.61 2285.92 Z" fill="#000000" fill-rule="evenodd" fill-opacity="1" /><path clip-path="url(#clip100)" d="M2142.61 2282.7 L2142.61 2286.73 Q2140.8 2285.8 2138.86 2285.34 Q2136.91 2284.88 2134.83 2284.88 Q2131.66 2284.88 2130.06 2285.85 Q2128.49 2286.82 2128.49 2288.77 Q2128.49 2290.25 2129.62 2291.1 Q2130.75 2291.94 2134.18 2292.7 L2135.64 2293.03 Q2140.18 2294 2142.07 2295.78 Q2143.99 2297.54 2143.99 2300.71 Q2143.99 2304.32 2141.12 2306.43 Q2138.28 2308.54 2133.28 2308.54 Q2131.19 2308.54 2128.93 2308.12 Q2126.68 2307.73 2124.18 2306.91 L2124.18 2302.52 Q2126.54 2303.74 2128.83 2304.37 Q2131.12 2304.97 2133.37 2304.97 Q2136.38 2304.97 2138 2303.95 Q2139.62 2302.91 2139.62 2301.04 Q2139.62 2299.3 2138.44 2298.37 Q2137.28 2297.45 2133.32 2296.59 L2131.84 2296.24 Q2127.88 2295.41 2126.12 2293.7 Q2124.37 2291.96 2124.37 2288.95 Q2124.37 2285.29 2126.96 2283.3 Q2129.55 2281.31 2134.32 2281.31 Q2136.68 2281.31 2138.76 2281.66 Q2140.85 2282.01 2142.61 2282.7 Z" fill="#000000" fill-rule="evenodd" fill-opacity="1" /><polyline clip-path="url(#clip100)" style="stroke:#c271d2; stroke-linecap:round; stroke-linejoin:round; stroke-width:4; stroke-opacity:1; fill:none" points="2287.54,2290.58 2485.92,2290.58 "/>
<path clip-path="url(#clip100)" d="M2539.49 2282.93 L2539.49 2286.92 Q2537.68 2285.92 2535.86 2285.43 Q2534.05 2284.92 2532.2 2284.92 Q2528.06 2284.92 2525.76 2287.56 Q2523.47 2290.18 2523.47 2294.92 Q2523.47 2299.67 2525.76 2302.31 Q2528.06 2304.92 2532.2 2304.92 Q2534.05 2304.92 2535.86 2304.44 Q2537.68 2303.93 2539.49 2302.93 L2539.49 2306.87 Q2537.71 2307.7 2535.79 2308.12 Q2533.89 2308.54 2531.74 2308.54 Q2525.88 2308.54 2522.43 2304.85 Q2518.98 2301.17 2518.98 2294.92 Q2518.98 2288.58 2522.45 2284.95 Q2525.95 2281.31 2532.01 2281.31 Q2533.98 2281.31 2535.86 2281.73 Q2537.73 2282.12 2539.49 2282.93 Z" fill="#000000" fill-rule="evenodd" fill-opacity="1" /><path clip-path="url(#clip100)" d="M2546.46 2297.63 L2546.46 2281.94 L2550.72 2281.94 L2550.72 2297.47 Q2550.72 2301.15 2552.15 2303 Q2553.59 2304.83 2556.46 2304.83 Q2559.91 2304.83 2561.9 2302.63 Q2563.91 2300.43 2563.91 2296.64 L2563.91 2281.94 L2568.17 2281.94 L2568.17 2307.86 L2563.91 2307.86 L2563.91 2303.88 Q2562.36 2306.24 2560.3 2307.4 Q2558.26 2308.54 2555.56 2308.54 Q2551.09 2308.54 2548.77 2305.76 Q2546.46 2302.98 2546.46 2297.63 M2557.18 2281.31 L2557.18 2281.31 Z" fill="#000000" fill-rule="evenodd" fill-opacity="1" /><path clip-path="url(#clip100)" d="M2581.16 2274.58 L2581.16 2281.94 L2589.93 2281.94 L2589.93 2285.25 L2581.16 2285.25 L2581.16 2299.32 Q2581.16 2302.49 2582.01 2303.4 Q2582.89 2304.3 2585.55 2304.3 L2589.93 2304.3 L2589.93 2307.86 L2585.55 2307.86 Q2580.62 2307.86 2578.75 2306.04 Q2576.87 2304.18 2576.87 2299.32 L2576.87 2285.25 L2573.75 2285.25 L2573.75 2281.94 L2576.87 2281.94 L2576.87 2274.58 L2581.16 2274.58 Z" fill="#000000" fill-rule="evenodd" fill-opacity="1" /><path clip-path="url(#clip100)" d="M2605.58 2284.92 Q2602.15 2284.92 2600.16 2287.61 Q2598.17 2290.27 2598.17 2294.92 Q2598.17 2299.58 2600.14 2302.26 Q2602.13 2304.92 2605.58 2304.92 Q2608.98 2304.92 2610.97 2302.24 Q2612.96 2299.55 2612.96 2294.92 Q2612.96 2290.32 2610.97 2287.63 Q2608.98 2284.92 2605.58 2284.92 M2605.58 2281.31 Q2611.13 2281.31 2614.3 2284.92 Q2617.48 2288.54 2617.48 2294.92 Q2617.48 2301.29 2614.3 2304.92 Q2611.13 2308.54 2605.58 2308.54 Q2600 2308.54 2596.83 2304.92 Q2593.68 2301.29 2593.68 2294.92 Q2593.68 2288.54 2596.83 2284.92 Q2600 2281.31 2605.58 2281.31 Z" fill="#000000" fill-rule="evenodd" fill-opacity="1" /><path clip-path="url(#clip100)" d="M2637.66 2271.85 L2637.66 2275.39 L2633.59 2275.39 Q2631.3 2275.39 2630.39 2276.31 Q2629.51 2277.24 2629.51 2279.65 L2629.51 2281.94 L2636.53 2281.94 L2636.53 2285.25 L2629.51 2285.25 L2629.51 2307.86 L2625.23 2307.86 L2625.23 2285.25 L2621.16 2285.25 L2621.16 2281.94 L2625.23 2281.94 L2625.23 2280.13 Q2625.23 2275.8 2627.24 2273.84 Q2629.26 2271.85 2633.63 2271.85 L2637.66 2271.85 Z" fill="#000000" fill-rule="evenodd" fill-opacity="1" /><path clip-path="url(#clip100)" d="M2654.35 2271.85 L2654.35 2275.39 L2650.28 2275.39 Q2647.99 2275.39 2647.08 2276.31 Q2646.2 2277.24 2646.2 2279.65 L2646.2 2281.94 L2653.22 2281.94 L2653.22 2285.25 L2646.2 2285.25 L2646.2 2307.86 L2641.92 2307.86 L2641.92 2285.25 L2637.85 2285.25 L2637.85 2281.94 L2641.92 2281.94 L2641.92 2280.13 Q2641.92 2275.8 2643.93 2273.84 Q2645.95 2271.85 2650.32 2271.85 L2654.35 2271.85 Z" fill="#000000" fill-rule="evenodd" fill-opacity="1" /></svg>
