<?xml version="1.0" encoding="utf-8"?>
<svg xmlns="http://www.w3.org/2000/svg" xmlns:xlink="http://www.w3.org/1999/xlink" width="800" height="640" viewBox="0 0 3200 2560">
<defs>
  <clipPath id="clip670">
    <rect x="0" y="0" width="3200" height="2560"/>
  </clipPath>
</defs>
<path clip-path="url(#clip670)" d="M0 2560 L3200 2560 L3200 0 L0 0  Z" fill="#ffffff" fill-rule="evenodd" fill-opacity="1"/>
<defs>
  <clipPath id="clip671">
    <rect x="640" y="0" width="2241" height="2241"/>
  </clipPath>
</defs>
<path clip-path="url(#clip670)" d="M177.121 1865.17 L3152.76 1865.17 L3152.76 47.2441 L177.121 47.2441  Z" fill="#ffffff" fill-rule="evenodd" fill-opacity="1"/>
<defs>
  <clipPath id="clip672">
    <rect x="177" y="47" width="2977" height="1819"/>
  </clipPath>
</defs>
<polyline clip-path="url(#clip672)" style="stroke:#000000; stroke-linecap:round; stroke-linejoin:round; stroke-width:2; stroke-opacity:0.1; fill:none" points="988.9,1865.17 988.9,47.2441 "/>
<polyline clip-path="url(#clip672)" style="stroke:#000000; stroke-linecap:round; stroke-linejoin:round; stroke-width:2; stroke-opacity:0.1; fill:none" points="2179.82,1865.17 2179.82,47.2441 "/>
<polyline clip-path="url(#clip670)" style="stroke:#000000; stroke-linecap:round; stroke-linejoin:round; stroke-width:4; stroke-opacity:1; fill:none" points="177.121,1865.17 3152.76,1865.17 "/>
<polyline clip-path="url(#clip670)" style="stroke:#000000; stroke-linecap:round; stroke-linejoin:round; stroke-width:4; stroke-opacity:1; fill:none" points="988.9,1865.17 988.9,1850.21 "/>
<polyline clip-path="url(#clip670)" style="stroke:#000000; stroke-linecap:round; stroke-linejoin:round; stroke-width:4; stroke-opacity:1; fill:none" points="2179.82,1865.17 2179.82,1850.21 "/>
<path clip-path="url(#clip670)" d="M954.673 1945.7 L962.312 1945.7 L962.312 1919.33 L954.002 1921 L954.002 1916.74 L962.266 1915.07 L966.942 1915.07 L966.942 1945.7 L974.58 1945.7 L974.58 1949.63 L954.673 1949.63 L954.673 1945.7 Z" fill="#000000" fill-rule="evenodd" fill-opacity="1" /><path clip-path="url(#clip670)" d="M994.025 1918.15 Q990.414 1918.15 988.585 1921.72 Q986.779 1925.26 986.779 1932.39 Q986.779 1939.49 988.585 1943.06 Q990.414 1946.6 994.025 1946.6 Q997.659 1946.6 999.465 1943.06 Q1001.29 1939.49 1001.29 1932.39 Q1001.29 1925.26 999.465 1921.72 Q997.659 1918.15 994.025 1918.15 M994.025 1914.45 Q999.835 1914.45 1002.89 1919.05 Q1005.97 1923.64 1005.97 1932.39 Q1005.97 1941.11 1002.89 1945.72 Q999.835 1950.3 994.025 1950.3 Q988.215 1950.3 985.136 1945.72 Q982.08 1941.11 982.08 1932.39 Q982.08 1923.64 985.136 1919.05 Q988.215 1914.45 994.025 1914.45 Z" fill="#000000" fill-rule="evenodd" fill-opacity="1" /><path clip-path="url(#clip670)" d="M1010.54 1919.03 L1023.8 1919.03 L1023.8 1922.22 L1005.97 1922.22 L1005.97 1919.03 Q1008.13 1916.79 1011.86 1913.03 Q1015.6 1909.25 1016.56 1908.15 Q1018.38 1906.1 1019.1 1904.69 Q1019.83 1903.26 1019.83 1901.89 Q1019.83 1899.65 1018.25 1898.24 Q1016.69 1896.83 1014.17 1896.83 Q1012.38 1896.83 1010.39 1897.45 Q1008.41 1898.07 1006.16 1899.33 L1006.16 1895.5 Q1008.45 1894.58 1010.45 1894.11 Q1012.44 1893.63 1014.09 1893.63 Q1018.46 1893.63 1021.05 1895.82 Q1023.65 1898 1023.65 1901.65 Q1023.65 1903.38 1022.99 1904.94 Q1022.35 1906.48 1020.64 1908.59 Q1020.17 1909.13 1017.65 1911.75 Q1015.13 1914.34 1010.54 1919.03 Z" fill="#000000" fill-rule="evenodd" fill-opacity="1" /><path clip-path="url(#clip670)" d="M2144.28 1945.7 L2151.92 1945.7 L2151.92 1919.33 L2143.61 1921 L2143.61 1916.74 L2151.87 1915.07 L2156.55 1915.07 L2156.55 1945.7 L2164.19 1945.7 L2164.19 1949.63 L2144.28 1949.63 L2144.28 1945.7 Z" fill="#000000" fill-rule="evenodd" fill-opacity="1" /><path clip-path="url(#clip670)" d="M2183.63 1918.15 Q2180.02 1918.15 2178.19 1921.72 Q2176.38 1925.26 2176.38 1932.39 Q2176.38 1939.49 2178.19 1943.06 Q2180.02 1946.6 2183.63 1946.6 Q2187.26 1946.6 2189.07 1943.06 Q2190.9 1939.49 2190.9 1932.39 Q2190.9 1925.26 2189.07 1921.72 Q2187.26 1918.15 2183.63 1918.15 M2183.63 1914.45 Q2189.44 1914.45 2192.5 1919.05 Q2195.57 1923.64 2195.57 1932.39 Q2195.57 1941.11 2192.5 1945.72 Q2189.44 1950.3 2183.63 1950.3 Q2177.82 1950.3 2174.74 1945.72 Q2171.69 1941.11 2171.69 1932.39 Q2171.69 1923.64 2174.74 1919.05 Q2177.82 1914.45 2183.63 1914.45 Z" fill="#000000" fill-rule="evenodd" fill-opacity="1" /><path clip-path="url(#clip670)" d="M2208.25 1897.45 L2198.66 1912.44 L2208.25 1912.44 L2208.25 1897.45 M2207.25 1894.14 L2212.03 1894.14 L2212.03 1912.44 L2216.04 1912.44 L2216.04 1915.6 L2212.03 1915.6 L2212.03 1922.22 L2208.25 1922.22 L2208.25 1915.6 L2195.57 1915.6 L2195.57 1911.93 L2207.25 1894.14 Z" fill="#000000" fill-rule="evenodd" fill-opacity="1" /><path clip-path="url(#clip670)" d="M1600.09 2018.95 L1600.09 2040.46 L1594.23 2040.46 L1594.23 2019.14 Q1594.23 2014.08 1592.26 2011.56 Q1590.28 2009.05 1586.34 2009.05 Q1581.6 2009.05 1578.86 2012.07 Q1576.12 2015.09 1576.12 2020.31 L1576.12 2040.46 L1570.23 2040.46 L1570.23 2004.81 L1576.12 2004.81 L1576.12 2010.35 Q1578.22 2007.14 1581.05 2005.55 Q1583.92 2003.95 1587.64 2003.95 Q1593.79 2003.95 1596.94 2007.77 Q1600.09 2011.56 1600.09 2018.95 Z" fill="#000000" fill-rule="evenodd" fill-opacity="1" /><path clip-path="url(#clip670)" d="M1656.33 1999.59 L1656.33 2017.32 L1674.06 2017.32 L1674.06 2022.73 L1656.33 2022.73 L1656.33 2040.46 L1650.98 2040.46 L1650.98 2022.73 L1633.25 2022.73 L1633.25 2017.32 L1650.98 2017.32 L1650.98 1999.59 L1656.33 1999.59 Z" fill="#000000" fill-rule="evenodd" fill-opacity="1" /><path clip-path="url(#clip670)" d="M1735.58 2011.66 Q1737.78 2007.71 1740.83 2005.83 Q1743.89 2003.95 1748.03 2003.95 Q1753.6 2003.95 1756.62 2007.87 Q1759.64 2011.75 1759.64 2018.95 L1759.64 2040.46 L1753.76 2040.46 L1753.76 2019.14 Q1753.76 2014.01 1751.94 2011.53 Q1750.13 2009.05 1746.4 2009.05 Q1741.85 2009.05 1739.21 2012.07 Q1736.57 2015.09 1736.57 2020.31 L1736.57 2040.46 L1730.68 2040.46 L1730.68 2019.14 Q1730.68 2013.98 1728.87 2011.53 Q1727.05 2009.05 1723.26 2009.05 Q1718.78 2009.05 1716.13 2012.1 Q1713.49 2015.13 1713.49 2020.31 L1713.49 2040.46 L1707.6 2040.46 L1707.6 2004.81 L1713.49 2004.81 L1713.49 2010.35 Q1715.5 2007.07 1718.3 2005.51 Q1721.1 2003.95 1724.95 2003.95 Q1728.83 2003.95 1731.54 2005.93 Q1734.28 2007.9 1735.58 2011.66 Z" fill="#000000" fill-rule="evenodd" fill-opacity="1" /><polyline clip-path="url(#clip672)" style="stroke:#000000; stroke-linecap:round; stroke-linejoin:round; stroke-width:2; stroke-opacity:0.1; fill:none" points="177.121,1844.08 3152.76,1844.08 "/>
<polyline clip-path="url(#clip672)" style="stroke:#000000; stroke-linecap:round; stroke-linejoin:round; stroke-width:2; stroke-opacity:0.1; fill:none" points="177.121,1464.65 3152.76,1464.65 "/>
<polyline clip-path="url(#clip672)" style="stroke:#000000; stroke-linecap:round; stroke-linejoin:round; stroke-width:2; stroke-opacity:0.1; fill:none" points="177.121,1085.22 3152.76,1085.22 "/>
<polyline clip-path="url(#clip672)" style="stroke:#000000; stroke-linecap:round; stroke-linejoin:round; stroke-width:2; stroke-opacity:0.1; fill:none" points="177.121,705.784 3152.76,705.784 "/>
<polyline clip-path="url(#clip672)" style="stroke:#000000; stroke-linecap:round; stroke-linejoin:round; stroke-width:2; stroke-opacity:0.1; fill:none" points="177.121,326.353 3152.76,326.353 "/>
<polyline clip-path="url(#clip670)" style="stroke:#000000; stroke-linecap:round; stroke-linejoin:round; stroke-width:4; stroke-opacity:1; fill:none" points="177.121,1865.17 177.121,47.2441 "/>
<polyline clip-path="url(#clip670)" style="stroke:#000000; stroke-linecap:round; stroke-linejoin:round; stroke-width:4; stroke-opacity:1; fill:none" points="177.121,1844.08 196.019,1844.08 "/>
<polyline clip-path="url(#clip670)" style="stroke:#000000; stroke-linecap:round; stroke-linejoin:round; stroke-width:4; stroke-opacity:1; fill:none" points="177.121,1464.65 196.019,1464.65 "/>
<polyline clip-path="url(#clip670)" style="stroke:#000000; stroke-linecap:round; stroke-linejoin:round; stroke-width:4; stroke-opacity:1; fill:none" points="177.121,1085.22 196.019,1085.22 "/>
<polyline clip-path="url(#clip670)" style="stroke:#000000; stroke-linecap:round; stroke-linejoin:round; stroke-width:4; stroke-opacity:1; fill:none" points="177.121,705.784 196.019,705.784 "/>
<polyline clip-path="url(#clip670)" style="stroke:#000000; stroke-linecap:round; stroke-linejoin:round; stroke-width:4; stroke-opacity:1; fill:none" points="177.121,326.353 196.019,326.353 "/>
<path clip-path="url(#clip670)" d="M117.177 1829.88 Q113.566 1829.88 111.737 1833.44 Q109.932 1836.98 109.932 1844.11 Q109.932 1851.22 111.737 1854.78 Q113.566 1858.32 117.177 1858.32 Q120.811 1858.32 122.617 1854.78 Q124.445 1851.22 124.445 1844.11 Q124.445 1836.98 122.617 1833.44 Q120.811 1829.88 117.177 1829.88 M117.177 1826.17 Q122.987 1826.17 126.043 1830.78 Q129.121 1835.36 129.121 1844.11 Q129.121 1852.84 126.043 1857.44 Q122.987 1862.03 117.177 1862.03 Q111.367 1862.03 108.288 1857.44 Q105.233 1852.84 105.233 1844.11 Q105.233 1835.36 108.288 1830.78 Q111.367 1826.17 117.177 1826.17 Z" fill="#000000" fill-rule="evenodd" fill-opacity="1" /><path clip-path="url(#clip670)" d="M82.0382 1477.99 L98.3576 1477.99 L98.3576 1481.93 L76.4133 1481.93 L76.4133 1477.99 Q79.0753 1475.24 83.6586 1470.61 Q88.2651 1465.95 89.4456 1464.61 Q91.691 1462.09 92.5706 1460.35 Q93.4734 1458.59 93.4734 1456.9 Q93.4734 1454.15 91.5289 1452.41 Q89.6076 1450.68 86.5058 1450.68 Q84.3067 1450.68 81.8531 1451.44 Q79.4225 1452.2 76.6447 1453.75 L76.6447 1449.03 Q79.4688 1447.9 81.9225 1447.32 Q84.3762 1446.74 86.4132 1446.74 Q91.7836 1446.74 94.978 1449.43 Q98.1724 1452.11 98.1724 1456.6 Q98.1724 1458.73 97.3622 1460.65 Q96.5752 1462.55 94.4687 1465.14 Q93.89 1465.81 90.7882 1469.03 Q87.6864 1472.23 82.0382 1477.99 Z" fill="#000000" fill-rule="evenodd" fill-opacity="1" /><path clip-path="url(#clip670)" d="M108.219 1447.37 L126.575 1447.37 L126.575 1451.3 L112.501 1451.3 L112.501 1459.77 Q113.52 1459.43 114.538 1459.26 Q115.557 1459.08 116.575 1459.08 Q122.362 1459.08 125.742 1462.25 Q129.121 1465.42 129.121 1470.84 Q129.121 1476.42 125.649 1479.52 Q122.177 1482.6 115.857 1482.6 Q113.682 1482.6 111.413 1482.23 Q109.168 1481.86 106.76 1481.12 L106.76 1476.42 Q108.844 1477.55 111.066 1478.11 Q113.288 1478.66 115.765 1478.66 Q119.77 1478.66 122.107 1476.56 Q124.445 1474.45 124.445 1470.84 Q124.445 1467.23 122.107 1465.12 Q119.77 1463.01 115.765 1463.01 Q113.89 1463.01 112.015 1463.43 Q110.163 1463.85 108.219 1464.73 L108.219 1447.37 Z" fill="#000000" fill-rule="evenodd" fill-opacity="1" /><path clip-path="url(#clip670)" d="M77.0614 1067.94 L95.4178 1067.94 L95.4178 1071.87 L81.3438 1071.87 L81.3438 1080.34 Q82.3623 1080 83.3808 1079.83 Q84.3993 1079.65 85.4178 1079.65 Q91.2049 1079.65 94.5845 1082.82 Q97.9641 1085.99 97.9641 1091.41 Q97.9641 1096.99 94.4919 1100.09 Q91.0197 1103.17 84.7003 1103.17 Q82.5243 1103.17 80.2558 1102.8 Q78.0105 1102.43 75.6031 1101.68 L75.6031 1096.99 Q77.6864 1098.12 79.9086 1098.68 Q82.1308 1099.23 84.6077 1099.23 Q88.6123 1099.23 90.9502 1097.12 Q93.2882 1095.02 93.2882 1091.41 Q93.2882 1087.8 90.9502 1085.69 Q88.6123 1083.58 84.6077 1083.58 Q82.7327 1083.58 80.8577 1084 Q79.0058 1084.42 77.0614 1085.3 L77.0614 1067.94 Z" fill="#000000" fill-rule="evenodd" fill-opacity="1" /><path clip-path="url(#clip670)" d="M117.177 1071.01 Q113.566 1071.01 111.737 1074.58 Q109.932 1078.12 109.932 1085.25 Q109.932 1092.36 111.737 1095.92 Q113.566 1099.46 117.177 1099.46 Q120.811 1099.46 122.617 1095.92 Q124.445 1092.36 124.445 1085.25 Q124.445 1078.12 122.617 1074.58 Q120.811 1071.01 117.177 1071.01 M117.177 1067.31 Q122.987 1067.31 126.043 1071.92 Q129.121 1076.5 129.121 1085.25 Q129.121 1093.98 126.043 1098.58 Q122.987 1103.17 117.177 1103.17 Q111.367 1103.17 108.288 1098.58 Q105.233 1093.98 105.233 1085.25 Q105.233 1076.5 108.288 1071.92 Q111.367 1067.31 117.177 1067.31 Z" fill="#000000" fill-rule="evenodd" fill-opacity="1" /><path clip-path="url(#clip670)" d="M76.8299 688.504 L99.052 688.504 L99.052 690.495 L86.5058 723.064 L81.6216 723.064 L93.4271 692.439 L76.8299 692.439 L76.8299 688.504 Z" fill="#000000" fill-rule="evenodd" fill-opacity="1" /><path clip-path="url(#clip670)" d="M108.219 688.504 L126.575 688.504 L126.575 692.439 L112.501 692.439 L112.501 700.912 Q113.52 700.564 114.538 700.402 Q115.557 700.217 116.575 700.217 Q122.362 700.217 125.742 703.388 Q129.121 706.56 129.121 711.976 Q129.121 717.555 125.649 720.657 Q122.177 723.736 115.857 723.736 Q113.682 723.736 111.413 723.365 Q109.168 722.995 106.76 722.254 L106.76 717.555 Q108.844 718.689 111.066 719.245 Q113.288 719.8 115.765 719.8 Q119.77 719.8 122.107 717.694 Q124.445 715.587 124.445 711.976 Q124.445 708.365 122.107 706.259 Q119.77 704.152 115.765 704.152 Q113.89 704.152 112.015 704.569 Q110.163 704.986 108.219 705.865 L108.219 688.504 Z" fill="#000000" fill-rule="evenodd" fill-opacity="1" /><path clip-path="url(#clip670)" d="M47.6634 339.698 L55.3023 339.698 L55.3023 313.333 L46.9921 314.999 L46.9921 310.74 L55.256 309.073 L59.9319 309.073 L59.9319 339.698 L67.5707 339.698 L67.5707 343.633 L47.6634 343.633 L47.6634 339.698 Z" fill="#000000" fill-rule="evenodd" fill-opacity="1" /><path clip-path="url(#clip670)" d="M87.0151 312.152 Q83.404 312.152 81.5753 315.717 Q79.7697 319.259 79.7697 326.388 Q79.7697 333.495 81.5753 337.059 Q83.404 340.601 87.0151 340.601 Q90.6493 340.601 92.4548 337.059 Q94.2835 333.495 94.2835 326.388 Q94.2835 319.259 92.4548 315.717 Q90.6493 312.152 87.0151 312.152 M87.0151 308.448 Q92.8252 308.448 95.8808 313.055 Q98.9594 317.638 98.9594 326.388 Q98.9594 335.115 95.8808 339.721 Q92.8252 344.305 87.0151 344.305 Q81.2049 344.305 78.1262 339.721 Q75.0707 335.115 75.0707 326.388 Q75.0707 317.638 78.1262 313.055 Q81.2049 308.448 87.0151 308.448 Z" fill="#000000" fill-rule="evenodd" fill-opacity="1" /><path clip-path="url(#clip670)" d="M117.177 312.152 Q113.566 312.152 111.737 315.717 Q109.932 319.259 109.932 326.388 Q109.932 333.495 111.737 337.059 Q113.566 340.601 117.177 340.601 Q120.811 340.601 122.617 337.059 Q124.445 333.495 124.445 326.388 Q124.445 319.259 122.617 315.717 Q120.811 312.152 117.177 312.152 M117.177 308.448 Q122.987 308.448 126.043 313.055 Q129.121 317.638 129.121 326.388 Q129.121 335.115 126.043 339.721 Q122.987 344.305 117.177 344.305 Q111.367 344.305 108.288 339.721 Q105.233 335.115 105.233 326.388 Q105.233 317.638 108.288 313.055 Q111.367 308.448 117.177 308.448 Z" fill="#000000" fill-rule="evenodd" fill-opacity="1" /><polyline clip-path="url(#clip672)" style="stroke:#009af9; stroke-linecap:round; stroke-linejoin:round; stroke-width:4; stroke-opacity:1; fill:none" points="261.337,1813.72 366.193,1813.72 461.288,1783.37 694.237,1783.37 1150.77,1768.19 1242.87,1768.19 1388.56,1768.19 1610.18,1753.01 1691.45,1753.01 1821.73,1737.84 1912.87,1722.66 2054.06,1722.66 2066.86,1722.66 2365.56,1677.13 2742.79,1677.13 2907.97,1616.42 3068.54,1631.6 "/>
<circle clip-path="url(#clip672)" cx="261.337" cy="1813.72" r="14.4" fill="#009af9" fill-rule="evenodd" fill-opacity="1" stroke="#000000" stroke-opacity="1" stroke-width="5.12"/>
<circle clip-path="url(#clip672)" cx="366.193" cy="1813.72" r="14.4" fill="#009af9" fill-rule="evenodd" fill-opacity="1" stroke="#000000" stroke-opacity="1" stroke-width="5.12"/>
<circle clip-path="url(#clip672)" cx="461.288" cy="1783.37" r="14.4" fill="#009af9" fill-rule="evenodd" fill-opacity="1" stroke="#000000" stroke-opacity="1" stroke-width="5.12"/>
<circle clip-path="url(#clip672)" cx="694.237" cy="1783.37" r="14.4" fill="#009af9" fill-rule="evenodd" fill-opacity="1" stroke="#000000" stroke-opacity="1" stroke-width="5.12"/>
<circle clip-path="url(#clip672)" cx="1150.77" cy="1768.19" r="14.4" fill="#009af9" fill-rule="evenodd" fill-opacity="1" stroke="#000000" stroke-opacity="1" stroke-width="5.12"/>
<circle clip-path="url(#clip672)" cx="1242.87" cy="1768.19" r="14.4" fill="#009af9" fill-rule="evenodd" fill-opacity="1" stroke="#000000" stroke-opacity="1" stroke-width="5.12"/>
<circle clip-path="url(#clip672)" cx="1388.56" cy="1768.19" r="14.4" fill="#009af9" fill-rule="evenodd" fill-opacity="1" stroke="#000000" stroke-opacity="1" stroke-width="5.12"/>
<circle clip-path="url(#clip672)" cx="1610.18" cy="1753.01" r="14.4" fill="#009af9" fill-rule="evenodd" fill-opacity="1" stroke="#000000" stroke-opacity="1" stroke-width="5.12"/>
<circle clip-path="url(#clip672)" cx="1691.45" cy="1753.01" r="14.4" fill="#009af9" fill-rule="evenodd" fill-opacity="1" stroke="#000000" stroke-opacity="1" stroke-width="5.12"/>
<circle clip-path="url(#clip672)" cx="1821.73" cy="1737.84" r="14.4" fill="#009af9" fill-rule="evenodd" fill-opacity="1" stroke="#000000" stroke-opacity="1" stroke-width="5.12"/>
<circle clip-path="url(#clip672)" cx="1912.87" cy="1722.66" r="14.4" fill="#009af9" fill-rule="evenodd" fill-opacity="1" stroke="#000000" stroke-opacity="1" stroke-width="5.12"/>
<circle clip-path="url(#clip672)" cx="2054.06" cy="1722.66" r="14.4" fill="#009af9" fill-rule="evenodd" fill-opacity="1" stroke="#000000" stroke-opacity="1" stroke-width="5.12"/>
<circle clip-path="url(#clip672)" cx="2066.86" cy="1722.66" r="14.4" fill="#009af9" fill-rule="evenodd" fill-opacity="1" stroke="#000000" stroke-opacity="1" stroke-width="5.12"/>
<circle clip-path="url(#clip672)" cx="2365.56" cy="1677.13" r="14.4" fill="#009af9" fill-rule="evenodd" fill-opacity="1" stroke="#000000" stroke-opacity="1" stroke-width="5.12"/>
<circle clip-path="url(#clip672)" cx="2742.79" cy="1677.13" r="14.4" fill="#009af9" fill-rule="evenodd" fill-opacity="1" stroke="#000000" stroke-opacity="1" stroke-width="5.12"/>
<circle clip-path="url(#clip672)" cx="2907.97" cy="1616.42" r="14.4" fill="#009af9" fill-rule="evenodd" fill-opacity="1" stroke="#000000" stroke-opacity="1" stroke-width="5.12"/>
<circle clip-path="url(#clip672)" cx="3068.54" cy="1631.6" r="14.4" fill="#009af9" fill-rule="evenodd" fill-opacity="1" stroke="#000000" stroke-opacity="1" stroke-width="5.12"/>
<polyline clip-path="url(#clip672)" style="stroke:#e26f46; stroke-linecap:round; stroke-linejoin:round; stroke-width:4; stroke-opacity:1; fill:none" points="261.337,1783.37 366.193,1753.01 461.288,1464.65 694.237,1449.47 1150.77,1358.41 1242.87,1388.76 1388.56,1328.05 1610.18,1312.87 1691.45,1267.34 1821.73,1236.99 1912.87,1176.28 2054.06,1236.99 2066.86,1191.46 2365.56,1070.04 2742.79,781.67 2907.97,326.353 3068.54,326.353 "/>
<circle clip-path="url(#clip672)" cx="261.337" cy="1783.37" r="14.4" fill="#e26f46" fill-rule="evenodd" fill-opacity="1" stroke="#000000" stroke-opacity="1" stroke-width="5.12"/>
<circle clip-path="url(#clip672)" cx="366.193" cy="1753.01" r="14.4" fill="#e26f46" fill-rule="evenodd" fill-opacity="1" stroke="#000000" stroke-opacity="1" stroke-width="5.12"/>
<circle clip-path="url(#clip672)" cx="461.288" cy="1464.65" r="14.4" fill="#e26f46" fill-rule="evenodd" fill-opacity="1" stroke="#000000" stroke-opacity="1" stroke-width="5.12"/>
<circle clip-path="url(#clip672)" cx="694.237" cy="1449.47" r="14.4" fill="#e26f46" fill-rule="evenodd" fill-opacity="1" stroke="#000000" stroke-opacity="1" stroke-width="5.12"/>
<circle clip-path="url(#clip672)" cx="1150.77" cy="1358.41" r="14.4" fill="#e26f46" fill-rule="evenodd" fill-opacity="1" stroke="#000000" stroke-opacity="1" stroke-width="5.12"/>
<circle clip-path="url(#clip672)" cx="1242.87" cy="1388.76" r="14.4" fill="#e26f46" fill-rule="evenodd" fill-opacity="1" stroke="#000000" stroke-opacity="1" stroke-width="5.12"/>
<circle clip-path="url(#clip672)" cx="1388.56" cy="1328.05" r="14.4" fill="#e26f46" fill-rule="evenodd" fill-opacity="1" stroke="#000000" stroke-opacity="1" stroke-width="5.12"/>
<circle clip-path="url(#clip672)" cx="1610.18" cy="1312.87" r="14.4" fill="#e26f46" fill-rule="evenodd" fill-opacity="1" stroke="#000000" stroke-opacity="1" stroke-width="5.12"/>
<circle clip-path="url(#clip672)" cx="1691.45" cy="1267.34" r="14.4" fill="#e26f46" fill-rule="evenodd" fill-opacity="1" stroke="#000000" stroke-opacity="1" stroke-width="5.12"/>
<circle clip-path="url(#clip672)" cx="1821.73" cy="1236.99" r="14.4" fill="#e26f46" fill-rule="evenodd" fill-opacity="1" stroke="#000000" stroke-opacity="1" stroke-width="5.12"/>
<circle clip-path="url(#clip672)" cx="1912.87" cy="1176.28" r="14.4" fill="#e26f46" fill-rule="evenodd" fill-opacity="1" stroke="#000000" stroke-opacity="1" stroke-width="5.12"/>
<circle clip-path="url(#clip672)" cx="2054.06" cy="1236.99" r="14.4" fill="#e26f46" fill-rule="evenodd" fill-opacity="1" stroke="#000000" stroke-opacity="1" stroke-width="5.12"/>
<circle clip-path="url(#clip672)" cx="2066.86" cy="1191.46" r="14.4" fill="#e26f46" fill-rule="evenodd" fill-opacity="1" stroke="#000000" stroke-opacity="1" stroke-width="5.12"/>
<circle clip-path="url(#clip672)" cx="2365.56" cy="1070.04" r="14.4" fill="#e26f46" fill-rule="evenodd" fill-opacity="1" stroke="#000000" stroke-opacity="1" stroke-width="5.12"/>
<circle clip-path="url(#clip672)" cx="2742.79" cy="781.67" r="14.4" fill="#e26f46" fill-rule="evenodd" fill-opacity="1" stroke="#000000" stroke-opacity="1" stroke-width="5.12"/>
<circle clip-path="url(#clip672)" cx="2907.97" cy="326.353" r="14.4" fill="#e26f46" fill-rule="evenodd" fill-opacity="1" stroke="#000000" stroke-opacity="1" stroke-width="5.12"/>
<circle clip-path="url(#clip672)" cx="3068.54" cy="326.353" r="14.4" fill="#e26f46" fill-rule="evenodd" fill-opacity="1" stroke="#000000" stroke-opacity="1" stroke-width="5.12"/>
<polyline clip-path="url(#clip672)" style="stroke:#3da44d; stroke-linecap:round; stroke-linejoin:round; stroke-width:4; stroke-opacity:1; fill:none" points="261.337,1753.01 366.193,1722.66 461.288,1403.94 694.237,1388.76 1150.77,1282.52 1242.87,1312.87 1388.56,1252.16 1610.18,1221.81 1691.45,1176.28 1821.73,1130.75 1912.87,1054.86 2054.06,1115.57 2066.86,1070.04 2365.56,903.088 2742.79,614.721 2907.97,98.6949 3068.54,113.872 "/>
<circle clip-path="url(#clip672)" cx="261.337" cy="1753.01" r="14.4" fill="#3da44d" fill-rule="evenodd" fill-opacity="1" stroke="#000000" stroke-opacity="1" stroke-width="5.12"/>
<circle clip-path="url(#clip672)" cx="366.193" cy="1722.66" r="14.4" fill="#3da44d" fill-rule="evenodd" fill-opacity="1" stroke="#000000" stroke-opacity="1" stroke-width="5.12"/>
<circle clip-path="url(#clip672)" cx="461.288" cy="1403.94" r="14.4" fill="#3da44d" fill-rule="evenodd" fill-opacity="1" stroke="#000000" stroke-opacity="1" stroke-width="5.12"/>
<circle clip-path="url(#clip672)" cx="694.237" cy="1388.76" r="14.4" fill="#3da44d" fill-rule="evenodd" fill-opacity="1" stroke="#000000" stroke-opacity="1" stroke-width="5.12"/>
<circle clip-path="url(#clip672)" cx="1150.77" cy="1282.52" r="14.4" fill="#3da44d" fill-rule="evenodd" fill-opacity="1" stroke="#000000" stroke-opacity="1" stroke-width="5.12"/>
<circle clip-path="url(#clip672)" cx="1242.87" cy="1312.87" r="14.4" fill="#3da44d" fill-rule="evenodd" fill-opacity="1" stroke="#000000" stroke-opacity="1" stroke-width="5.12"/>
<circle clip-path="url(#clip672)" cx="1388.56" cy="1252.16" r="14.4" fill="#3da44d" fill-rule="evenodd" fill-opacity="1" stroke="#000000" stroke-opacity="1" stroke-width="5.12"/>
<circle clip-path="url(#clip672)" cx="1610.18" cy="1221.81" r="14.4" fill="#3da44d" fill-rule="evenodd" fill-opacity="1" stroke="#000000" stroke-opacity="1" stroke-width="5.12"/>
<circle clip-path="url(#clip672)" cx="1691.45" cy="1176.28" r="14.4" fill="#3da44d" fill-rule="evenodd" fill-opacity="1" stroke="#000000" stroke-opacity="1" stroke-width="5.12"/>
<circle clip-path="url(#clip672)" cx="1821.73" cy="1130.75" r="14.4" fill="#3da44d" fill-rule="evenodd" fill-opacity="1" stroke="#000000" stroke-opacity="1" stroke-width="5.12"/>
<circle clip-path="url(#clip672)" cx="1912.87" cy="1054.86" r="14.4" fill="#3da44d" fill-rule="evenodd" fill-opacity="1" stroke="#000000" stroke-opacity="1" stroke-width="5.12"/>
<circle clip-path="url(#clip672)" cx="2054.06" cy="1115.57" r="14.4" fill="#3da44d" fill-rule="evenodd" fill-opacity="1" stroke="#000000" stroke-opacity="1" stroke-width="5.12"/>
<circle clip-path="url(#clip672)" cx="2066.86" cy="1070.04" r="14.4" fill="#3da44d" fill-rule="evenodd" fill-opacity="1" stroke="#000000" stroke-opacity="1" stroke-width="5.12"/>
<circle clip-path="url(#clip672)" cx="2365.56" cy="903.088" r="14.4" fill="#3da44d" fill-rule="evenodd" fill-opacity="1" stroke="#000000" stroke-opacity="1" stroke-width="5.12"/>
<circle clip-path="url(#clip672)" cx="2742.79" cy="614.721" r="14.4" fill="#3da44d" fill-rule="evenodd" fill-opacity="1" stroke="#000000" stroke-opacity="1" stroke-width="5.12"/>
<circle clip-path="url(#clip672)" cx="2907.97" cy="98.6949" r="14.4" fill="#3da44d" fill-rule="evenodd" fill-opacity="1" stroke="#000000" stroke-opacity="1" stroke-width="5.12"/>
<circle clip-path="url(#clip672)" cx="3068.54" cy="113.872" r="14.4" fill="#3da44d" fill-rule="evenodd" fill-opacity="1" stroke="#000000" stroke-opacity="1" stroke-width="5.12"/>
<polyline clip-path="url(#clip672)" style="stroke:#c271d2; stroke-linecap:round; stroke-linejoin:round; stroke-width:4; stroke-opacity:1; fill:none" points="-2798.51,326.353 6128.39,326.353 "/>
<path clip-path="url(#clip670)" d="M1345.37 2342.42 L1984.51 2342.42 L1984.51 2083.22 L1345.37 2083.22  Z" fill="#ffffff" fill-rule="evenodd" fill-opacity="1"/>
<polyline clip-path="url(#clip670)" style="stroke:#000000; stroke-linecap:round; stroke-linejoin:round; stroke-width:4; stroke-opacity:1; fill:none" points="1345.37,2342.42 1984.51,2342.42 1984.51,2083.22 1345.37,2083.22 1345.37,2342.42 "/>
<polyline clip-path="url(#clip670)" style="stroke:#009af9; stroke-linecap:round; stroke-linejoin:round; stroke-width:4; stroke-opacity:1; fill:none" points="1378.43,2135.06 1576.81,2135.06 "/>
<path clip-path="url(#clip670)" d="M1614.15 2148.46 L1614.15 2162.21 L1609.87 2162.21 L1609.87 2126.42 L1614.15 2126.42 L1614.15 2130.35 Q1615.5 2128.04 1617.53 2126.93 Q1619.59 2125.79 1622.44 2125.79 Q1627.16 2125.79 1630.1 2129.54 Q1633.07 2133.29 1633.07 2139.4 Q1633.07 2145.52 1630.1 2149.27 Q1627.16 2153.02 1622.44 2153.02 Q1619.59 2153.02 1617.53 2151.9 Q1615.5 2150.77 1614.15 2148.46 M1628.64 2139.4 Q1628.64 2134.71 1626.7 2132.04 Q1624.78 2129.36 1621.4 2129.36 Q1618.02 2129.36 1616.08 2132.04 Q1614.15 2134.71 1614.15 2139.4 Q1614.15 2144.1 1616.08 2146.79 Q1618.02 2149.45 1621.4 2149.45 Q1624.78 2149.45 1626.7 2146.79 Q1628.64 2144.1 1628.64 2139.4 Z" fill="#000000" fill-rule="evenodd" fill-opacity="1" /><path clip-path="url(#clip670)" d="M1661.68 2136.7 L1661.68 2152.34 L1657.42 2152.34 L1657.42 2136.83 Q1657.42 2133.15 1655.98 2131.33 Q1654.55 2129.5 1651.68 2129.5 Q1648.23 2129.5 1646.24 2131.7 Q1644.25 2133.9 1644.25 2137.69 L1644.25 2152.34 L1639.96 2152.34 L1639.96 2116.33 L1644.25 2116.33 L1644.25 2130.45 Q1645.77 2128.11 1647.83 2126.95 Q1649.92 2125.79 1652.63 2125.79 Q1657.09 2125.79 1659.39 2128.57 Q1661.68 2131.33 1661.68 2136.7 Z" fill="#000000" fill-rule="evenodd" fill-opacity="1" /><path clip-path="url(#clip670)" d="M1681.95 2139.31 Q1676.79 2139.31 1674.8 2140.49 Q1672.81 2141.67 1672.81 2144.52 Q1672.81 2146.79 1674.29 2148.13 Q1675.8 2149.45 1678.37 2149.45 Q1681.91 2149.45 1684.04 2146.95 Q1686.19 2144.43 1686.19 2140.26 L1686.19 2139.31 L1681.95 2139.31 M1690.45 2137.55 L1690.45 2152.34 L1686.19 2152.34 L1686.19 2148.41 Q1684.73 2150.77 1682.56 2151.9 Q1680.38 2153.02 1677.23 2153.02 Q1673.25 2153.02 1670.89 2150.79 Q1668.55 2148.55 1668.55 2144.8 Q1668.55 2140.42 1671.47 2138.2 Q1674.41 2135.98 1680.22 2135.98 L1686.19 2135.98 L1686.19 2135.56 Q1686.19 2132.62 1684.25 2131.02 Q1682.32 2129.4 1678.83 2129.4 Q1676.61 2129.4 1674.5 2129.94 Q1672.39 2130.47 1670.45 2131.53 L1670.45 2127.6 Q1672.79 2126.7 1674.99 2126.26 Q1677.19 2125.79 1679.27 2125.79 Q1684.89 2125.79 1687.67 2128.71 Q1690.45 2131.63 1690.45 2137.55 Z" fill="#000000" fill-rule="evenodd" fill-opacity="1" /><path clip-path="url(#clip670)" d="M1715.75 2127.18 L1715.75 2131.21 Q1713.95 2130.28 1712 2129.82 Q1710.06 2129.36 1707.97 2129.36 Q1704.8 2129.36 1703.2 2130.33 Q1701.63 2131.3 1701.63 2133.25 Q1701.63 2134.73 1702.76 2135.58 Q1703.9 2136.42 1707.32 2137.18 L1708.78 2137.51 Q1713.32 2138.48 1715.22 2140.26 Q1717.14 2142.02 1717.14 2145.19 Q1717.14 2148.8 1714.27 2150.91 Q1711.42 2153.02 1706.42 2153.02 Q1704.34 2153.02 1702.07 2152.6 Q1699.82 2152.21 1697.32 2151.39 L1697.32 2147 Q1699.69 2148.22 1701.98 2148.85 Q1704.27 2149.45 1706.51 2149.45 Q1709.52 2149.45 1711.14 2148.43 Q1712.76 2147.39 1712.76 2145.52 Q1712.76 2143.78 1711.58 2142.85 Q1710.43 2141.93 1706.47 2141.07 L1704.99 2140.72 Q1701.03 2139.89 1699.27 2138.18 Q1697.51 2136.44 1697.51 2133.43 Q1697.51 2129.77 1700.1 2127.78 Q1702.7 2125.79 1707.46 2125.79 Q1709.82 2125.79 1711.91 2126.14 Q1713.99 2126.49 1715.75 2127.18 Z" fill="#000000" fill-rule="evenodd" fill-opacity="1" /><path clip-path="url(#clip670)" d="M1746.1 2138.32 L1746.1 2140.4 L1726.51 2140.4 Q1726.79 2144.8 1729.15 2147.11 Q1731.54 2149.4 1735.77 2149.4 Q1738.23 2149.4 1740.52 2148.8 Q1742.83 2148.2 1745.1 2147 L1745.1 2151.02 Q1742.81 2152 1740.4 2152.51 Q1738 2153.02 1735.52 2153.02 Q1729.32 2153.02 1725.68 2149.4 Q1722.07 2145.79 1722.07 2139.64 Q1722.07 2133.27 1725.5 2129.54 Q1728.95 2125.79 1734.78 2125.79 Q1740.01 2125.79 1743.04 2129.17 Q1746.1 2132.53 1746.1 2138.32 M1741.84 2137.07 Q1741.79 2133.57 1739.87 2131.49 Q1737.97 2129.4 1734.82 2129.4 Q1731.26 2129.4 1729.11 2131.42 Q1726.98 2133.43 1726.65 2137.09 L1741.84 2137.07 Z" fill="#000000" fill-rule="evenodd" fill-opacity="1" /><path clip-path="url(#clip670)" d="M1769.57 2148.41 L1777.21 2148.41 L1777.21 2122.04 L1768.9 2123.71 L1768.9 2119.45 L1777.16 2117.78 L1781.84 2117.78 L1781.84 2148.41 L1789.48 2148.41 L1789.48 2152.34 L1769.57 2152.34 L1769.57 2148.41 Z" fill="#000000" fill-rule="evenodd" fill-opacity="1" /><path clip-path="url(#clip670)" d="M1833.16 2131.49 L1826.42 2131.49 L1824.48 2139.22 L1831.26 2139.22 L1833.16 2131.49 M1829.69 2118.32 L1827.28 2127.92 L1834.04 2127.92 L1836.47 2118.32 L1840.17 2118.32 L1837.79 2127.92 L1845.01 2127.92 L1845.01 2131.49 L1836.88 2131.49 L1834.99 2139.22 L1842.35 2139.22 L1842.35 2142.76 L1834.08 2142.76 L1831.68 2152.34 L1827.97 2152.34 L1830.36 2142.76 L1823.57 2142.76 L1821.19 2152.34 L1817.46 2152.34 L1819.87 2142.76 L1812.58 2142.76 L1812.58 2139.22 L1820.73 2139.22 L1822.67 2131.49 L1815.22 2131.49 L1815.22 2127.92 L1823.57 2127.92 L1825.94 2118.32 L1829.69 2118.32 Z" fill="#000000" fill-rule="evenodd" fill-opacity="1" /><path clip-path="url(#clip670)" d="M1853.11 2126.42 L1857.37 2126.42 L1857.37 2152.34 L1853.11 2152.34 L1853.11 2126.42 M1853.11 2116.33 L1857.37 2116.33 L1857.37 2121.72 L1853.11 2121.72 L1853.11 2116.33 Z" fill="#000000" fill-rule="evenodd" fill-opacity="1" /><path clip-path="url(#clip670)" d="M1870.5 2119.06 L1870.5 2126.42 L1879.27 2126.42 L1879.27 2129.73 L1870.5 2129.73 L1870.5 2143.8 Q1870.5 2146.97 1871.35 2147.88 Q1872.23 2148.78 1874.89 2148.78 L1879.27 2148.78 L1879.27 2152.34 L1874.89 2152.34 Q1869.96 2152.34 1868.09 2150.52 Q1866.21 2148.66 1866.21 2143.8 L1866.21 2129.73 L1863.09 2129.73 L1863.09 2126.42 L1866.21 2126.42 L1866.21 2119.06 L1870.5 2119.06 Z" fill="#000000" fill-rule="evenodd" fill-opacity="1" /><path clip-path="url(#clip670)" d="M1907.05 2138.32 L1907.05 2140.4 L1887.46 2140.4 Q1887.74 2144.8 1890.1 2147.11 Q1892.49 2149.4 1896.72 2149.4 Q1899.18 2149.4 1901.47 2148.8 Q1903.78 2148.2 1906.05 2147 L1906.05 2151.02 Q1903.76 2152 1901.35 2152.51 Q1898.94 2153.02 1896.47 2153.02 Q1890.26 2153.02 1886.63 2149.4 Q1883.02 2145.79 1883.02 2139.64 Q1883.02 2133.27 1886.44 2129.54 Q1889.89 2125.79 1895.73 2125.79 Q1900.96 2125.79 1903.99 2129.17 Q1907.05 2132.53 1907.05 2138.32 M1902.79 2137.07 Q1902.74 2133.57 1900.82 2131.49 Q1898.92 2129.4 1895.77 2129.4 Q1892.21 2129.4 1890.06 2131.42 Q1887.93 2133.43 1887.6 2137.09 L1902.79 2137.07 Z" fill="#000000" fill-rule="evenodd" fill-opacity="1" /><path clip-path="url(#clip670)" d="M1929.06 2130.4 Q1928.34 2129.98 1927.49 2129.8 Q1926.65 2129.59 1925.63 2129.59 Q1922.02 2129.59 1920.08 2131.95 Q1918.16 2134.29 1918.16 2138.69 L1918.16 2152.34 L1913.87 2152.34 L1913.87 2126.42 L1918.16 2126.42 L1918.16 2130.45 Q1919.5 2128.08 1921.65 2126.95 Q1923.81 2125.79 1926.88 2125.79 Q1927.32 2125.79 1927.86 2125.86 Q1928.39 2125.91 1929.04 2126.02 L1929.06 2130.4 Z" fill="#000000" fill-rule="evenodd" fill-opacity="1" /><path clip-path="url(#clip670)" d="M1950.05 2127.18 L1950.05 2131.21 Q1948.25 2130.28 1946.3 2129.82 Q1944.36 2129.36 1942.28 2129.36 Q1939.11 2129.36 1937.51 2130.33 Q1935.93 2131.3 1935.93 2133.25 Q1935.93 2134.73 1937.07 2135.58 Q1938.2 2136.42 1941.63 2137.18 L1943.09 2137.51 Q1947.62 2138.48 1949.52 2140.26 Q1951.44 2142.02 1951.44 2145.19 Q1951.44 2148.8 1948.57 2150.91 Q1945.73 2153.02 1940.73 2153.02 Q1938.64 2153.02 1936.37 2152.6 Q1934.13 2152.21 1931.63 2151.39 L1931.63 2147 Q1933.99 2148.22 1936.28 2148.85 Q1938.57 2149.45 1940.82 2149.45 Q1943.83 2149.45 1945.45 2148.43 Q1947.07 2147.39 1947.07 2145.52 Q1947.07 2143.78 1945.89 2142.85 Q1944.73 2141.93 1940.77 2141.07 L1939.29 2140.72 Q1935.33 2139.89 1933.57 2138.18 Q1931.81 2136.44 1931.81 2133.43 Q1931.81 2129.77 1934.41 2127.78 Q1937 2125.79 1941.77 2125.79 Q1944.13 2125.79 1946.21 2126.14 Q1948.3 2126.49 1950.05 2127.18 Z" fill="#000000" fill-rule="evenodd" fill-opacity="1" /><polyline clip-path="url(#clip670)" style="stroke:#e26f46; stroke-linecap:round; stroke-linejoin:round; stroke-width:4; stroke-opacity:1; fill:none" points="1378.43,2186.9 1576.81,2186.9 "/>
<path clip-path="url(#clip670)" d="M1614.15 2200.3 L1614.15 2214.05 L1609.87 2214.05 L1609.87 2178.26 L1614.15 2178.26 L1614.15 2182.19 Q1615.5 2179.88 1617.53 2178.77 Q1619.59 2177.63 1622.44 2177.63 Q1627.16 2177.63 1630.1 2181.38 Q1633.07 2185.13 1633.07 2191.24 Q1633.07 2197.36 1630.1 2201.11 Q1627.16 2204.86 1622.44 2204.86 Q1619.59 2204.86 1617.53 2203.74 Q1615.5 2202.61 1614.15 2200.3 M1628.64 2191.24 Q1628.64 2186.55 1626.7 2183.88 Q1624.78 2181.2 1621.4 2181.2 Q1618.02 2181.2 1616.08 2183.88 Q1614.15 2186.55 1614.15 2191.24 Q1614.15 2195.94 1616.08 2198.63 Q1618.02 2201.29 1621.4 2201.29 Q1624.78 2201.29 1626.7 2198.63 Q1628.64 2195.94 1628.64 2191.24 Z" fill="#000000" fill-rule="evenodd" fill-opacity="1" /><path clip-path="url(#clip670)" d="M1661.68 2188.54 L1661.68 2204.18 L1657.42 2204.18 L1657.42 2188.67 Q1657.42 2184.99 1655.98 2183.17 Q1654.55 2181.34 1651.68 2181.34 Q1648.23 2181.34 1646.24 2183.54 Q1644.25 2185.74 1644.25 2189.53 L1644.25 2204.18 L1639.96 2204.18 L1639.96 2168.17 L1644.25 2168.17 L1644.25 2182.29 Q1645.77 2179.95 1647.83 2178.79 Q1649.92 2177.63 1652.63 2177.63 Q1657.09 2177.63 1659.39 2180.41 Q1661.68 2183.17 1661.68 2188.54 Z" fill="#000000" fill-rule="evenodd" fill-opacity="1" /><path clip-path="url(#clip670)" d="M1681.95 2191.15 Q1676.79 2191.15 1674.8 2192.33 Q1672.81 2193.51 1672.81 2196.36 Q1672.81 2198.63 1674.29 2199.97 Q1675.8 2201.29 1678.37 2201.29 Q1681.91 2201.29 1684.04 2198.79 Q1686.19 2196.27 1686.19 2192.1 L1686.19 2191.15 L1681.95 2191.15 M1690.45 2189.39 L1690.45 2204.18 L1686.19 2204.18 L1686.19 2200.25 Q1684.73 2202.61 1682.56 2203.74 Q1680.38 2204.86 1677.23 2204.86 Q1673.25 2204.86 1670.89 2202.63 Q1668.55 2200.39 1668.55 2196.64 Q1668.55 2192.26 1671.47 2190.04 Q1674.41 2187.82 1680.22 2187.82 L1686.19 2187.82 L1686.19 2187.4 Q1686.19 2184.46 1684.25 2182.86 Q1682.32 2181.24 1678.83 2181.24 Q1676.61 2181.24 1674.5 2181.78 Q1672.39 2182.31 1670.45 2183.37 L1670.45 2179.44 Q1672.79 2178.54 1674.99 2178.1 Q1677.19 2177.63 1679.27 2177.63 Q1684.89 2177.63 1687.67 2180.55 Q1690.45 2183.47 1690.45 2189.39 Z" fill="#000000" fill-rule="evenodd" fill-opacity="1" /><path clip-path="url(#clip670)" d="M1715.75 2179.02 L1715.75 2183.05 Q1713.95 2182.12 1712 2181.66 Q1710.06 2181.2 1707.97 2181.2 Q1704.8 2181.2 1703.2 2182.17 Q1701.63 2183.14 1701.63 2185.09 Q1701.63 2186.57 1702.76 2187.42 Q1703.9 2188.26 1707.32 2189.02 L1708.78 2189.35 Q1713.32 2190.32 1715.22 2192.1 Q1717.14 2193.86 1717.14 2197.03 Q1717.14 2200.64 1714.27 2202.75 Q1711.42 2204.86 1706.42 2204.86 Q1704.34 2204.86 1702.07 2204.44 Q1699.82 2204.05 1697.32 2203.23 L1697.32 2198.84 Q1699.69 2200.06 1701.98 2200.69 Q1704.27 2201.29 1706.51 2201.29 Q1709.52 2201.29 1711.14 2200.27 Q1712.76 2199.23 1712.76 2197.36 Q1712.76 2195.62 1711.58 2194.69 Q1710.43 2193.77 1706.47 2192.91 L1704.99 2192.56 Q1701.03 2191.73 1699.27 2190.02 Q1697.51 2188.28 1697.51 2185.27 Q1697.51 2181.61 1700.1 2179.62 Q1702.7 2177.63 1707.46 2177.63 Q1709.82 2177.63 1711.91 2177.98 Q1713.99 2178.33 1715.75 2179.02 Z" fill="#000000" fill-rule="evenodd" fill-opacity="1" /><path clip-path="url(#clip670)" d="M1746.1 2190.16 L1746.1 2192.24 L1726.51 2192.24 Q1726.79 2196.64 1729.15 2198.95 Q1731.54 2201.24 1735.77 2201.24 Q1738.23 2201.24 1740.52 2200.64 Q1742.83 2200.04 1745.1 2198.84 L1745.1 2202.86 Q1742.81 2203.84 1740.4 2204.35 Q1738 2204.86 1735.52 2204.86 Q1729.32 2204.86 1725.68 2201.24 Q1722.07 2197.63 1722.07 2191.48 Q1722.07 2185.11 1725.5 2181.38 Q1728.95 2177.63 1734.78 2177.63 Q1740.01 2177.63 1743.04 2181.01 Q1746.1 2184.37 1746.1 2190.16 M1741.84 2188.91 Q1741.79 2185.41 1739.87 2183.33 Q1737.97 2181.24 1734.82 2181.24 Q1731.26 2181.24 1729.11 2183.26 Q1726.98 2185.27 1726.65 2188.93 L1741.84 2188.91 Z" fill="#000000" fill-rule="evenodd" fill-opacity="1" /><path clip-path="url(#clip670)" d="M1772.79 2200.25 L1789.11 2200.25 L1789.11 2204.18 L1767.16 2204.18 L1767.16 2200.25 Q1769.82 2197.49 1774.41 2192.86 Q1779.01 2188.21 1780.19 2186.87 Q1782.44 2184.35 1783.32 2182.61 Q1784.22 2180.85 1784.22 2179.16 Q1784.22 2176.41 1782.28 2174.67 Q1780.36 2172.93 1777.25 2172.93 Q1775.06 2172.93 1772.6 2173.7 Q1770.17 2174.46 1767.39 2176.01 L1767.39 2171.29 Q1770.22 2170.16 1772.67 2169.58 Q1775.13 2169 1777.16 2169 Q1782.53 2169 1785.73 2171.68 Q1788.92 2174.37 1788.92 2178.86 Q1788.92 2180.99 1788.11 2182.91 Q1787.32 2184.81 1785.22 2187.4 Q1784.64 2188.07 1781.54 2191.29 Q1778.44 2194.48 1772.79 2200.25 Z" fill="#000000" fill-rule="evenodd" fill-opacity="1" /><path clip-path="url(#clip670)" d="M1833.16 2183.33 L1826.42 2183.33 L1824.48 2191.06 L1831.26 2191.06 L1833.16 2183.33 M1829.69 2170.16 L1827.28 2179.76 L1834.04 2179.76 L1836.47 2170.16 L1840.17 2170.16 L1837.79 2179.76 L1845.01 2179.76 L1845.01 2183.33 L1836.88 2183.33 L1834.99 2191.06 L1842.35 2191.06 L1842.35 2194.6 L1834.08 2194.6 L1831.68 2204.18 L1827.97 2204.18 L1830.36 2194.6 L1823.57 2194.6 L1821.19 2204.18 L1817.46 2204.18 L1819.87 2194.6 L1812.58 2194.6 L1812.58 2191.06 L1820.73 2191.06 L1822.67 2183.33 L1815.22 2183.33 L1815.22 2179.76 L1823.57 2179.76 L1825.94 2170.16 L1829.69 2170.16 Z" fill="#000000" fill-rule="evenodd" fill-opacity="1" /><path clip-path="url(#clip670)" d="M1853.11 2178.26 L1857.37 2178.26 L1857.37 2204.18 L1853.11 2204.18 L1853.11 2178.26 M1853.11 2168.17 L1857.37 2168.17 L1857.37 2173.56 L1853.11 2173.56 L1853.11 2168.17 Z" fill="#000000" fill-rule="evenodd" fill-opacity="1" /><path clip-path="url(#clip670)" d="M1870.5 2170.9 L1870.5 2178.26 L1879.27 2178.26 L1879.27 2181.57 L1870.5 2181.57 L1870.5 2195.64 Q1870.5 2198.81 1871.35 2199.72 Q1872.23 2200.62 1874.89 2200.62 L1879.27 2200.62 L1879.27 2204.18 L1874.89 2204.18 Q1869.96 2204.18 1868.09 2202.36 Q1866.21 2200.5 1866.21 2195.64 L1866.21 2181.57 L1863.09 2181.57 L1863.09 2178.26 L1866.21 2178.26 L1866.21 2170.9 L1870.5 2170.9 Z" fill="#000000" fill-rule="evenodd" fill-opacity="1" /><path clip-path="url(#clip670)" d="M1907.05 2190.16 L1907.05 2192.24 L1887.46 2192.24 Q1887.74 2196.64 1890.1 2198.95 Q1892.49 2201.24 1896.72 2201.24 Q1899.18 2201.24 1901.47 2200.64 Q1903.78 2200.04 1906.05 2198.84 L1906.05 2202.86 Q1903.76 2203.84 1901.35 2204.35 Q1898.94 2204.86 1896.47 2204.86 Q1890.26 2204.86 1886.63 2201.24 Q1883.02 2197.63 1883.02 2191.48 Q1883.02 2185.11 1886.44 2181.38 Q1889.89 2177.63 1895.73 2177.63 Q1900.96 2177.63 1903.99 2181.01 Q1907.05 2184.37 1907.05 2190.16 M1902.79 2188.91 Q1902.74 2185.41 1900.82 2183.33 Q1898.92 2181.24 1895.77 2181.24 Q1892.21 2181.24 1890.06 2183.26 Q1887.93 2185.27 1887.6 2188.93 L1902.79 2188.91 Z" fill="#000000" fill-rule="evenodd" fill-opacity="1" /><path clip-path="url(#clip670)" d="M1929.06 2182.24 Q1928.34 2181.82 1927.49 2181.64 Q1926.65 2181.43 1925.63 2181.43 Q1922.02 2181.43 1920.08 2183.79 Q1918.16 2186.13 1918.16 2190.53 L1918.16 2204.18 L1913.87 2204.18 L1913.87 2178.26 L1918.16 2178.26 L1918.16 2182.29 Q1919.5 2179.92 1921.65 2178.79 Q1923.81 2177.63 1926.88 2177.63 Q1927.32 2177.63 1927.86 2177.7 Q1928.39 2177.75 1929.04 2177.86 L1929.06 2182.24 Z" fill="#000000" fill-rule="evenodd" fill-opacity="1" /><path clip-path="url(#clip670)" d="M1950.05 2179.02 L1950.05 2183.05 Q1948.25 2182.12 1946.3 2181.66 Q1944.36 2181.2 1942.28 2181.2 Q1939.11 2181.2 1937.51 2182.17 Q1935.93 2183.14 1935.93 2185.09 Q1935.93 2186.57 1937.07 2187.42 Q1938.2 2188.26 1941.63 2189.02 L1943.09 2189.35 Q1947.62 2190.32 1949.52 2192.1 Q1951.44 2193.86 1951.44 2197.03 Q1951.44 2200.64 1948.57 2202.75 Q1945.73 2204.86 1940.73 2204.86 Q1938.64 2204.86 1936.37 2204.44 Q1934.13 2204.05 1931.63 2203.23 L1931.63 2198.84 Q1933.99 2200.06 1936.28 2200.69 Q1938.57 2201.29 1940.82 2201.29 Q1943.83 2201.29 1945.45 2200.27 Q1947.07 2199.23 1947.07 2197.36 Q1947.07 2195.62 1945.89 2194.69 Q1944.73 2193.77 1940.77 2192.91 L1939.29 2192.56 Q1935.33 2191.73 1933.57 2190.02 Q1931.81 2188.28 1931.81 2185.27 Q1931.81 2181.61 1934.41 2179.62 Q1937 2177.63 1941.77 2177.63 Q1944.13 2177.63 1946.21 2177.98 Q1948.3 2178.33 1950.05 2179.02 Z" fill="#000000" fill-rule="evenodd" fill-opacity="1" /><polyline clip-path="url(#clip670)" style="stroke:#3da44d; stroke-linecap:round; stroke-linejoin:round; stroke-width:4; stroke-opacity:1; fill:none" points="1378.43,2238.74 1576.81,2238.74 "/>
<path clip-path="url(#clip670)" d="M1631.58 2240.38 L1631.58 2256.02 L1627.33 2256.02 L1627.33 2240.51 Q1627.33 2236.83 1625.89 2235.01 Q1624.45 2233.18 1621.58 2233.18 Q1618.14 2233.18 1616.14 2235.38 Q1614.15 2237.58 1614.15 2241.37 L1614.15 2256.02 L1609.87 2256.02 L1609.87 2230.1 L1614.15 2230.1 L1614.15 2234.13 Q1615.68 2231.79 1617.74 2230.63 Q1619.83 2229.47 1622.53 2229.47 Q1627 2229.47 1629.29 2232.25 Q1631.58 2235.01 1631.58 2240.38 Z" fill="#000000" fill-rule="evenodd" fill-opacity="1" /><path clip-path="url(#clip670)" d="M1662.26 2242 L1662.26 2244.08 L1642.67 2244.08 Q1642.95 2248.48 1645.31 2250.79 Q1647.7 2253.08 1651.93 2253.08 Q1654.39 2253.08 1656.68 2252.48 Q1658.99 2251.88 1661.26 2250.68 L1661.26 2254.7 Q1658.97 2255.68 1656.56 2256.19 Q1654.15 2256.7 1651.68 2256.7 Q1645.47 2256.7 1641.84 2253.08 Q1638.23 2249.47 1638.23 2243.32 Q1638.23 2236.95 1641.65 2233.22 Q1645.1 2229.47 1650.94 2229.47 Q1656.17 2229.47 1659.2 2232.85 Q1662.26 2236.21 1662.26 2242 M1658 2240.75 Q1657.95 2237.25 1656.03 2235.17 Q1654.13 2233.08 1650.98 2233.08 Q1647.42 2233.08 1645.26 2235.1 Q1643.14 2237.11 1642.81 2240.77 L1658 2240.75 Z" fill="#000000" fill-rule="evenodd" fill-opacity="1" /><path clip-path="url(#clip670)" d="M1673.46 2222.74 L1673.46 2230.1 L1682.23 2230.1 L1682.23 2233.41 L1673.46 2233.41 L1673.46 2247.48 Q1673.46 2250.65 1674.32 2251.56 Q1675.2 2252.46 1677.86 2252.46 L1682.23 2252.46 L1682.23 2256.02 L1677.86 2256.02 Q1672.93 2256.02 1671.05 2254.2 Q1669.18 2252.34 1669.18 2247.48 L1669.18 2233.41 L1666.05 2233.41 L1666.05 2230.1 L1669.18 2230.1 L1669.18 2222.74 L1673.46 2222.74 Z" fill="#000000" fill-rule="evenodd" fill-opacity="1" /><path clip-path="url(#clip670)" d="M1722.67 2235.17 L1715.94 2235.17 L1713.99 2242.9 L1720.77 2242.9 L1722.67 2235.17 M1719.2 2222 L1716.79 2231.6 L1723.55 2231.6 L1725.98 2222 L1729.69 2222 L1727.3 2231.6 L1734.52 2231.6 L1734.52 2235.17 L1726.4 2235.17 L1724.5 2242.9 L1731.86 2242.9 L1731.86 2246.44 L1723.6 2246.44 L1721.19 2256.02 L1717.49 2256.02 L1719.87 2246.44 L1713.09 2246.44 L1710.7 2256.02 L1706.98 2256.02 L1709.38 2246.44 L1702.09 2246.44 L1702.09 2242.9 L1710.24 2242.9 L1712.19 2235.17 L1704.73 2235.17 L1704.73 2231.6 L1713.09 2231.6 L1715.45 2222 L1719.2 2222 Z" fill="#000000" fill-rule="evenodd" fill-opacity="1" /><path clip-path="url(#clip670)" d="M1742.63 2230.1 L1746.88 2230.1 L1746.88 2256.02 L1742.63 2256.02 L1742.63 2230.1 M1742.63 2220.01 L1746.88 2220.01 L1746.88 2225.4 L1742.63 2225.4 L1742.63 2220.01 Z" fill="#000000" fill-rule="evenodd" fill-opacity="1" /><path clip-path="url(#clip670)" d="M1760.01 2222.74 L1760.01 2230.1 L1768.78 2230.1 L1768.78 2233.41 L1760.01 2233.41 L1760.01 2247.48 Q1760.01 2250.65 1760.87 2251.56 Q1761.75 2252.46 1764.41 2252.46 L1768.78 2252.46 L1768.78 2256.02 L1764.41 2256.02 Q1759.48 2256.02 1757.6 2254.2 Q1755.73 2252.34 1755.73 2247.48 L1755.73 2233.41 L1752.6 2233.41 L1752.6 2230.1 L1755.73 2230.1 L1755.73 2222.74 L1760.01 2222.74 Z" fill="#000000" fill-rule="evenodd" fill-opacity="1" /><path clip-path="url(#clip670)" d="M1796.56 2242 L1796.56 2244.08 L1776.98 2244.08 Q1777.25 2248.48 1779.62 2250.79 Q1782 2253.08 1786.24 2253.08 Q1788.69 2253.08 1790.98 2252.48 Q1793.3 2251.88 1795.57 2250.68 L1795.57 2254.7 Q1793.27 2255.68 1790.87 2256.19 Q1788.46 2256.7 1785.98 2256.7 Q1779.78 2256.7 1776.14 2253.08 Q1772.53 2249.47 1772.53 2243.32 Q1772.53 2236.95 1775.96 2233.22 Q1779.41 2229.47 1785.24 2229.47 Q1790.47 2229.47 1793.5 2232.85 Q1796.56 2236.21 1796.56 2242 M1792.3 2240.75 Q1792.25 2237.25 1790.33 2235.17 Q1788.44 2233.08 1785.29 2233.08 Q1781.72 2233.08 1779.57 2235.1 Q1777.44 2237.11 1777.12 2240.77 L1792.3 2240.75 Z" fill="#000000" fill-rule="evenodd" fill-opacity="1" /><path clip-path="url(#clip670)" d="M1818.57 2234.08 Q1817.86 2233.66 1817 2233.48 Q1816.17 2233.27 1815.15 2233.27 Q1811.54 2233.27 1809.59 2235.63 Q1807.67 2237.97 1807.67 2242.37 L1807.67 2256.02 L1803.39 2256.02 L1803.39 2230.1 L1807.67 2230.1 L1807.67 2234.13 Q1809.01 2231.76 1811.17 2230.63 Q1813.32 2229.47 1816.4 2229.47 Q1816.84 2229.47 1817.37 2229.54 Q1817.9 2229.59 1818.55 2229.7 L1818.57 2234.08 Z" fill="#000000" fill-rule="evenodd" fill-opacity="1" /><path clip-path="url(#clip670)" d="M1839.57 2230.86 L1839.57 2234.89 Q1837.76 2233.96 1835.82 2233.5 Q1833.88 2233.04 1831.79 2233.04 Q1828.62 2233.04 1827.02 2234.01 Q1825.45 2234.98 1825.45 2236.93 Q1825.45 2238.41 1826.58 2239.26 Q1827.72 2240.1 1831.14 2240.86 L1832.6 2241.19 Q1837.14 2242.16 1839.04 2243.94 Q1840.96 2245.7 1840.96 2248.87 Q1840.96 2252.48 1838.09 2254.59 Q1835.24 2256.7 1830.24 2256.7 Q1828.16 2256.7 1825.89 2256.28 Q1823.64 2255.89 1821.14 2255.07 L1821.14 2250.68 Q1823.5 2251.9 1825.8 2252.53 Q1828.09 2253.13 1830.33 2253.13 Q1833.34 2253.13 1834.96 2252.11 Q1836.58 2251.07 1836.58 2249.2 Q1836.58 2247.46 1835.4 2246.53 Q1834.25 2245.61 1830.29 2244.75 L1828.81 2244.4 Q1824.85 2243.57 1823.09 2241.86 Q1821.33 2240.12 1821.33 2237.11 Q1821.33 2233.45 1823.92 2231.46 Q1826.51 2229.47 1831.28 2229.47 Q1833.64 2229.47 1835.73 2229.82 Q1837.81 2230.17 1839.57 2230.86 Z" fill="#000000" fill-rule="evenodd" fill-opacity="1" /><polyline clip-path="url(#clip670)" style="stroke:#c271d2; stroke-linecap:round; stroke-linejoin:round; stroke-width:4; stroke-opacity:1; fill:none" points="1378.43,2290.58 1576.81,2290.58 "/>
<path clip-path="url(#clip670)" d="M1630.38 2282.93 L1630.38 2286.92 Q1628.58 2285.92 1626.75 2285.43 Q1624.94 2284.92 1623.09 2284.92 Q1618.95 2284.92 1616.65 2287.56 Q1614.36 2290.18 1614.36 2294.92 Q1614.36 2299.67 1616.65 2302.31 Q1618.95 2304.92 1623.09 2304.92 Q1624.94 2304.92 1626.75 2304.44 Q1628.58 2303.93 1630.38 2302.93 L1630.38 2306.87 Q1628.6 2307.7 1626.68 2308.12 Q1624.78 2308.54 1622.63 2308.54 Q1616.77 2308.54 1613.32 2304.85 Q1609.87 2301.17 1609.87 2294.92 Q1609.87 2288.58 1613.34 2284.95 Q1616.84 2281.31 1622.9 2281.31 Q1624.87 2281.31 1626.75 2281.73 Q1628.62 2282.12 1630.38 2282.93 Z" fill="#000000" fill-rule="evenodd" fill-opacity="1" /><path clip-path="url(#clip670)" d="M1637.35 2297.63 L1637.35 2281.94 L1641.61 2281.94 L1641.61 2297.47 Q1641.61 2301.15 1643.04 2303 Q1644.48 2304.83 1647.35 2304.83 Q1650.8 2304.83 1652.79 2302.63 Q1654.8 2300.43 1654.8 2296.64 L1654.8 2281.94 L1659.06 2281.94 L1659.06 2307.86 L1654.8 2307.86 L1654.8 2303.88 Q1653.25 2306.24 1651.19 2307.4 Q1649.15 2308.54 1646.45 2308.54 Q1641.98 2308.54 1639.66 2305.76 Q1637.35 2302.98 1637.35 2297.63 M1648.07 2281.31 L1648.07 2281.31 Z" fill="#000000" fill-rule="evenodd" fill-opacity="1" /><path clip-path="url(#clip670)" d="M1672.05 2274.58 L1672.05 2281.94 L1680.82 2281.94 L1680.82 2285.25 L1672.05 2285.25 L1672.05 2299.32 Q1672.05 2302.49 1672.9 2303.4 Q1673.78 2304.3 1676.45 2304.3 L1680.82 2304.3 L1680.82 2307.86 L1676.45 2307.86 Q1671.51 2307.86 1669.64 2306.04 Q1667.76 2304.18 1667.76 2299.32 L1667.76 2285.25 L1664.64 2285.25 L1664.64 2281.94 L1667.76 2281.94 L1667.76 2274.58 L1672.05 2274.58 Z" fill="#000000" fill-rule="evenodd" fill-opacity="1" /><path clip-path="url(#clip670)" d="M1696.47 2284.92 Q1693.04 2284.92 1691.05 2287.61 Q1689.06 2290.27 1689.06 2294.92 Q1689.06 2299.58 1691.03 2302.26 Q1693.02 2304.92 1696.47 2304.92 Q1699.87 2304.92 1701.86 2302.24 Q1703.85 2299.55 1703.85 2294.92 Q1703.85 2290.32 1701.86 2287.63 Q1699.87 2284.92 1696.47 2284.92 M1696.47 2281.31 Q1702.02 2281.31 1705.2 2284.92 Q1708.37 2288.54 1708.37 2294.92 Q1708.37 2301.29 1705.2 2304.92 Q1702.02 2308.54 1696.47 2308.54 Q1690.89 2308.54 1687.72 2304.92 Q1684.57 2301.29 1684.57 2294.92 Q1684.57 2288.54 1687.72 2284.92 Q1690.89 2281.31 1696.47 2281.31 Z" fill="#000000" fill-rule="evenodd" fill-opacity="1" /><path clip-path="url(#clip670)" d="M1728.55 2271.85 L1728.55 2275.39 L1724.48 2275.39 Q1722.19 2275.39 1721.28 2276.31 Q1720.4 2277.24 1720.4 2279.65 L1720.4 2281.94 L1727.42 2281.94 L1727.42 2285.25 L1720.4 2285.25 L1720.4 2307.86 L1716.12 2307.86 L1716.12 2285.25 L1712.05 2285.25 L1712.05 2281.94 L1716.12 2281.94 L1716.12 2280.13 Q1716.12 2275.8 1718.13 2273.84 Q1720.15 2271.85 1724.52 2271.85 L1728.55 2271.85 Z" fill="#000000" fill-rule="evenodd" fill-opacity="1" /><path clip-path="url(#clip670)" d="M1745.24 2271.85 L1745.24 2275.39 L1741.17 2275.39 Q1738.88 2275.39 1737.97 2276.31 Q1737.09 2277.24 1737.09 2279.65 L1737.09 2281.94 L1744.11 2281.94 L1744.11 2285.25 L1737.09 2285.25 L1737.09 2307.86 L1732.81 2307.86 L1732.81 2285.25 L1728.74 2285.25 L1728.74 2281.94 L1732.81 2281.94 L1732.81 2280.13 Q1732.81 2275.8 1734.82 2273.84 Q1736.84 2271.85 1741.21 2271.85 L1745.24 2271.85 Z" fill="#000000" fill-rule="evenodd" fill-opacity="1" /></svg>
